<svg width="202" height="30" xmlns="http://www.w3.org/2000/svg"><g fill="none" fill-rule="evenodd"><path d="M49.52 9.15c-2.208 0-4.09.782-5.605 2.01V9.347h-5.11V29.28h5.318V16.546c.733-1.03 2.575-2.465 4.822-2.465.802 0 1.535.059 2.13.316V9.288a8.9 8.9 0 00-1.555-.139M3.179 23.2c1.346 1.228 3.436 1.97 5.436 1.97 1.435 0 2.535-.702 2.535-1.683 0-3-9.605-1.93-9.605-8.337 0-3.822 3.683-6.209 7.604-6.209 2.575 0 5.397.99 6.704 2.01l-2.495 3.862c-1.02-.742-2.367-1.356-3.803-1.356-1.475 0-2.703.574-2.703 1.604 0 2.584 9.605 1.564 9.605 8.466 0 3.822-3.723 6.16-7.892 6.16-2.743 0-5.644-.942-7.97-2.674L3.178 23.2zm33.359-4.06c0-5.545-3.881-10.189-9.357-10.189-5.892 0-9.645 4.852-9.645 10.397 0 6.249 4.456 10.358 10.388 10.358 3.07 0 6.218-1.277 8.139-3.575l-3.03-3.04c-.94 1.03-2.743 2.298-4.99 2.298-2.823 0-5.07-1.931-5.358-4.724H36.42c.08-.455.12-.99.12-1.525zm-13.615-2.386c.248-1.812 2.04-3.495 4.248-3.495 2.169 0 3.763 1.723 3.921 3.495h-8.169zm40.826 4.763l5.436-12.16H74.7L65.59 29.29h-3.683l-9.12-19.933h5.526zM79.166 0c1.921 0 3.476 1.475 3.476 3.406s-1.555 3.407-3.476 3.407c-1.92 0-3.475-1.476-3.475-3.407C75.69 1.476 77.245 0 79.166 0m-2.654 9.357h5.317V29.29h-5.317zm27.29 15.863c-2.327 3.12-5.277 4.476-8.99 4.476-6.13 0-10.635-4.604-10.635-10.357 0-5.793 4.624-10.398 10.674-10.398 3.436 0 6.505 1.605 8.337 3.991l-3.762 3.327c-1.06-1.396-2.654-2.386-4.575-2.386-3.07 0-5.357 2.426-5.357 5.466 0 3.119 2.248 5.426 5.476 5.426 2.168 0 3.881-1.317 4.743-2.634l4.09 3.09zm19.299.901c-1.92 2.298-5.07 3.575-8.14 3.575-5.93 0-10.386-4.11-10.386-10.357 0-5.546 3.762-10.398 9.644-10.398 5.476 0 9.357 4.644 9.357 10.19a9.29 9.29 0 01-.118 1.524h-13.734c.287 2.793 2.535 4.724 5.357 4.724 2.247 0 4.05-1.278 4.99-2.298l3.03 3.04zm-4.94-9.367c-.17-1.762-1.763-3.495-3.922-3.495-2.208 0-4.01 1.683-4.248 3.495h8.17zm7.544 12.536V9.357h5.11v1.604c1.515-1.227 3.396-2.01 5.604-2.01a8.892 8.892 0 016.872 3.209c1.307 1.564 2.04 3.574 2.04 6.98v10.15h-5.317V18.725c0-1.97-.446-3-1.189-3.743-.693-.703-1.762-1.11-2.98-1.11-2.248 0-4.09 1.436-4.822 2.466V29.28h-5.318v.01z" fill="#293F41"/><path d="M159.016 8.951c-6.348-.04-11.606 5.17-11.655 11.546a11.636 11.636 0 003.644 8.575 2.3 2.3 0 002.99.159c1.317-1.03 3.01-1.644 4.961-1.644 1.95 0 3.644.614 4.961 1.644.901.703 2.178.614 3.01-.179a11.65 11.65 0 003.624-8.456c-.01-6.406-5.168-11.615-11.535-11.645m-.07 17.467c-3.436 0-5.792-2.594-5.792-5.802 0-3.208 2.356-5.842 5.792-5.842 3.446 0 5.793 2.634 5.793 5.842 0 3.208-2.347 5.802-5.793 5.802" fill="#82B6A1"/><path fill="#293F41" d="M181.057 29.29h-3.96l-7.892-19.933h5.307l4.327 11.388 4.238-11.388h4.436l4.209 11.388 4.367-11.388h5.307l-7.892 19.933h-3.96l-4.249-11.348z"/><path fill="#293F41" fill-rule="nonzero" d="M198.485 26.755v.436h-.674v2.099h-.485v-2.1h-.673v-.435zm1.644 1.515l.92-1.515h.347v2.535h-.485v-1.416l-.614 1h-.337l-.604-1v1.416h-.485v-2.535h.337z"/></g></svg>