<svg data-name="Layer 1" xmlns="http://www.w3.org/2000/svg" width="32" height="32"><path d="M28.381 14.19a1.251 1.251 0 01-1.13-.713 12.823 12.823 0 00-4.864-5.452A1.249 1.249 0 1123.693 5.9a15.3 15.3 0 015.816 6.5 1.25 1.25 0 01-1.128 1.787zm-24.812-.049a1.235 1.235 0 01-.529-.119 1.25 1.25 0 01-.6-1.662 14.931 14.931 0 013.716-4.93 15.583 15.583 0 012.156-1.555 1.25 1.25 0 011.276 2.15 13 13 0 00-1.8 1.3 12.457 12.457 0 00-3.09 4.1 1.25 1.25 0 01-1.129.716z" fill="#81b5a0"/><path d="M29 26H17v-3h12a1 1 0 000-2 3 3 0 01-3-3 10.013 10.013 0 00-9-9.949v-.082A1.987 1.987 0 0119 6h1a1 1 0 000-2h-8a1 1 0 000 2h1a1.987 1.987 0 012 1.969v.082A10.013 10.013 0 006 18a3 3 0 01-3 3 1 1 0 000 2h12v3H3a1 1 0 000 2h26a1 1 0 000-2zM8 18a8 8 0 0116 0 4.98 4.98 0 001 3H7a4.98 4.98 0 001-3z" fill="#293e40"/></svg>