<svg data-name="Layer 1" xmlns="http://www.w3.org/2000/svg" width="32" height="32"><g fill="#81b5a0"><circle cx="11" cy="16" r="2"/><circle cx="21" cy="16" r="2"/><circle cx="16" cy="16" r="2"/></g><g fill="#293e40"><path d="M27 2H5a3 3 0 00-3 3v15.69a1 1 0 002 0V5a1 1 0 011-1h22a1 1 0 011 1v22a1 1 0 01-1 1H11.31a1 1 0 000 2H27a3 3 0 003-3V5a3 3 0 00-3-3z"/><path d="M16 26a10.034 10.034 0 10-8.94-5.545L.918 26.6a3.2 3.2 0 00.005 4.479A3.181 3.181 0 003.16 32a3.149 3.149 0 002.247-.923l6.137-6.138A9.921 9.921 0 0016 26zm0-18a8 8 0 11-8 8 8.009 8.009 0 018-8zM3.994 29.663a1.229 1.229 0 01-1.653 0 1.189 1.189 0 010-1.661l5.821-5.821a10.094 10.094 0 001.656 1.656L9.653 24z"/></g></svg>