<svg version="1.1" id="Layer_1" xmlns="http://www.w3.org/2000/svg" xmlns:xlink="http://www.w3.org/1999/xlink" x="0" y="0" viewBox="0 0 1644.7 650.5" xml:space="preserve"><style>.st1{fill:none;stroke:#68a1af;stroke-width:9.94;stroke-linejoin:round}.st2{fill:#fff}.st3{fill:#293e40}.st4{fill:#3b5653}.st5{font-family:&apos;BentonSans-Black&apos;}.st6{font-size:30px}.st7{font-family:&apos;Gilroy-Bold&apos;}.st8{letter-spacing:-1}.st9{letter-spacing:-2}.st10{font-family:&apos;Gilroy-Regular&apos;}</style><path fill="none" stroke="#68a1af" stroke-width="10" stroke-linejoin="round" d="M796.8 440.5V0" id="arrow_shaft_1"/><g id="bracket"><path class="st1" d="M1530.1 527.9v-53.6c0-19.2-15.6-34.8-34.8-34.8H103.6c-19.2 0-34.8 15.6-34.8 34.8v53.6"/><path class="st1" d="M1317.9 527.9v-53.6c0-19.2-15.6-34.8-34.8-34.8H311c-19.2 0-34.8 15.6-34.8 34.8v53.6"/><path class="st1" d="M1112.3 527.9v-53.6c0-19.2-15.6-34.8-34.8-34.8l-559.7.1c-19.2 0-34.8 15.6-34.8 34.8V528"/><path class="st1" d="M901.4 527.9v-53.6c0-19.2-15.6-34.8-34.8-34.8l-139.6.2c-19.2 0-34.8 15.6-34.8 34.8V528"/></g><g id="nodes"><circle transform="rotate(-45.001 69.025 551.613)" class="st2" cx="69" cy="551.6" r="48" id="Ellipse_2"/><circle transform="rotate(-45.001 796.797 220.25)" class="st3" cx="796.8" cy="220.2" r="48" id="Ellipse_2_copy_8"/><circle class="st2" cx="276.9" cy="551.6" r="48" id="Ellipse_2_copy"/><ellipse transform="rotate(-22.5 1530.347 551.685)" class="st2" cx="1530.4" cy="551.7" rx="48.1" ry="48" id="Ellipse_2_copy_2"/><circle class="st2" cx="485.2" cy="551.6" r="48" id="Ellipse_2_copy_3"/><circle class="st2" cx="694.1" cy="551.6" r="48" id="Ellipse_2_copy_4"/><circle class="st2" cx="902" cy="551.6" r="48" id="Ellipse_2_copy_5"/><ellipse transform="rotate(-23.307 1110.88 551.546)" class="st2" cx="1110.8" cy="551.6" rx="48.1" ry="48" id="Ellipse_2_copy_6"/><ellipse transform="rotate(-23.307 1318.758 551.526)" class="st2" cx="1318.7" cy="551.6" rx="48.1" ry="48" id="Ellipse_2_copy_7"/></g><g id="icons"><g id="integration_hub_Image"><image width="46" height="47" id="integration_hub_Image-2" xlink:href="F8716D7184097197.png" transform="translate(773.8 196.74)" overflow="visible"/></g><g id="office_365_Image"><image width="48" height="57" id="office_365_Image-2" xlink:href="F8716D7184097195.png" transform="translate(40.57 523.66)" overflow="visible"/></g><g id="gmail_Image"><image width="52" height="40" id="gmail_Image-2" xlink:href="F8716D718409719B.png" transform="translate(248.57 532.66)" overflow="visible"/></g><g id="zoom_Image"><image width="70" height="72" id="zoom_Image-2" xlink:href="F8716D718409719D.png" transform="translate(448.21 516.66)" overflow="visible"/></g><g id="okta_Image"><image width="75" height="26" id="okta_Image-2" xlink:href="F8716D718409719F.png" transform="translate(657.21 538.66)" overflow="visible"/></g><g id="github_Image"><image width="61" height="60" id="github_Image-2" xlink:href="F8716D718409719C.png" transform="translate(871.21 521.66)" overflow="visible"/></g><g id="webex_Image"><image width="66" height="65" id="webex_Image-2" xlink:href="F8716D7184097194.png" transform="translate(1077.21 519.66)" overflow="visible"/></g><g id="box_Image"><image width="66" height="35" id="box_Image-2" xlink:href="F8716D7184097196.png" transform="translate(1286.21 532.66)" overflow="visible"/></g></g><g id="labels"><g id="Integration_Hub"><text transform="translate(889.6 231.18)" class="st4 st5 st6">I</text><text transform="translate(898.09 231.18)" class="st4 st5 st6">n</text><text transform="translate(915.62 231.18)" class="st4 st5 st6">t</text><text transform="translate(926.78 231.18)" class="st4 st5 st6">e</text><text transform="translate(943.09 231.18)" class="st4 st5 st6">g</text><text transform="translate(960.05 231.18)" class="st4 st5 st6">r</text><text transform="translate(971.94 231.18)" class="st4 st5 st6">a</text><text transform="translate(988.27 231.18)" class="st4 st5 st6">t</text><text transform="translate(999.44 231.18)" class="st4 st5 st6">i</text><text transform="translate(1006.93 231.18)" class="st4 st5 st6">o</text><text transform="translate(1024.23 231.18)" class="st4 st5 st6">n</text><text transform="translate(1049.25 231.18)" class="st4 st5 st6">H</text><text transform="translate(1071.31 231.18)" class="st4 st5 st6">u</text><text transform="translate(1088.76 231.18)" class="st4 st5 st6">b</text></g><g id="Office_365"><text transform="translate(0 642.56)" class="st4 st7 st6">O</text><text transform="translate(23.47 642.56)" class="st4 st7 st6">ffi</text><text transform="translate(48.12 642.56)" class="st4 st7 st6">c</text><text transform="translate(63.63 642.56)" class="st4 st7 st6">e</text><text transform="translate(87.96 642.56)" class="st4 st7 st6">3</text><text transform="translate(103.99 642.56)" class="st4 st7 st6">6</text><text transform="translate(120.21 642.56)" class="st4 st7 st6">5</text></g><g id="Gmail"><text transform="translate(235.53 642.56)" class="st4 st7 st6">G</text><text transform="translate(258.8 642.56)" class="st4 st7 st6">m</text><text transform="translate(284 642.56)" class="st4 st7 st6">a</text><text transform="translate(302.4 642.56)" class="st4 st7 st6">i</text><text transform="translate(309.45 642.56)" class="st4 st7 st6">l</text></g><g id="Zoom"><text transform="translate(448.56 642.56)" class="st4 st7 st6">Z</text><text transform="translate(463.97 642.56)" class="st4 st7 st6">o</text><text transform="translate(481.33 642.56)" class="st4 st7 st6">o</text><text transform="translate(498.74 642.56)" class="st4 st7 st6">m</text></g><g id="Okta"><text transform="translate(662.7 642.56)" class="st4 st7 st6">O</text><text transform="translate(686.25 642.56)" class="st4 st7 st6">k</text><text transform="translate(702.12 642.56)" class="st4 st7 st6">t</text><text transform="translate(713.01 642.56)" class="st4 st7 st6">a</text></g><g id="GitHub"><text transform="translate(857.66 642.56)" class="st4 st7 st6">G</text><text transform="translate(880.84 642.56)" class="st4 st7 st6">i</text><text transform="translate(887.72 642.56)" class="st4 st7 st6">t</text><text transform="translate(899.1 642.56)" class="st4 st7 st6">H</text><text transform="translate(918.85 642.56)" class="st4 st7 st6">u</text><text transform="translate(935.76 642.56)" class="st4 st7 st6">b</text></g><g id="WebEx"><text transform="translate(1067.18 642.56)" class="st4 st7 st6 st8">W</text><text transform="translate(1095.56 642.56)" class="st4 st7 st6">e</text><text transform="translate(1112.63 642.56)" class="st4 st7 st6">b</text><text transform="translate(1131.11 642.56)" class="st4 st7 st6">E</text><text transform="translate(1146.98 642.56)" class="st4 st7 st6">x</text><text transform="translate(1295.85 642.56)" class="st4 st7 st6">B</text><text transform="translate(1313.86 642.56)" class="st4 st7 st6 st8">o</text><text transform="translate(1330.54 642.56)" class="st4 st7 st6">x</text></g><text transform="translate(1489.2 642.56)" class="st4 st7 st6 st9">T</text><text transform="translate(1502.67 642.56)" class="st4 st7 st6">w</text><text transform="translate(1525.24 642.56)" class="st4 st7 st6">i</text><text transform="translate(1532.29 642.56)" class="st4 st7 st6">l</text><text transform="translate(1539.31 642.56)" class="st4 st7 st6">l</text><text transform="translate(1546.37 642.56)" class="st4 st7 st6">i</text><text transform="translate(1553.28 642.56)" class="st4 st7 st6">o</text><g id="twillio"><image width="2501" height="2501" id="_2SCQe5" xlink:href="F8716D7184097192.png" transform="translate(1492.64 514.66) scale(.02999)" overflow="visible"/></g></g><g id="Easily_integrate_to_popular_business_apps_with_out-of-the-box_i"><text transform="translate(887.77 302.09)" class="st3 st10 st6">E</text><text transform="translate(902.66 302.09)" class="st3 st10 st6">a</text><text transform="translate(921.14 302.09)" class="st3 st10 st6">s</text><text transform="translate(934.19 302.09)" class="st3 st10 st6">i</text><text transform="translate(939.86 302.09)" class="st3 st10 st6">l</text><text transform="translate(945.55 302.09)" class="st3 st10 st6">y</text><text transform="translate(967.75 302.09)" class="st3 st10 st6">i</text><text transform="translate(973.43 302.09)" class="st3 st10 st6">n</text><text transform="translate(989.31 302.09)" class="st3 st10 st6 st8">t</text><text transform="translate(999.19 302.09)" class="st3 st10 st6">e</text><text transform="translate(1016.3 302.09)" class="st3 st10 st6">g</text><text transform="translate(1034.87 302.09)" class="st3 st10 st6 st8">r</text><text transform="translate(1043.05 302.09)" class="st3 st10 st6">a</text><text transform="translate(1061.5 302.09)" class="st3 st10 st6 st8">t</text><text transform="translate(1071.38 302.09)" class="st3 st10 st6">e</text><text transform="translate(1095.8 302.09)" class="st3 st10 st6 st8">t</text><text transform="translate(1105.64 302.09)" class="st3 st10 st6">o</text><text transform="translate(1130.72 302.09)" class="st3 st10 st6">p</text><text transform="translate(1149.31 302.09)" class="st3 st10 st6">o</text><text transform="translate(1167 302.09)" class="st3 st10 st6">p</text><text transform="translate(1185.7 302.09)" class="st3 st10 st6">u</text><text transform="translate(1201.93 302.09)" class="st3 st10 st6">l</text><text transform="translate(1207.64 302.09)" class="st3 st10 st6">a</text><text transform="translate(1226.21 302.09)" class="st3 st10 st6">r</text><text transform="translate(1242.53 302.09)" class="st3 st10 st6">b</text><text transform="translate(1261.24 302.09)" class="st3 st10 st6">u</text><text transform="translate(1277.37 302.09)" class="st3 st10 st6">s</text><text transform="translate(1290.43 302.09)" class="st3 st10 st6">i</text><text transform="translate(1296.11 302.09)" class="st3 st10 st6">n</text><text transform="translate(1312.48 302.09)" class="st3 st10 st6">e</text><text transform="translate(1329.35 302.09)" class="st3 st10 st6">s</text><text transform="translate(1342.48 302.09)" class="st3 st10 st6">s</text><text transform="translate(1363 302.09)" class="st3 st10 st6">ap</text><text transform="translate(1400.15 302.09)" class="st3 st10 st6">p</text><text transform="translate(1418.42 302.09)" class="st3 st10 st6">s</text><text transform="translate(1438.94 302.09)" class="st3 st10 st6">w</text><text transform="translate(1461.24 302.09)" class="st3 st10 st6">i</text><text transform="translate(1466.78 302.09)" class="st3 st10 st6">t</text><text transform="translate(1477.08 302.09)" class="st3 st10 st6">h</text><text transform="translate(887.77 350.09)" class="st3 st10 st6">o</text><text transform="translate(905.53 350.09)" class="st3 st10 st6">u</text><text transform="translate(921.65 350.09)" class="st3 st10 st6" letter-spacing="-3">t</text><text transform="translate(929.81 350.09)" class="st3 st10 st6">-</text><text transform="translate(944.44 350.09)" class="st3 st10 st6">o</text><text transform="translate(961.59 350.09)" class="st3 st10 st6 st9">f</text><text transform="translate(968.73 350.09)" class="st3 st10 st6 st9">-</text><text transform="translate(982.19 350.09)" class="st3 st10 st6">t</text><text transform="translate(992.49 350.09)" class="st3 st10 st6">h</text><text transform="translate(1008.86 350.09)" class="st3 st10 st6">e</text><text transform="translate(1025.41 350.09)" class="st3 st10 st6 st8">-</text><text transform="translate(1039.83 350.09)" class="st3 st10 st6">b</text><text transform="translate(1058.42 350.09)" class="st3 st10 st6 st8">o</text><text transform="translate(1075.21 350.09)" class="st3 st10 st6">x</text><text transform="translate(1097.41 350.09)" class="st3 st10 st6">i</text><text transform="translate(1103.09 350.09)" class="st3 st10 st6">n</text><text transform="translate(1118.97 350.09)" class="st3 st10 st6 st8">t</text><text transform="translate(1128.85 350.09)" class="st3 st10 st6">e</text><text transform="translate(1145.96 350.09)" class="st3 st10 st6">g</text><text transform="translate(1164.53 350.09)" class="st3 st10 st6 st8">r</text><text transform="translate(1172.71 350.09)" class="st3 st10 st6">a</text><text transform="translate(1191.16 350.09)" class="st3 st10 st6">t</text><text transform="translate(1201.46 350.09)" class="st3 st10 st6">i</text><text transform="translate(1207.08 350.09)" class="st3 st10 st6">o</text><text transform="translate(1224.77 350.09)" class="st3 st10 st6">n</text><text transform="translate(1240.95 350.09)" class="st3 st10 st6">s</text><text transform="translate(1261.47 350.09)" class="st3 st10 st6">i</text><text transform="translate(1267.15 350.09)" class="st3 st10 st6">n</text><text transform="translate(1290.79 350.09)" class="st3 st10 st6">t</text><text transform="translate(1301.09 350.09)" class="st3 st10 st6">h</text><text transform="translate(1317.45 350.09)" class="st3 st10 st6">e</text><text transform="translate(1341.87 350.09)" class="st3 st10 st6">S</text><text transform="translate(1358.65 350.09)" class="st3 st10 st6">e</text><text transform="translate(1375.74 350.09)" class="st3 st10 st6">r</text><text transform="translate(1385.45 350.09)" class="st3 st10 st6">v</text><text transform="translate(1400.26 350.09)" class="st3 st10 st6">i</text><text transform="translate(1405.88 350.09)" class="st3 st10 st6">c</text><text transform="translate(1421.83 350.09)" class="st3 st10 st6">e</text><text transform="translate(1438.97 350.09)" class="st3 st10 st6">N</text><text transform="translate(1458.92 350.09)" class="st3 st10 st6 st8">o</text><text transform="translate(1475.98 350.09)" class="st3 st10 st6">w</text><text transform="translate(1505.98 350.09)" class="st3 st10 st6">s</text><text transform="translate(1519.18 350.09)" class="st3 st10 st6 st8">t</text><text transform="translate(1529.01 350.09)" class="st3 st10 st6">o</text><text transform="translate(1546.7 350.09)" class="st3 st10 st6 st8">r</text><text transform="translate(1554.92 350.09)" class="st3 st10 st6">e</text><text transform="translate(1571.56 350.09)" class="st3 st10 st6">.</text></g></svg>