<svg version="1.1" id="Layer_1" xmlns="http://www.w3.org/2000/svg" xmlns:xlink="http://www.w3.org/1999/xlink" x="0" y="0" viewBox="0 0 1644.7 650.5" xml:space="preserve"><style>.st1{fill:none;stroke:#68a1af;stroke-width:9.94;stroke-linejoin:round}.st2{fill:#fff}.st3{fill:#293e40}.st4{enable-background:new}.st5{fill:#3b5653}</style><path fill="none" stroke="#68a1af" stroke-width="10" stroke-linejoin="round" d="M796.8 440.5V0" id="arrow_shaft_1"/><g id="bracket"><path class="st1" d="M1530.1 527.9v-53.6c0-19.2-15.6-34.8-34.8-34.8H103.6c-19.2 0-34.8 15.6-34.8 34.8v53.6"/><path class="st1" d="M1317.9 527.9v-53.6c0-19.2-15.6-34.8-34.8-34.8H311c-19.2 0-34.8 15.6-34.8 34.8v53.6"/><path class="st1" d="M1112.3 527.9v-53.6c0-19.2-15.6-34.8-34.8-34.8l-559.7.1c-19.2 0-34.8 15.6-34.8 34.8V528"/><path class="st1" d="M901.4 527.9v-53.6c0-19.2-15.6-34.8-34.8-34.8l-139.6.2c-19.2 0-34.8 15.6-34.8 34.8V528"/></g><g id="nodes"><circle transform="rotate(-45.001 69.025 551.613)" class="st2" cx="69" cy="551.6" r="48" id="Ellipse_2"/><circle transform="rotate(-45.001 796.797 220.25)" class="st3" cx="796.8" cy="220.2" r="48" id="Ellipse_2_copy_8"/><circle class="st2" cx="276.9" cy="551.6" r="48" id="Ellipse_2_copy"/><ellipse transform="rotate(-22.5 1530.347 551.685)" class="st2" cx="1530.4" cy="551.7" rx="48.1" ry="48" id="Ellipse_2_copy_2"/><circle class="st2" cx="485.2" cy="551.6" r="48" id="Ellipse_2_copy_3"/><circle class="st2" cx="694.1" cy="551.6" r="48" id="Ellipse_2_copy_4"/><circle class="st2" cx="902" cy="551.6" r="48" id="Ellipse_2_copy_5"/><ellipse transform="rotate(-23.307 1110.88 551.546)" class="st2" cx="1110.8" cy="551.6" rx="48.1" ry="48" id="Ellipse_2_copy_6"/><ellipse transform="rotate(-23.307 1318.758 551.526)" class="st2" cx="1318.7" cy="551.6" rx="48.1" ry="48" id="Ellipse_2_copy_7"/></g><g id="icons"><g id="integration_hub_Image"><image width="46" height="47" id="integration_hub_Image-2" xlink:href="F8716D718409719A.png" transform="translate(773.8 196.74)" overflow="visible"/></g><g id="office_365_Image"><image width="48" height="57" id="office_365_Image-2" xlink:href="F8716D7184097199.png" transform="translate(40.57 523.66)" overflow="visible"/></g><g id="gmail_Image"><image width="52" height="40" id="gmail_Image-2" xlink:href="F8716D7184097188.png" transform="translate(248.57 532.66)" overflow="visible"/></g><g id="zoom_Image"><image width="70" height="72" id="zoom_Image-2" xlink:href="F8716D7184097189.png" transform="translate(448.21 516.66)" overflow="visible"/></g><g id="okta_Image"><image width="75" height="26" id="okta_Image-2" xlink:href="F8716D718409718F.png" transform="translate(657.21 538.66)" overflow="visible"/></g><g id="github_Image"><image width="61" height="60" id="github_Image-2" xlink:href="F8716D7184097183.png" transform="translate(871.21 521.66)" overflow="visible"/></g><g id="webex_Image"><image width="66" height="65" id="webex_Image-2" xlink:href="F8716D7184097184.png" transform="translate(1077.21 519.66)" overflow="visible"/></g><g id="box_Image"><image width="66" height="35" id="box_Image-2" xlink:href="F8716D7184097185.png" transform="translate(1286.21 532.66)" overflow="visible"/></g><g id="twillio"><image width="2501" height="2501" id="_2SCQe5" xlink:href="F8716D7184097186.png" transform="translate(1493.5 513.78) scale(.02999)" overflow="visible"/></g></g><g id="labels"><g id="Integration_Hub"><g class="st4"><path class="st5" d="M891.5 231.2v-21h4.1v21h-4.1z"/></g><g class="st4"><path class="st5" d="M908.2 215.8c1.7 0 3 .5 4 1.7 1.1 1.1 1.6 2.6 1.6 4.6v9.2H910v-8.7c0-1-.3-1.7-.8-2.3-.5-.5-1.3-.8-2.2-.8-1 0-1.8.3-2.4.9s-.9 1.6-.9 2.8v8.1h-3.9v-15h3.9v1.7c.9-1.5 2.4-2.2 4.5-2.2z"/></g><g class="st4"><path class="st5" d="M926 216.2v3.7h-3.4v6.2c0 .5.1.9.4 1.1.3.2.6.4 1.1.4h1.9v3.5c-2.6.3-4.5.1-5.6-.7-1.1-.8-1.7-2.2-1.7-4.3v-6.2h-2.6v-3.7h2.6v-3l3.9-1.2v4.2h3.4z"/></g><g class="st4"><path class="st5" d="M943.1 225.3h-11.3c.5 1.9 1.9 2.8 4.2 2.8 1.5 0 2.6-.5 3.4-1.5l3.1 1.8c-1.5 2.1-3.7 3.2-6.5 3.2-2.5 0-4.5-.8-6-2.2s-2.2-3.4-2.2-5.7c0-2.2.7-4.1 2.2-5.6 1.5-1.5 3.4-2.3 5.7-2.3 2.2 0 4 .8 5.4 2.3 1.4 1.5 2.2 3.4 2.2 5.6 0 .4-.1.9-.2 1.6zm-11.3-3h7.7c-.2-1-.7-1.7-1.3-2.2-.7-.5-1.5-.8-2.4-.8-1 0-1.9.3-2.6.8-.8.5-1.2 1.2-1.4 2.2z"/></g><g class="st4"><path class="st5" d="M956.3 218v-1.9h3.8v14.3c0 2.3-.8 4.1-2.3 5.3-1.5 1.2-3.4 1.8-5.5 1.8-3.4 0-5.8-1.2-7.1-3.7l3.3-1.9c.7 1.4 2 2.1 3.9 2.1 1.2 0 2.2-.3 2.9-1s1-1.5 1-2.7v-1.6c-1.1 1.5-2.7 2.3-4.8 2.3-2.1 0-3.9-.7-5.3-2.2-1.4-1.5-2.1-3.3-2.1-5.5 0-2.1.7-3.9 2.2-5.4 1.4-1.5 3.2-2.2 5.3-2.2 2 .1 3.6.8 4.7 2.3zm-1.1 8.4c.8-.8 1.2-1.8 1.2-3s-.4-2.2-1.2-2.9c-.8-.8-1.8-1.2-3-1.2s-2.2.4-3 1.2c-.8.7-1.2 1.7-1.2 2.9s.4 2.2 1.2 3c.8.8 1.8 1.2 3 1.2s2.2-.4 3-1.2z"/></g><g class="st4"><path class="st5" d="M965.7 216.2v2.6c.3-.9.9-1.7 1.7-2.1.8-.5 1.8-.7 2.8-.7v4.3c-1.2-.2-2.2.1-3.2.7-.9.6-1.4 1.6-1.4 3.1v7.2h-3.9v-15h4z"/></g><g class="st4"><path class="st5" d="M985.1 217.9v-1.8h3.9v15h-3.9v-1.8c-1.2 1.5-2.8 2.2-4.9 2.2-2 0-3.7-.8-5.2-2.3-1.4-1.5-2.1-3.4-2.1-5.6 0-2.2.7-4.1 2.1-5.6 1.4-1.5 3.2-2.3 5.2-2.3 2.1.1 3.7.8 4.9 2.2zm-7.1 8.8c.8.8 1.8 1.2 3 1.2s2.2-.4 3-1.2c.8-.8 1.2-1.8 1.2-3.1s-.4-2.2-1.2-3c-.8-.8-1.8-1.2-3-1.2s-2.2.4-3 1.2c-.8.8-1.2 1.8-1.2 3s.4 2.3 1.2 3.1z"/></g><g class="st4"><path class="st5" d="M998.6 216.2v3.7h-3.4v6.2c0 .5.1.9.4 1.1.3.2.6.4 1.1.4h1.9v3.5c-2.6.3-4.5.1-5.6-.7-1.1-.8-1.7-2.2-1.7-4.3v-6.2h-2.6v-3.7h2.6v-3l3.9-1.2v4.2h3.4z"/></g><g class="st4"><path class="st5" d="M1003.1 214.4c-.6 0-1.2-.2-1.7-.7-.5-.5-.7-1-.7-1.7 0-.6.2-1.2.7-1.7.5-.5 1-.7 1.7-.7s1.2.2 1.7.7c.5.5.7 1 .7 1.7 0 .6-.2 1.2-.7 1.7-.4.4-1 .7-1.7.7zm2 16.8h-3.9v-15h3.9v15z"/></g><g class="st4"><path class="st5" d="M1021.5 229.3c-1.5 1.5-3.4 2.3-5.6 2.3s-4.1-.8-5.6-2.3c-1.5-1.5-2.3-3.4-2.3-5.6 0-2.2.8-4.1 2.3-5.6 1.5-1.5 3.4-2.3 5.6-2.3s4.1.8 5.6 2.3c1.5 1.5 2.3 3.4 2.3 5.6 0 2.2-.8 4.1-2.3 5.6zm-8.6-2.7c.8.8 1.8 1.2 2.9 1.2s2.1-.4 2.9-1.2c.8-.8 1.2-1.8 1.2-3s-.4-2.2-1.2-3c-.8-.8-1.8-1.2-2.9-1.2s-2.1.4-2.9 1.2c-.8.8-1.1 1.8-1.1 3 0 1.3.4 2.3 1.1 3z"/></g><g class="st4"><path class="st5" d="M1034.3 215.8c1.7 0 3 .5 4.1 1.7 1.1 1.1 1.6 2.6 1.6 4.6v9.2h-3.9v-8.7c0-1-.3-1.7-.8-2.3-.5-.5-1.3-.8-2.2-.8-1 0-1.8.3-2.4.9s-.9 1.6-.9 2.8v8.1h-3.9v-15h3.9v1.7c1-1.5 2.5-2.2 4.5-2.2z"/></g><g class="st4"><path class="st5" d="M1063.1 218.5v-8.3h4.1v21h-4.1v-8.7h-7.8v8.7h-4.1v-21h4.1v8.3h7.8z"/></g><g class="st4"><path class="st5" d="M1083 224.3v-8.1h3.9v15h-3.9v-1.7c-.9 1.4-2.4 2.1-4.5 2.1-1.6 0-3-.5-4.1-1.7-1.1-1.1-1.6-2.6-1.6-4.6v-9.2h3.9v8.7c0 1 .3 1.7.8 2.3.5.5 1.3.8 2.2.8 1 0 1.8-.3 2.4-.9s.9-1.5.9-2.7z"/></g><g class="st4"><path class="st5" d="M1099.3 215.8c2 0 3.7.8 5.2 2.3 1.4 1.5 2.2 3.4 2.2 5.6 0 2.2-.7 4.1-2.2 5.6-1.4 1.5-3.1 2.3-5.2 2.3s-3.7-.7-4.9-2.2v1.8h-3.9v-21h3.9v7.8c1.1-1.5 2.8-2.2 4.9-2.2zm-3.7 10.9c.8.8 1.8 1.2 3 1.2s2.2-.4 3-1.2c.8-.8 1.2-1.8 1.2-3.1s-.4-2.2-1.2-3c-.8-.8-1.8-1.2-3-1.2s-2.2.4-3 1.2c-.8.8-1.2 1.8-1.2 3s.4 2.3 1.2 3.1z"/></g></g><g id="Office_365"><g class="st4"><path class="st5" d="M19.6 639.8c-2.1 2.1-4.7 3.2-7.7 3.2s-5.6-1-7.7-3.2C2 637.7 1 635.1 1 632.1c0-3.1 1-5.6 3.1-7.7 2.1-2.1 4.7-3.2 7.7-3.2s5.6 1.1 7.7 3.2c2.1 2.1 3.2 4.7 3.2 7.7s-1 5.6-3.1 7.7zM7 637c1.3 1.3 2.9 1.9 4.8 1.9s3.5-.6 4.8-1.9c1.3-1.3 2-3 2-5s-.7-3.6-2-5c-1.3-1.3-2.9-2-4.8-2s-3.5.7-4.8 2c-1.3 1.3-1.9 3-1.9 5s.6 3.7 1.9 5z"/></g><g class="st4"><path class="st5" d="M38.4 627.6h8.3v15h-3.9v-11.3h-4.4v11.3h-3.9v-11.3h-4.4v11.3h-3.9v-11.3H24v-3.7h2.2v-.2c0-2.1.6-3.8 1.8-4.8 1.2-1.1 2.9-1.6 5.3-1.4v3.7c-2.1-.1-3.2.7-3.2 2.5v.2h4.4v-.5c0-4.2 2.3-6.3 7-6.3 1 0 2.2.1 3.5.4v3.5c-1.5-.2-2.7-.2-3.5-.2-1.1 0-1.9.2-2.4.6-.5.4-.8 1-.8 2v.5z"/></g><g class="st4"><path class="st5" d="M57 643c-2.3 0-4.2-.8-5.7-2.3-1.5-1.5-2.2-3.4-2.2-5.6 0-2.2.8-4.1 2.2-5.6 1.5-1.5 3.4-2.3 5.7-2.3 1.5 0 2.8.3 4 1 1.2.7 2.1 1.6 2.7 2.8l-3.3 2c-.3-.6-.8-1.1-1.4-1.5-.6-.4-1.3-.5-2.1-.5-1.2 0-2.1.4-2.9 1.2-.8.8-1.1 1.8-1.1 3s.4 2.1 1.1 2.9c.8.8 1.7 1.1 2.9 1.1.8 0 1.5-.2 2.1-.5.6-.3 1.1-.8 1.4-1.5l3.4 1.9c-.7 1.2-1.6 2.2-2.8 2.9s-2.5 1-4 1z"/></g><g class="st4"><path class="st5" d="M80 636.6H68.7c.5 1.9 1.9 2.8 4.2 2.8 1.5 0 2.6-.5 3.4-1.5l3.1 1.8c-1.5 2.1-3.7 3.2-6.5 3.2-2.5 0-4.5-.8-6-2.2s-2.2-3.4-2.2-5.7c0-2.2.7-4.1 2.2-5.6 1.5-1.5 3.4-2.3 5.7-2.3 2.2 0 4 .8 5.4 2.3 1.4 1.5 2.2 3.4 2.2 5.6-.1.5-.1 1-.2 1.6zm-11.4-3h7.6c-.2-1-.7-1.7-1.3-2.2-.7-.5-1.5-.8-2.4-.8-1 0-1.9.3-2.6.8-.6.5-1.1 1.3-1.3 2.2z"/></g><g class="st4"><path class="st5" d="M102.5 625l-3.9 5.1c1.5.4 2.6 1.2 3.5 2.2s1.3 2.3 1.3 3.8c0 2.2-.7 3.9-2.2 5.1-1.4 1.2-3.2 1.8-5.3 1.8-1.7 0-3.1-.4-4.4-1.2-1.3-.8-2.2-1.9-2.8-3.3l3.5-2c.5 1.6 1.7 2.4 3.7 2.4 1.1 0 1.9-.3 2.5-.8.6-.5.9-1.2.9-2.1 0-.9-.3-1.5-.9-2.1-.6-.5-1.4-.8-2.5-.8H95l-1.6-2.4 4.1-5.4h-8.2v-3.9h13.2v3.6z"/></g><g class="st4"><path class="st5" d="M117.2 621.6l-4.7 6.8c2.2.1 3.9.8 5.3 2.1s2 3.1 2 5.2-.7 3.9-2.1 5.3c-1.4 1.4-3.2 2-5.5 2-2.2 0-4.1-.7-5.5-2-1.4-1.3-2.1-3.1-2.1-5.3 0-1.6.4-3 1.2-4.2l6.5-9.9h4.9zm-1.4 14.1c0-1-.3-1.8-1-2.4s-1.5-.9-2.5-.9-1.9.3-2.5.9c-.6.6-1 1.4-1 2.5 0 1 .3 1.8 1 2.5.7.6 1.5.9 2.5.9s1.9-.3 2.5-.9 1-1.6 1-2.6z"/></g><g class="st4"><path class="st5" d="M126.5 629.2h2.2c2 0 3.7.6 5.1 1.8 1.4 1.2 2.1 2.9 2.1 5 0 2.2-.7 3.9-2.2 5.1-1.4 1.2-3.2 1.8-5.3 1.8-1.7 0-3.2-.4-4.5-1.2-1.3-.8-2.2-1.9-2.8-3.3l3.5-2.1c.5 1.7 1.8 2.5 3.8 2.5 1.1 0 1.9-.3 2.5-.8.6-.5.9-1.2.9-2.1 0-.9-.3-1.5-.9-2.1-.6-.5-1.4-.8-2.4-.8H122l.8-11.7h11.9v3.9h-8.1l-.1 4z"/></g></g><g id="Gmail"><g class="st4"><path class="st5" d="M247.6 631.3h10.5v1.6c0 3-1 5.4-2.9 7.3-1.9 1.9-4.4 2.8-7.4 2.8-3.2 0-5.9-1-8.1-3.2-2.1-2.1-3.2-4.7-3.2-7.7 0-3.1 1-5.7 3.1-7.8 2.1-2.1 4.7-3.2 7.9-3.2 1.9 0 3.7.4 5.3 1.3 1.6.9 2.9 2.1 3.8 3.6l-3.5 2c-.5-.9-1.3-1.6-2.3-2.1s-2.1-.8-3.4-.8c-2 0-3.7.7-5 2-1.3 1.3-1.9 2.9-1.9 5 0 2 .6 3.6 1.9 4.9 1.3 1.3 3 1.9 5.2 1.9 1.6 0 2.9-.3 4-1s1.8-1.7 2.2-2.9h-6.4v-3.7z"/></g><g class="st4"><path class="st5" d="M277.2 627.1c1.7 0 3.1.6 4.1 1.7 1 1.1 1.5 2.6 1.5 4.5v9.2H279v-9c0-.9-.2-1.6-.7-2.1-.4-.5-1.1-.8-1.9-.8-.9 0-1.6.3-2.1.9-.5.6-.7 1.4-.7 2.5v8.4h-3.9v-9c0-.9-.2-1.6-.7-2.1-.4-.5-1.1-.8-1.9-.8-.9 0-1.5.3-2.1.9-.5.6-.8 1.4-.8 2.5v8.4h-3.9v-15h3.9v1.6c.9-1.3 2.3-2 4.2-2 1.9 0 3.2.7 4.1 2.2 1.2-1.2 2.7-2 4.7-2z"/></g><g class="st4"><path class="st5" d="M297.2 629.3v-1.8h3.9v15h-3.9v-1.8c-1.2 1.5-2.8 2.2-4.9 2.2-2 0-3.7-.8-5.2-2.3-1.4-1.5-2.1-3.4-2.1-5.6 0-2.2.7-4.1 2.1-5.6 1.4-1.5 3.2-2.3 5.2-2.3 2.1 0 3.7.8 4.9 2.2zm-7.2 8.8c.8.8 1.8 1.2 3 1.2s2.2-.4 3-1.2c.8-.8 1.2-1.8 1.2-3.1s-.4-2.2-1.2-3c-.8-.8-1.8-1.2-3-1.2s-2.2.4-3 1.2c-.8.8-1.2 1.8-1.2 3s.4 2.3 1.2 3.1z"/></g><g class="st4"><path class="st5" d="M306.1 625.8c-.6 0-1.2-.2-1.7-.7-.5-.5-.7-1-.7-1.7 0-.6.2-1.2.7-1.7.5-.5 1-.7 1.7-.7s1.2.2 1.7.7c.5.5.7 1 .7 1.7 0 .6-.2 1.2-.7 1.7s-1 .7-1.7.7zm1.9 16.8h-3.9v-15h3.9v15z"/></g><g class="st4"><path class="st5" d="M315.1 642.6h-3.9v-21.9h3.9v21.9z"/></g></g><g id="Zoom"><g class="st4"><path class="st5" d="M463.6 624.8l-8.7 13.8h8.9v4h-14.2v-3.3l8.7-13.7h-8.5v-4h13.8v3.2z"/></g><g class="st4"><path class="st5" d="M478.5 640.7c-1.5 1.5-3.4 2.3-5.6 2.3-2.2 0-4.1-.8-5.6-2.3-1.5-1.5-2.3-3.4-2.3-5.6 0-2.2.8-4.1 2.3-5.6 1.5-1.5 3.4-2.3 5.6-2.3 2.2 0 4.1.8 5.6 2.3 1.5 1.5 2.3 3.4 2.3 5.6 0 2.2-.7 4.1-2.3 5.6zM470 638c.8.8 1.8 1.2 2.9 1.2 1.2 0 2.1-.4 2.9-1.2.8-.8 1.2-1.8 1.2-3s-.4-2.2-1.2-3c-.8-.8-1.8-1.2-2.9-1.2-1.2 0-2.1.4-2.9 1.2-.8.8-1.1 1.8-1.1 3-.1 1.2.3 2.2 1.1 3z"/></g><g class="st4"><path class="st5" d="M495.9 640.7c-1.5 1.5-3.4 2.3-5.6 2.3-2.2 0-4.1-.8-5.6-2.3-1.5-1.5-2.3-3.4-2.3-5.6 0-2.2.8-4.1 2.3-5.6 1.5-1.5 3.4-2.3 5.6-2.3 2.2 0 4.1.8 5.6 2.3 1.5 1.5 2.3 3.4 2.3 5.6 0 2.2-.8 4.1-2.3 5.6zm-8.6-2.7c.8.8 1.8 1.2 2.9 1.2 1.2 0 2.1-.4 2.9-1.2.8-.8 1.2-1.8 1.2-3s-.4-2.2-1.2-3c-.8-.8-1.8-1.2-2.9-1.2-1.2 0-2.1.4-2.9 1.2-.8.8-1.1 1.8-1.1 3s.4 2.2 1.1 3z"/></g><g class="st4"><path class="st5" d="M517.1 627.1c1.7 0 3.1.6 4.1 1.7 1 1.1 1.5 2.6 1.5 4.5v9.2h-3.9v-9c0-.9-.2-1.6-.7-2.1-.4-.5-1.1-.8-1.9-.8-.9 0-1.6.3-2.1.9-.5.6-.7 1.4-.7 2.5v8.4h-3.9v-9c0-.9-.2-1.6-.7-2.1-.4-.5-1.1-.8-1.9-.8-.9 0-1.5.3-2.1.9-.5.6-.8 1.4-.8 2.5v8.4h-3.9v-15h3.9v1.6c.9-1.3 2.3-2 4.2-2 1.9 0 3.2.7 4.1 2.2 1.3-1.2 2.8-2 4.8-2z"/></g></g><g id="Okta"><g class="st4"><path class="st5" d="M682.3 639.8c-2.1 2.1-4.7 3.2-7.7 3.2s-5.6-1-7.7-3.2c-2.1-2.1-3.1-4.7-3.1-7.8 0-3.1 1-5.6 3.1-7.7 2.1-2.1 4.7-3.2 7.7-3.2s5.6 1.1 7.7 3.2c2.1 2.1 3.2 4.7 3.2 7.7s-1.1 5.7-3.2 7.8zm-12.5-2.8c1.3 1.3 2.9 1.9 4.8 1.9s3.5-.6 4.8-1.9c1.3-1.3 2-3 2-5s-.7-3.6-2-5c-1.3-1.3-2.9-2-4.8-2s-3.5.7-4.8 2c-1.3 1.3-1.9 3-1.9 5s.5 3.7 1.9 5z"/></g><g class="st4"><path class="st5" d="M695.6 635l6.2 7.6h-4.5l-5.5-6.8v6.8H688v-21h3.9v12.6l5.2-6.6h4.6l-6.1 7.4z"/></g><g class="st4"><path class="st5" d="M712.5 627.6v3.7h-3.4v6.2c0 .5.1.9.4 1.1.3.2.6.4 1.1.4h1.9v3.5c-2.6.3-4.5.1-5.6-.7-1.1-.8-1.7-2.2-1.7-4.3v-6.2h-2.6v-3.7h2.6v-3l3.9-1.2v4.2h3.4z"/></g><g class="st4"><path class="st5" d="M726.2 629.3v-1.8h3.9v15h-3.9v-1.8c-1.2 1.5-2.8 2.2-4.9 2.2-2 0-3.7-.8-5.2-2.3-1.4-1.5-2.1-3.4-2.1-5.6 0-2.2.7-4.1 2.1-5.6 1.4-1.5 3.2-2.3 5.2-2.3 2.1 0 3.7.8 4.9 2.2zm-7.2 8.8c.8.8 1.8 1.2 3 1.2s2.2-.4 3-1.2c.8-.8 1.2-1.8 1.2-3.1s-.4-2.2-1.2-3c-.8-.8-1.8-1.2-3-1.2s-2.2.4-3 1.2c-.8.8-1.2 1.8-1.2 3s.5 2.3 1.2 3.1z"/></g></g><g id="GitHub"><g class="st4"><path class="st5" d="M869.7 631.3h10.5v1.6c0 3-1 5.4-2.9 7.3s-4.4 2.8-7.4 2.8c-3.2 0-5.9-1-8.1-3.2-2.1-2.1-3.2-4.7-3.2-7.7 0-3.1 1-5.7 3.1-7.8 2.1-2.1 4.7-3.2 7.9-3.2 1.9 0 3.7.4 5.3 1.3s2.9 2.1 3.8 3.6l-3.5 2c-.5-.9-1.3-1.6-2.3-2.1-1-.5-2.1-.8-3.4-.8-2 0-3.7.7-5 2-1.3 1.3-1.9 2.9-1.9 5 0 2 .6 3.6 2 4.9 1.3 1.3 3 1.9 5.2 1.9 1.6 0 2.9-.3 4-1s1.8-1.7 2.2-2.9h-6.4v-3.7z"/></g><g class="st4"><path class="st5" d="M884.5 625.8c-.6 0-1.2-.2-1.7-.7-.5-.5-.7-1-.7-1.7 0-.6.2-1.2.7-1.7.5-.5 1-.7 1.7-.7s1.2.2 1.7.7c.5.5.7 1 .7 1.7 0 .6-.2 1.2-.7 1.7s-1 .7-1.7.7zm2 16.8h-3.9v-15h3.9v15z"/></g><g class="st4"><path class="st5" d="M898.1 627.6v3.7h-3.4v6.2c0 .5.1.9.4 1.1.3.2.6.4 1.1.4h1.9v3.5c-2.6.3-4.5.1-5.6-.7-1.1-.8-1.7-2.2-1.7-4.3v-6.2h-2.6v-3.7h2.6v-3l3.9-1.2v4.2h3.4z"/></g><g class="st4"><path class="st5" d="M913 629.9v-8.3h4.1v21H913v-8.7h-7.8v8.7H901v-21h4.1v8.3h7.9z"/></g><g class="st4"><path class="st5" d="M930.5 635.7v-8.1h3.9v15h-3.9v-1.7c-.9 1.4-2.4 2.1-4.5 2.1-1.6 0-3-.5-4.1-1.7-1.1-1.1-1.6-2.6-1.6-4.6v-9.2h3.9v8.7c0 1 .3 1.7.8 2.3.5.5 1.3.8 2.2.8 1 0 1.8-.3 2.4-.9s.9-1.5.9-2.7z"/></g><g class="st4"><path class="st5" d="M946.3 627.1c2 0 3.7.8 5.2 2.3 1.4 1.5 2.2 3.4 2.2 5.6 0 2.2-.7 4.1-2.2 5.6-1.4 1.5-3.1 2.3-5.2 2.3s-3.7-.7-4.9-2.2v1.8h-3.9v-21h3.9v7.8c1.1-1.4 2.8-2.2 4.9-2.2zm-3.7 11c.8.8 1.8 1.2 3 1.2s2.2-.4 3-1.2c.8-.8 1.2-1.8 1.2-3.1s-.4-2.2-1.2-3c-.8-.8-1.8-1.2-3-1.2s-2.2.4-3 1.2c-.8.8-1.2 1.8-1.2 3s.4 2.3 1.2 3.1z"/></g></g><g id="WebEx"><g class="st4"><path class="st5" d="M1078.2 642.6h-4.7l-5.9-21h4.3l4 15.6 4.4-15.6h3.5l4.4 15.6 4-15.6h4.4l-5.9 21h-4.7l-4-13.9-3.8 13.9z"/></g><g class="st4"><path class="st5" d="M1111.9 636.6h-11.3c.5 1.9 1.9 2.8 4.2 2.8 1.5 0 2.6-.5 3.4-1.5l3.1 1.8c-1.5 2.1-3.7 3.2-6.5 3.2-2.5 0-4.5-.8-6-2.2s-2.2-3.4-2.2-5.7c0-2.2.7-4.1 2.2-5.6 1.5-1.5 3.4-2.3 5.7-2.3 2.2 0 4 .8 5.4 2.3 1.4 1.5 2.2 3.4 2.2 5.6 0 .5-.1 1-.2 1.6zm-11.4-3h7.6c-.2-1-.7-1.7-1.3-2.2-.7-.5-1.5-.8-2.4-.8-1 0-1.9.3-2.6.8-.6.5-1 1.3-1.3 2.2z"/></g><g class="st4"><path class="st5" d="M1123.1 627.1c2 0 3.7.8 5.2 2.3 1.4 1.5 2.2 3.4 2.2 5.6 0 2.2-.7 4.1-2.2 5.6-1.4 1.5-3.1 2.3-5.2 2.3s-3.7-.7-4.9-2.2v1.8h-3.9v-21h3.9v7.8c1.2-1.4 2.8-2.2 4.9-2.2zm-3.7 11c.8.8 1.8 1.2 3 1.2s2.2-.4 3-1.2c.8-.8 1.2-1.8 1.2-3.1s-.4-2.2-1.2-3c-.8-.8-1.8-1.2-3-1.2s-2.2.4-3 1.2c-.8.8-1.2 1.8-1.2 3s.5 2.3 1.2 3.1z"/></g><g class="st4"><path class="st5" d="M1137.2 633.9v4.7h8.8v4h-13v-21h12.8v4h-8.7v4.5h8v3.9h-7.9z"/></g><g class="st4"><path class="st5" d="M1157.1 634.9l5.5 7.7h-4.5l-3.2-4.6-3.3 4.6h-4.5l5.5-7.7-5.2-7.3h4.5l3 4.2 3-4.2h4.4l-5.2 7.3z"/></g><g class="st4"><path class="st5" d="M1310.5 631.7c1.8 1.1 2.8 2.7 2.8 4.8 0 1.8-.6 3.2-1.9 4.4-1.3 1.1-2.8 1.7-4.6 1.7h-8.9v-21h8.3c1.8 0 3.3.6 4.5 1.7 1.2 1.1 1.9 2.5 1.9 4.2-.1 1.7-.8 3.1-2.1 4.2zm-4.4-6.3h-4.1v4.6h4.1c.6 0 1.2-.2 1.6-.7.4-.4.6-1 .6-1.7s-.2-1.2-.6-1.6c-.4-.4-1-.6-1.6-.6zm-4.2 13.3h4.8c.7 0 1.3-.2 1.7-.7.5-.5.7-1.1.7-1.8s-.2-1.3-.7-1.8c-.5-.5-1-.7-1.7-.7h-4.8v5z"/></g><g class="st4"><path class="st5" d="M1328.4 640.7c-1.5 1.5-3.4 2.3-5.6 2.3-2.2 0-4.1-.8-5.6-2.3-1.5-1.5-2.3-3.4-2.3-5.6 0-2.2.8-4.1 2.3-5.6 1.5-1.5 3.4-2.3 5.6-2.3 2.2 0 4.1.8 5.6 2.3 1.5 1.5 2.3 3.4 2.3 5.6 0 2.2-.7 4.1-2.3 5.6zm-8.5-2.7c.8.8 1.8 1.2 2.9 1.2 1.2 0 2.1-.4 2.9-1.2.8-.8 1.2-1.8 1.2-3s-.4-2.2-1.2-3c-.8-.8-1.8-1.2-2.9-1.2-1.2 0-2.1.4-2.9 1.2-.8.8-1.1 1.8-1.1 3-.1 1.2.3 2.2 1.1 3z"/></g><g class="st4"><path class="st5" d="M1340.6 634.9l5.5 7.7h-4.5l-3.2-4.6-3.3 4.6h-4.5l5.5-7.7-5.2-7.3h4.5l3 4.2 3-4.2h4.4l-5.2 7.3z"/></g></g><g class="st4"><path class="st5" d="M1489.6 621.6h15.5v4h-5.7v17h-4.1v-17h-5.6v-4z"/></g><g class="st4"><path class="st5" d="M1518.8 636.8l2.6-9.2h4.1l-4.8 15h-3.7l-2.8-9.1-2.8 9.1h-3.7l-4.8-15h4.1l2.6 9.2 2.7-9.2h3.7l2.8 9.2z"/></g><g class="st4"><path class="st5" d="M1528.9 625.8c-.6 0-1.2-.2-1.7-.7s-.7-1-.7-1.7c0-.6.2-1.2.7-1.7.5-.5 1-.7 1.7-.7s1.2.2 1.7.7c.5.5.7 1 .7 1.7 0 .6-.2 1.2-.7 1.7s-1 .7-1.7.7zm2 16.8h-3.9v-15h3.9v15z"/></g><g class="st4"><path class="st5" d="M1537.9 642.6h-3.9v-21.9h3.9v21.9z"/></g><g class="st4"><path class="st5" d="M1545 642.6h-3.9v-21.9h3.9v21.9z"/></g><g class="st4"><path class="st5" d="M1550.1 625.8c-.6 0-1.2-.2-1.7-.7s-.7-1-.7-1.7c0-.6.2-1.2.7-1.7.5-.5 1-.7 1.7-.7s1.2.2 1.7.7c.5.5.7 1 .7 1.7 0 .6-.2 1.2-.7 1.7s-1.1.7-1.7.7zm1.9 16.8h-3.9v-15h3.9v15z"/></g><g class="st4"><path class="st5" d="M1567.8 640.7c-1.5 1.5-3.4 2.3-5.6 2.3-2.2 0-4.1-.8-5.6-2.3-1.5-1.5-2.3-3.4-2.3-5.6 0-2.2.8-4.1 2.3-5.6 1.5-1.5 3.4-2.3 5.6-2.3 2.2 0 4.1.8 5.6 2.3 1.5 1.5 2.3 3.4 2.3 5.6 0 2.2-.7 4.1-2.3 5.6zm-8.5-2.7c.8.8 1.8 1.2 2.9 1.2 1.2 0 2.1-.4 2.9-1.2.8-.8 1.2-1.8 1.2-3s-.4-2.2-1.2-3c-.8-.8-1.8-1.2-2.9-1.2-1.2 0-2.1.4-2.9 1.2-.8.8-1.1 1.8-1.1 3-.1 1.2.3 2.2 1.1 3z"/></g></g><g id="Easily_integrate_to_popular_business_apps_with_out-of-the-box_i"><g class="st4"><path class="st3" d="M892.3 292.5v7.6h10.2v2h-12.3v-21h12.2v2h-10.1v7.4h9.3v2h-9.3z"/></g><g class="st4"><path class="st3" d="M917.7 290v-2.9h2v15h-2v-2.9c-1.4 2.2-3.4 3.3-6.1 3.3-2.1 0-4-.8-5.5-2.3-1.5-1.5-2.2-3.4-2.2-5.6s.8-4.1 2.2-5.6c1.5-1.5 3.3-2.3 5.5-2.3 2.7 0 4.7 1.1 6.1 3.3zm-10.2 8.8c1.1 1.1 2.5 1.7 4.2 1.7s3.1-.6 4.2-1.7c1.1-1.2 1.7-2.6 1.7-4.2 0-1.7-.6-3.1-1.7-4.2-1.1-1.2-2.5-1.7-4.2-1.7s-3.1.6-4.2 1.7-1.7 2.5-1.7 4.2c0 1.6.6 3 1.7 4.2z"/></g><g class="st4"><path class="st3" d="M924.8 291c0 1.2 1 2 3.1 2.6.6.1 1 .2 1.1.3.2.1.5.2 1.1.3.5.2.9.3 1.1.4s.5.3.9.6.6.5.8.8.3.6.5 1 .2.8.2 1.2c0 1.3-.5 2.3-1.5 3.1-1 .8-2.3 1.2-3.9 1.2-1.4 0-2.6-.3-3.6-.9-1-.6-1.7-1.5-2.2-2.5l1.7-1c.3.8.8 1.4 1.5 1.8.7.5 1.6.7 2.6.7s1.8-.2 2.5-.6c.6-.4 1-1 1-1.8 0-1.2-1-2-3.1-2.5-.6-.1-1-.2-1.1-.3-.2 0-.5-.2-1.1-.3-.5-.2-.9-.3-1.1-.4-.2-.1-.5-.3-.9-.6-.4-.2-.7-.5-.8-.8-.2-.2-.3-.6-.4-1-.1-.4-.2-.8-.2-1.2 0-1.2.5-2.2 1.4-3.1 1-.8 2.2-1.2 3.7-1.2 1.2 0 2.3.3 3.2.8.9.5 1.6 1.3 2.1 2.2l-1.7 1c-.6-1.4-1.8-2.1-3.6-2.1-.9 0-1.7.2-2.2.6-.8.4-1.1 1-1.1 1.7z"/></g><g class="st4"><path class="st3" d="M938.7 282.5c0 .4-.1.7-.4 1s-.6.4-1 .4-.7-.1-1-.4-.4-.6-.4-1 .1-.7.4-1 .6-.4 1-.4.7.1 1 .4.4.6.4 1zm-.4 19.6h-2v-15h2v15z"/></g><g class="st4"><path class="st3" d="M943.9 302.1h-2v-21.9h2v21.9z"/></g><g class="st4"><path class="st3" d="M953.6 299.7l4.9-12.6h2.1l-6.4 16.4c-.6 1.5-1.4 2.7-2.5 3.5-1.1.8-2.3 1.2-3.6 1.1v-1.9c1.8.2 3.2-.8 4.1-3.1l.4-.9-6.7-15.1h2.1l5.6 12.6z"/></g><g class="st4"><path class="st3" d="M972.3 282.5c0 .4-.1.7-.4 1-.3.3-.6.4-1 .4s-.7-.1-1-.4c-.3-.3-.4-.6-.4-1s.1-.7.4-1c.3-.3.6-.4 1-.4s.7.1 1 .4c.2.2.4.6.4 1zm-.5 19.6h-2v-15h2v15z"/></g><g class="st4"><path class="st3" d="M982.5 286.7c1.8 0 3.2.6 4.3 1.7 1.1 1.1 1.6 2.6 1.6 4.5v9.2h-2v-9.2c0-1.3-.4-2.4-1.1-3.1-.7-.7-1.7-1.1-3-1.1-1.5 0-2.7.5-3.6 1.4-.9.9-1.3 2.3-1.3 4.2v7.9h-2v-15h2v2.3c1.2-1.9 2.9-2.8 5.1-2.8z"/></g><g class="st4"><path class="st3" d="M999.4 287.1v1.9H995v9.1c0 .8.2 1.4.5 1.8.3.4.8.5 1.4.5h2.4v1.7c-2.1.3-3.7.2-4.8-.5s-1.5-1.8-1.5-3.5V289h-3.1v-1.9h3.1v-3.6l2-.6v4.2h4.4z"/></g><g class="st4"><path class="st3" d="M1008.2 286.7c2.2 0 4 .8 5.4 2.4 1.4 1.6 2.1 3.4 2.1 5.5 0 .1 0 .4-.1.9h-13.2c.2 1.5.8 2.7 1.9 3.6 1.1.9 2.4 1.4 4 1.4 2.3 0 3.9-.9 4.8-2.6l1.7 1c-.7 1.1-1.6 1.9-2.7 2.5-1.2.6-2.4.9-3.9.9-2.4 0-4.3-.7-5.8-2.2-1.5-1.5-2.2-3.4-2.2-5.6 0-2.3.7-4.1 2.2-5.6 1.6-1.4 3.5-2.2 5.8-2.2zm0 1.9c-1.6 0-2.9.5-3.9 1.4-1.1.9-1.7 2.1-1.9 3.6h11.2c-.2-1.6-.8-2.8-1.8-3.7-1-.8-2.2-1.3-3.6-1.3z"/></g><g class="st4"><path class="st3" d="M1031.3 290v-2.9h2v14.4c0 2.2-.7 3.9-2.2 5.1-1.5 1.2-3.2 1.9-5.3 1.9-3.5 0-5.9-1.2-7.1-3.7l1.7-1c.9 1.8 2.7 2.7 5.4 2.7 1.7 0 3.1-.5 4.1-1.4 1-.9 1.5-2.1 1.5-3.7v-2.3c-1.4 2.2-3.4 3.3-6.1 3.3-2.1 0-4-.8-5.5-2.3-1.5-1.5-2.2-3.4-2.2-5.6s.8-4.1 2.2-5.6c1.5-1.5 3.3-2.3 5.5-2.3 2.6.1 4.6 1.2 6 3.4zm-10.1 8.8c1.1 1.1 2.5 1.7 4.2 1.7s3.1-.6 4.2-1.7c1.1-1.2 1.7-2.6 1.7-4.2 0-1.7-.6-3.1-1.7-4.2-1.1-1.2-2.5-1.7-4.2-1.7s-3.1.6-4.2 1.7-1.7 2.5-1.7 4.2c0 1.6.5 3 1.7 4.2z"/></g><g class="st4"><path class="st3" d="M1039 287.1v2.5c.9-1.8 2.5-2.7 4.7-2.7v1.9c-1.4 0-2.6.4-3.4 1.2-.9.8-1.3 2.1-1.3 3.7v8.3h-2v-15h2z"/></g><g class="st4"><path class="st3" d="M1058 290v-2.9h2v15h-2v-2.9c-1.4 2.2-3.4 3.3-6.1 3.3-2.1 0-4-.8-5.5-2.3-1.5-1.5-2.2-3.4-2.2-5.6s.8-4.1 2.2-5.6c1.5-1.5 3.3-2.3 5.5-2.3 2.7 0 4.8 1.1 6.1 3.3zm-10.1 8.8c1.1 1.1 2.5 1.7 4.2 1.7s3.1-.6 4.2-1.7c1.1-1.2 1.7-2.6 1.7-4.2 0-1.7-.6-3.1-1.7-4.2-1.1-1.2-2.5-1.7-4.2-1.7s-3.1.6-4.2 1.7-1.7 2.5-1.7 4.2c0 1.6.6 3 1.7 4.2z"/></g><g class="st4"><path class="st3" d="M1071.5 287.1v1.9h-4.3v9.1c0 .8.2 1.4.5 1.8.3.4.8.5 1.4.5h2.4v1.7c-2.1.3-3.7.2-4.8-.5-1-.6-1.5-1.8-1.5-3.5V289h-3.2v-1.9h3.2v-3.6l2-.6v4.2h4.3z"/></g><g class="st4"><path class="st3" d="M1080.4 286.7c2.2 0 4 .8 5.4 2.4 1.4 1.6 2.1 3.4 2.1 5.5 0 .1 0 .4-.1.9h-13.2c.2 1.5.8 2.7 1.9 3.6 1.1.9 2.4 1.4 4 1.4 2.3 0 3.9-.9 4.8-2.6l1.7 1c-.7 1.1-1.6 1.9-2.7 2.5-1.2.6-2.4.9-3.9.9-2.4 0-4.3-.7-5.8-2.2-1.5-1.5-2.2-3.4-2.2-5.6 0-2.3.7-4.1 2.2-5.6 1.6-1.4 3.5-2.2 5.8-2.2zm0 1.9c-1.6 0-2.9.5-3.9 1.4s-1.7 2.1-1.9 3.6h11.2c-.2-1.6-.8-2.8-1.8-3.7-1.1-.8-2.2-1.3-3.6-1.3z"/></g><g class="st4"><path class="st3" d="M1105.8 287.1v1.9h-4.3v9.1c0 .8.2 1.4.5 1.8.3.4.8.5 1.4.5h2.4v1.7c-2.1.3-3.7.2-4.8-.5s-1.5-1.8-1.5-3.5V289h-3.1v-1.9h3.1v-3.6l2-.6v4.2h4.3z"/></g><g class="st4"><path class="st3" d="M1120.3 300.2c-1.5 1.5-3.4 2.2-5.6 2.2-2.2 0-4.1-.8-5.6-2.2-1.5-1.5-2.3-3.4-2.3-5.6s.8-4.1 2.3-5.6c1.5-1.5 3.4-2.3 5.6-2.3 2.2 0 4.1.8 5.6 2.3 1.5 1.5 2.3 3.4 2.3 5.6 0 2.2-.8 4.1-2.3 5.6zm-9.8-1.4c1.1 1.1 2.5 1.7 4.2 1.7s3.1-.6 4.2-1.7c1.1-1.2 1.7-2.6 1.7-4.2 0-1.7-.6-3.1-1.7-4.2-1.1-1.2-2.5-1.7-4.2-1.7s-3.1.6-4.2 1.7-1.7 2.5-1.7 4.2c0 1.6.6 3 1.7 4.2z"/></g><g class="st4"><path class="st3" d="M1140.9 286.7c2.1 0 4 .8 5.5 2.3 1.5 1.5 2.3 3.4 2.3 5.6s-.8 4.1-2.3 5.6c-1.5 1.5-3.3 2.3-5.5 2.3-2.7 0-4.7-1.1-6.1-3.3v8.9h-2v-21h2v2.9c1.4-2.2 3.4-3.3 6.1-3.3zm-4.4 12.1c1.1 1.1 2.5 1.7 4.2 1.7s3.1-.6 4.2-1.7c1.1-1.2 1.7-2.6 1.7-4.2 0-1.7-.6-3.1-1.7-4.2-1.1-1.2-2.5-1.7-4.2-1.7s-3.1.6-4.2 1.7-1.7 2.5-1.7 4.2c0 1.6.6 3 1.7 4.2z"/></g><g class="st4"><path class="st3" d="M1164 300.2c-1.5 1.5-3.4 2.2-5.6 2.2-2.2 0-4.1-.8-5.6-2.2-1.5-1.5-2.3-3.4-2.3-5.6s.8-4.1 2.3-5.6c1.5-1.5 3.4-2.3 5.6-2.3 2.2 0 4.1.8 5.6 2.3 1.5 1.5 2.3 3.4 2.3 5.6 0 2.2-.8 4.1-2.3 5.6zm-9.8-1.4c1.1 1.1 2.5 1.7 4.2 1.7s3.1-.6 4.2-1.7c1.1-1.2 1.7-2.6 1.7-4.2 0-1.7-.6-3.1-1.7-4.2-1.1-1.2-2.5-1.7-4.2-1.7s-3.1.6-4.2 1.7-1.7 2.5-1.7 4.2c0 1.6.6 3 1.7 4.2z"/></g><g class="st4"><path class="st3" d="M1177.1 286.7c2.1 0 4 .8 5.5 2.3 1.5 1.5 2.3 3.4 2.3 5.6s-.8 4.1-2.3 5.6c-1.5 1.5-3.3 2.3-5.5 2.3-2.7 0-4.7-1.1-6.1-3.3v8.9h-2v-21h2v2.9c1.5-2.2 3.5-3.3 6.1-3.3zm-4.3 12.1c1.1 1.1 2.5 1.7 4.2 1.7s3.1-.6 4.2-1.7c1.1-1.2 1.7-2.6 1.7-4.2 0-1.7-.6-3.1-1.7-4.2-1.1-1.2-2.5-1.7-4.2-1.7s-3.1.6-4.2 1.7-1.7 2.5-1.7 4.2c0 1.6.6 3 1.7 4.2z"/></g><g class="st4"><path class="st3" d="M1198.4 295v-7.9h2v15h-2v-2.3c-1.1 1.8-2.8 2.7-5 2.7-1.8 0-3.2-.6-4.3-1.7-1.1-1.1-1.6-2.6-1.6-4.5v-9.2h2v9.2c0 1.3.4 2.4 1.1 3.1.7.7 1.7 1.1 3 1.1 1.5 0 2.7-.5 3.6-1.4s1.2-2.3 1.2-4.1z"/></g><g class="st4"><path class="st3" d="M1206 302.1h-2v-21.9h2v21.9z"/></g><g class="st4"><path class="st3" d="M1222.6 290v-2.9h2v15h-2v-2.9c-1.4 2.2-3.4 3.3-6.1 3.3-2.1 0-4-.8-5.5-2.3-1.5-1.5-2.2-3.4-2.2-5.6s.8-4.1 2.2-5.6c1.5-1.5 3.3-2.3 5.5-2.3 2.7 0 4.8 1.1 6.1 3.3zm-10.1 8.8c1.1 1.1 2.5 1.7 4.2 1.7s3.1-.6 4.2-1.7c1.1-1.2 1.7-2.6 1.7-4.2 0-1.7-.6-3.1-1.7-4.2-1.1-1.2-2.5-1.7-4.2-1.7s-3.1.6-4.2 1.7-1.7 2.5-1.7 4.2c0 1.6.6 3 1.7 4.2z"/></g><g class="st4"><path class="st3" d="M1230.3 287.1v2.5c.9-1.8 2.5-2.7 4.7-2.7v1.9c-1.4 0-2.6.4-3.4 1.2-.9.8-1.3 2.1-1.3 3.7v8.3h-2v-15h2z"/></g><g class="st4"><path class="st3" d="M1252.7 286.7c2.1 0 4 .8 5.5 2.3 1.5 1.5 2.3 3.4 2.3 5.6s-.8 4.1-2.3 5.6c-1.5 1.5-3.3 2.3-5.5 2.3-2.7 0-4.7-1.1-6.1-3.3v2.9h-2v-21h2v8.9c1.4-2.2 3.4-3.3 6.1-3.3zm-4.4 12.1c1.1 1.1 2.5 1.7 4.2 1.7 1.7 0 3.1-.6 4.2-1.7 1.1-1.2 1.7-2.6 1.7-4.2 0-1.7-.6-3.1-1.7-4.2-1.1-1.2-2.5-1.7-4.2-1.7-1.7 0-3.1.6-4.2 1.7s-1.7 2.5-1.7 4.2c0 1.6.6 3 1.7 4.2z"/></g><g class="st4"><path class="st3" d="M1273.9 295v-7.9h2v15h-2v-2.3c-1.1 1.8-2.8 2.7-5 2.7-1.8 0-3.2-.6-4.3-1.7-1.1-1.1-1.6-2.6-1.6-4.5v-9.2h2v9.2c0 1.3.4 2.4 1.1 3.1.7.7 1.7 1.1 3 1.1 1.5 0 2.7-.5 3.6-1.4s1.2-2.3 1.2-4.1z"/></g><g class="st4"><path class="st3" d="M1281 291c0 1.2 1 2 3.1 2.6.6.1 1 .2 1.1.3.2.1.5.2 1.1.3.5.2.9.3 1.1.4s.5.3.9.6c.4.2.6.5.8.8s.3.6.5 1c.1.4.2.8.2 1.2 0 1.3-.5 2.3-1.5 3.1-1 .8-2.3 1.2-3.9 1.2-1.4 0-2.6-.3-3.6-.9-1-.6-1.7-1.5-2.2-2.5l1.7-1c.3.8.8 1.4 1.5 1.8.7.5 1.6.7 2.6.7s1.8-.2 2.5-.6c.6-.4 1-1 1-1.8 0-1.2-1-2-3.1-2.5-.6-.1-1-.2-1.1-.3-.2 0-.5-.2-1.1-.3s-.9-.3-1.1-.4c-.2-.1-.5-.3-.9-.6-.4-.2-.6-.5-.8-.8-.2-.2-.3-.6-.5-1-.1-.4-.2-.8-.2-1.2 0-1.2.5-2.2 1.4-3.1 1-.8 2.2-1.2 3.7-1.2 1.2 0 2.3.3 3.2.8s1.6 1.3 2.1 2.2l-1.6 1c-.6-1.4-1.8-2.1-3.6-2.1-.9 0-1.6.2-2.2.6-.8.4-1.1 1-1.1 1.7z"/></g><g class="st4"><path class="st3" d="M1295 282.5c0 .4-.1.7-.4 1-.3.3-.6.4-1 .4s-.7-.1-1-.4c-.3-.3-.4-.6-.4-1s.1-.7.4-1c.3-.3.6-.4 1-.4s.7.1 1 .4c.2.2.4.6.4 1zm-.5 19.6h-2v-15h2v15z"/></g><g class="st4"><path class="st3" d="M1305.2 286.7c1.8 0 3.2.6 4.3 1.7 1.1 1.1 1.6 2.6 1.6 4.5v9.2h-2v-9.2c0-1.3-.4-2.4-1.1-3.1-.7-.7-1.7-1.1-3-1.1-1.5 0-2.7.5-3.6 1.4-.9.9-1.3 2.3-1.3 4.2v7.9h-2v-15h2v2.3c1.2-1.9 2.9-2.8 5.1-2.8z"/></g><g class="st4"><path class="st3" d="M1321.5 286.7c2.2 0 4 .8 5.4 2.4 1.4 1.6 2.1 3.4 2.1 5.5 0 .1 0 .4-.1.9h-13.2c.2 1.5.8 2.7 1.9 3.6 1.1.9 2.4 1.4 4 1.4 2.3 0 3.9-.9 4.8-2.6l1.7 1c-.7 1.1-1.6 1.9-2.7 2.5-1.2.6-2.4.9-3.9.9-2.4 0-4.3-.7-5.8-2.2-1.5-1.5-2.2-3.4-2.2-5.6 0-2.3.7-4.1 2.2-5.6 1.6-1.4 3.5-2.2 5.8-2.2zm0 1.9c-1.6 0-2.9.5-3.9 1.4-1.1.9-1.7 2.1-1.9 3.6h11.2c-.2-1.6-.8-2.8-1.8-3.7-1.1-.8-2.3-1.3-3.6-1.3z"/></g><g class="st4"><path class="st3" d="M1333 291c0 1.2 1 2 3.1 2.6.6.1 1 .2 1.1.3.2.1.5.2 1.1.3.5.2.9.3 1.1.4s.5.3.9.6.6.5.8.8.3.6.5 1 .2.8.2 1.2c0 1.3-.5 2.3-1.5 3.1-1 .8-2.3 1.2-3.9 1.2-1.4 0-2.6-.3-3.6-.9-1-.6-1.7-1.5-2.2-2.5l1.7-1c.3.8.8 1.4 1.5 1.8.7.5 1.6.7 2.6.7s1.8-.2 2.5-.6c.6-.4 1-1 1-1.8 0-1.2-1-2-3.1-2.5-.6-.1-1-.2-1.1-.3-.2 0-.5-.2-1.1-.3-.5-.2-.9-.3-1.1-.4-.2-.1-.5-.3-.9-.6-.4-.2-.7-.5-.8-.8-.2-.2-.3-.6-.4-1-.1-.4-.2-.8-.2-1.2 0-1.2.5-2.2 1.4-3.1 1-.8 2.2-1.2 3.7-1.2 1.2 0 2.3.3 3.2.8.9.5 1.6 1.3 2.1 2.2l-1.7 1c-.6-1.4-1.8-2.1-3.6-2.1-.9 0-1.7.2-2.2.6-.8.4-1.1 1-1.1 1.7z"/></g><g class="st4"><path class="st3" d="M1346.1 291c0 1.2 1 2 3.1 2.6.6.1 1 .2 1.1.3.2.1.5.2 1.1.3.5.2.9.3 1.1.4s.5.3.9.6.7.5.8.8.3.6.4 1c.1.4.2.8.2 1.2 0 1.3-.5 2.3-1.5 3.1-1 .8-2.3 1.2-3.9 1.2-1.4 0-2.6-.3-3.6-.9s-1.7-1.5-2.2-2.5l1.7-1c.3.8.8 1.4 1.5 1.8.7.5 1.6.7 2.6.7s1.8-.2 2.5-.6c.6-.4 1-1 1-1.8 0-1.2-1-2-3.1-2.5-.6-.1-1-.2-1.1-.3-.2 0-.5-.2-1.1-.3-.5-.2-.9-.3-1.1-.4-.2-.1-.5-.3-.9-.6-.4-.2-.6-.5-.8-.8-.2-.2-.3-.6-.5-1-.1-.4-.2-.8-.2-1.2 0-1.2.5-2.2 1.4-3.1 1-.8 2.2-1.2 3.7-1.2 1.2 0 2.3.3 3.2.8.9.5 1.6 1.3 2.1 2.2l-1.6 1c-.6-1.4-1.8-2.1-3.6-2.1-.9 0-1.6.2-2.2.6-.7.4-1 1-1 1.7z"/></g><g class="st4"><path class="st3" d="M1378 290v-2.9h2v15h-2v-2.9c-1.4 2.2-3.4 3.3-6.1 3.3-2.1 0-4-.8-5.5-2.3-1.5-1.5-2.2-3.4-2.2-5.6s.8-4.1 2.2-5.6c1.5-1.5 3.3-2.3 5.5-2.3 2.7 0 4.7 1.1 6.1 3.3zm-10.1 8.8c1.1 1.1 2.5 1.7 4.2 1.7s3.1-.6 4.2-1.7c1.1-1.2 1.7-2.6 1.7-4.2 0-1.7-.6-3.1-1.7-4.2-1.1-1.2-2.5-1.7-4.2-1.7s-3.1.6-4.2 1.7-1.7 2.5-1.7 4.2c0 1.6.6 3 1.7 4.2zm23.8-12.1c2.1 0 4 .8 5.5 2.3 1.5 1.5 2.3 3.4 2.3 5.6s-.8 4.1-2.3 5.6c-1.5 1.5-3.3 2.3-5.5 2.3-2.7 0-4.7-1.1-6.1-3.3v8.9h-2v-21h2v2.9c1.4-2.2 3.4-3.3 6.1-3.3zm-4.4 12.1c1.1 1.1 2.5 1.7 4.2 1.7s3.1-.6 4.2-1.7c1.1-1.2 1.7-2.6 1.7-4.2 0-1.7-.6-3.1-1.7-4.2-1.1-1.2-2.5-1.7-4.2-1.7s-3.1.6-4.2 1.7-1.7 2.5-1.7 4.2c0 1.6.6 3 1.7 4.2z"/></g><g class="st4"><path class="st3" d="M1410.3 286.7c2.1 0 4 .8 5.5 2.3 1.5 1.5 2.3 3.4 2.3 5.6s-.8 4.1-2.3 5.6c-1.5 1.5-3.3 2.3-5.5 2.3-2.7 0-4.7-1.1-6.1-3.3v8.9h-2v-21h2v2.9c1.4-2.2 3.4-3.3 6.1-3.3zm-4.4 12.1c1.1 1.1 2.5 1.7 4.2 1.7 1.7 0 3.1-.6 4.2-1.7 1.1-1.2 1.7-2.6 1.7-4.2 0-1.7-.6-3.1-1.7-4.2-1.1-1.2-2.5-1.7-4.2-1.7-1.7 0-3.1.6-4.2 1.7s-1.7 2.5-1.7 4.2c0 1.6.6 3 1.7 4.2z"/></g><g class="st4"><path class="st3" d="M1422.1 291c0 1.2 1 2 3.1 2.6.6.1 1 .2 1.1.3.2.1.5.2 1.1.3.5.2.9.3 1.1.4s.5.3.9.6.6.5.8.8.3.6.5 1 .2.8.2 1.2c0 1.3-.5 2.3-1.5 3.1-1 .8-2.3 1.2-3.9 1.2-1.4 0-2.6-.3-3.6-.9-1-.6-1.7-1.5-2.2-2.5l1.7-1c.3.8.8 1.4 1.5 1.8.7.5 1.6.7 2.6.7s1.8-.2 2.5-.6c.6-.4 1-1 1-1.8 0-1.2-1-2-3.1-2.5-.6-.1-1-.2-1.1-.3-.2 0-.5-.2-1.1-.3-.5-.2-.9-.3-1.1-.4-.2-.1-.5-.3-.9-.6-.4-.2-.7-.5-.8-.8-.2-.2-.3-.6-.4-1-.1-.4-.2-.8-.2-1.2 0-1.2.5-2.2 1.4-3.1 1-.8 2.2-1.2 3.7-1.2 1.2 0 2.3.3 3.2.8.9.5 1.6 1.3 2.1 2.2l-1.7 1c-.6-1.4-1.8-2.1-3.6-2.1-.9 0-1.7.2-2.2.6-.8.4-1.1 1-1.1 1.7z"/></g><g class="st4"><path class="st3" d="M1455.4 299.5l3.7-12.5h2l-4.6 15h-2.2l-3.9-12.1-3.9 12.1h-2.2l-4.6-15h2l3.7 12.5 3.9-12.5h2l4.1 12.5z"/></g><g class="st4"><path class="st3" d="M1465.8 282.5c0 .4-.1.7-.4 1s-.6.4-1 .4-.7-.1-1-.4-.4-.6-.4-1 .1-.7.4-1 .6-.4 1-.4.7.1 1 .4.4.6.4 1zm-.5 19.6h-2v-15h2v15z"/></g><g class="st4"><path class="st3" d="M1476.8 287.1v1.9h-4.3v9.1c0 .8.2 1.4.5 1.8.3.4.8.5 1.4.5h2.4v1.7c-2.1.3-3.7.2-4.8-.5-1-.6-1.5-1.8-1.5-3.5V289h-3.2v-1.9h3.2v-3.6l2-.6v4.2h4.3z"/></g><g class="st4"><path class="st3" d="M1486.2 286.7c1.8 0 3.2.6 4.3 1.7 1.1 1.1 1.6 2.6 1.6 4.5v9.2h-2v-9.2c0-1.3-.4-2.4-1.1-3.1-.7-.7-1.7-1.1-3-1.1-1.5 0-2.7.5-3.6 1.4-.9.9-1.3 2.3-1.3 4.2v7.9h-2v-21h2v8.3c1.2-1.9 2.9-2.8 5.1-2.8z"/></g><g class="st4"><path class="st3" d="M902.4 348.2c-1.5 1.5-3.4 2.2-5.6 2.2-2.2 0-4.1-.8-5.6-2.2-1.5-1.5-2.3-3.4-2.3-5.6s.8-4.1 2.3-5.6c1.5-1.5 3.4-2.3 5.6-2.3 2.2 0 4.1.8 5.6 2.3 1.5 1.5 2.3 3.4 2.3 5.6.1 2.2-.7 4.1-2.3 5.6zm-9.7-1.4c1.1 1.1 2.5 1.7 4.2 1.7s3.1-.6 4.2-1.7c1.1-1.2 1.7-2.6 1.7-4.2 0-1.7-.6-3.1-1.7-4.2-1.1-1.2-2.5-1.7-4.2-1.7s-3.1.6-4.2 1.7-1.7 2.5-1.7 4.2c0 1.6.5 3 1.7 4.2z"/></g><g class="st4"><path class="st3" d="M918.2 343v-7.9h2v15h-2v-2.3c-1.1 1.8-2.8 2.7-5 2.7-1.8 0-3.2-.6-4.3-1.7-1.1-1.1-1.6-2.6-1.6-4.5v-9.2h2v9.2c0 1.3.4 2.4 1.1 3.1.7.7 1.7 1.1 3 1.1 1.5 0 2.7-.5 3.6-1.4s1.2-2.3 1.2-4.1z"/></g><g class="st4"><path class="st3" d="M931.7 335.1v1.9h-4.3v9.1c0 .8.2 1.4.5 1.8.3.4.8.5 1.4.5h2.4v1.7c-2.1.3-3.7.2-4.8-.5-1-.6-1.5-1.8-1.5-3.5V337h-3.2v-1.9h3.2v-3.6l2-.6v4.2h4.3z"/></g><g class="st4"><path class="st3" d="M943 341.8h-10.8v-1.9H943v1.9z"/></g><g class="st4"><path class="st3" d="M959.1 348.2c-1.5 1.5-3.4 2.2-5.6 2.2-2.2 0-4.1-.8-5.6-2.2-1.5-1.5-2.3-3.4-2.3-5.6s.8-4.1 2.3-5.6c1.5-1.5 3.4-2.3 5.6-2.3 2.2 0 4.1.8 5.6 2.3 1.5 1.5 2.3 3.4 2.3 5.6 0 2.2-.7 4.1-2.3 5.6zm-9.8-1.4c1.1 1.1 2.5 1.7 4.2 1.7s3.1-.6 4.2-1.7c1.1-1.2 1.7-2.6 1.7-4.2 0-1.7-.6-3.1-1.7-4.2-1.1-1.2-2.5-1.7-4.2-1.7s-3.1.6-4.2 1.7-1.7 2.5-1.7 4.2c0 1.6.6 3 1.7 4.2z"/></g><g class="st4"><path class="st3" d="M971.2 328.7v1.9c-1.5-.1-2.5.1-3.3.8-.7.6-1.1 1.7-1.1 3.1v.6h4.3v1.9h-4.3v13.1h-2V337h-2.5v-1.9h2.5v-.6c0-2 .5-3.5 1.6-4.5 1.2-1 2.8-1.4 4.8-1.3z"/></g><g class="st4"><path class="st3" d="M981.9 341.8h-10.8v-1.9h10.8v1.9z"/></g><g class="st4"><path class="st3" d="M992.2 335.1v1.9h-4.3v9.1c0 .8.2 1.4.5 1.8.3.4.8.5 1.4.5h2.4v1.7c-2.1.3-3.7.2-4.8-.5-1-.6-1.5-1.8-1.5-3.5V337h-3.2v-1.9h3.2v-3.6l2-.6v4.2h4.3z"/></g><g class="st4"><path class="st3" d="M1001.6 334.7c1.8 0 3.2.6 4.3 1.7 1.1 1.1 1.6 2.6 1.6 4.5v9.2h-2v-9.2c0-1.3-.4-2.4-1.1-3.1-.7-.7-1.7-1.1-3-1.1-1.5 0-2.7.5-3.6 1.4-.9.9-1.3 2.3-1.3 4.2v7.9h-2v-21h2v8.3c1.2-1.9 2.9-2.8 5.1-2.8z"/></g><g class="st4"><path class="st3" d="M1017.9 334.7c2.2 0 4 .8 5.4 2.4 1.4 1.6 2.1 3.4 2.1 5.5 0 .1 0 .4-.1.9h-13.2c.2 1.5.8 2.7 1.9 3.6 1.1.9 2.4 1.4 4 1.4 2.3 0 3.9-.9 4.8-2.6l1.7 1c-.7 1.1-1.6 1.9-2.7 2.5-1.2.6-2.4.9-3.9.9-2.4 0-4.3-.7-5.8-2.2-1.5-1.5-2.2-3.4-2.2-5.6 0-2.3.7-4.1 2.2-5.6 1.6-1.4 3.5-2.2 5.8-2.2zm0 1.9c-1.6 0-2.9.5-3.9 1.4-1.1.9-1.7 2.1-1.9 3.6h11.2c-.2-1.6-.8-2.8-1.8-3.7-1.1-.8-2.3-1.3-3.6-1.3z"/></g><g class="st4"><path class="st3" d="M1038.6 341.8h-10.8v-1.9h10.8v1.9z"/></g><g class="st4"><path class="st3" d="M1050 334.7c2.1 0 4 .8 5.5 2.3 1.5 1.5 2.3 3.4 2.3 5.6s-.8 4.1-2.3 5.6c-1.5 1.5-3.3 2.3-5.5 2.3-2.7 0-4.7-1.1-6.1-3.3v2.9h-2v-21h2v8.9c1.4-2.2 3.4-3.3 6.1-3.3zm-4.4 12.1c1.1 1.1 2.5 1.7 4.2 1.7s3.1-.6 4.2-1.7c1.1-1.2 1.7-2.6 1.7-4.2 0-1.7-.6-3.1-1.7-4.2-1.1-1.2-2.5-1.7-4.2-1.7s-3.1.6-4.2 1.7-1.7 2.5-1.7 4.2c0 1.6.6 3 1.7 4.2z"/></g><g class="st4"><path class="st3" d="M1073.1 348.2c-1.5 1.5-3.4 2.2-5.6 2.2-2.2 0-4.1-.8-5.6-2.2-1.5-1.5-2.3-3.4-2.3-5.6s.8-4.1 2.3-5.6c1.5-1.5 3.4-2.3 5.6-2.3 2.2 0 4.1.8 5.6 2.3 1.5 1.5 2.3 3.4 2.3 5.6 0 2.2-.8 4.1-2.3 5.6zm-9.8-1.4c1.1 1.1 2.5 1.7 4.2 1.7s3.1-.6 4.2-1.7c1.1-1.2 1.7-2.6 1.7-4.2 0-1.7-.6-3.1-1.7-4.2-1.1-1.2-2.5-1.7-4.2-1.7s-3.1.6-4.2 1.7-1.7 2.5-1.7 4.2c0 1.6.6 3 1.7 4.2z"/></g><g class="st4"><path class="st3" d="M1084.1 342.3l5.8 7.8h-2.4l-4.7-6.2-4.7 6.2h-2.4l5.9-7.8-5.5-7.2h2.4l4.3 5.7 4.3-5.7h2.4l-5.4 7.2z"/></g><g class="st4"><path class="st3" d="M1101.9 330.5c0 .4-.1.7-.4 1s-.6.4-1 .4-.7-.1-1-.4-.4-.6-.4-1 .1-.7.4-1 .6-.4 1-.4.7.1 1 .4.4.6.4 1zm-.4 19.6h-2v-15h2v15z"/></g><g class="st4"><path class="st3" d="M1112.2 334.7c1.8 0 3.2.6 4.3 1.7 1.1 1.1 1.6 2.6 1.6 4.5v9.2h-2v-9.2c0-1.3-.4-2.4-1.1-3.1-.7-.7-1.7-1.1-3-1.1-1.5 0-2.7.5-3.6 1.4-.9.9-1.3 2.3-1.3 4.2v7.9h-2v-15h2v2.3c1.2-1.9 2.9-2.8 5.1-2.8z"/></g><g class="st4"><path class="st3" d="M1129 335.1v1.9h-4.3v9.1c0 .8.2 1.4.5 1.8.3.4.8.5 1.4.5h2.4v1.7c-2.1.3-3.7.2-4.8-.5s-1.5-1.8-1.5-3.5V337h-3.1v-1.9h3.1v-3.6l2-.6v4.2h4.3z"/></g><g class="st4"><path class="st3" d="M1137.9 334.7c2.2 0 4 .8 5.4 2.4 1.4 1.6 2.1 3.4 2.1 5.5 0 .1 0 .4-.1.9h-13.2c.2 1.5.8 2.7 1.9 3.6 1.1.9 2.4 1.4 4 1.4 2.3 0 3.9-.9 4.8-2.6l1.7 1c-.7 1.1-1.6 1.9-2.7 2.5-1.2.6-2.4.9-3.9.9-2.4 0-4.3-.7-5.8-2.2-1.5-1.5-2.2-3.4-2.2-5.6 0-2.3.7-4.1 2.2-5.6 1.6-1.4 3.5-2.2 5.8-2.2zm0 1.9c-1.6 0-2.9.5-3.9 1.4s-1.7 2.1-1.9 3.6h11.2c-.2-1.6-.8-2.8-1.8-3.7-1.1-.8-2.3-1.3-3.6-1.3z"/></g><g class="st4"><path class="st3" d="M1161 338v-2.9h2v14.4c0 2.2-.7 3.9-2.2 5.1s-3.2 1.9-5.3 1.9c-3.5 0-5.9-1.2-7.1-3.7l1.7-1c.9 1.8 2.7 2.7 5.4 2.7 1.7 0 3.1-.5 4.1-1.4 1-.9 1.5-2.1 1.5-3.7v-2.3c-1.4 2.2-3.4 3.3-6.1 3.3-2.1 0-4-.8-5.5-2.3-1.5-1.5-2.2-3.4-2.2-5.6s.8-4.1 2.2-5.6c1.5-1.5 3.3-2.3 5.5-2.3 2.6.1 4.6 1.2 6 3.4zm-10.2 8.8c1.1 1.1 2.5 1.7 4.2 1.7s3.1-.6 4.2-1.7c1.1-1.2 1.7-2.6 1.7-4.2 0-1.7-.6-3.1-1.7-4.2-1.1-1.2-2.5-1.7-4.2-1.7s-3.1.6-4.2 1.7-1.7 2.5-1.7 4.2c0 1.6.6 3 1.7 4.2z"/></g><g class="st4"><path class="st3" d="M1168.6 335.1v2.5c.9-1.8 2.5-2.7 4.7-2.7v1.9c-1.4 0-2.6.4-3.4 1.2-.9.8-1.3 2.1-1.3 3.7v8.3h-2v-15h2z"/></g><g class="st4"><path class="st3" d="M1187.7 338v-2.9h2v15h-2v-2.9c-1.4 2.2-3.4 3.3-6.1 3.3-2.1 0-4-.8-5.5-2.3-1.5-1.5-2.2-3.4-2.2-5.6s.8-4.1 2.2-5.6c1.5-1.5 3.3-2.3 5.5-2.3 2.7 0 4.7 1.1 6.1 3.3zm-10.1 8.8c1.1 1.1 2.5 1.7 4.2 1.7s3.1-.6 4.2-1.7c1.1-1.2 1.7-2.6 1.7-4.2 0-1.7-.6-3.1-1.7-4.2-1.1-1.2-2.5-1.7-4.2-1.7s-3.1.6-4.2 1.7-1.7 2.5-1.7 4.2c0 1.6.6 3 1.7 4.2z"/></g><g class="st4"><path class="st3" d="M1201.2 335.1v1.9h-4.3v9.1c0 .8.2 1.4.5 1.8.3.4.8.5 1.4.5h2.4v1.7c-2.1.3-3.7.2-4.8-.5-1-.6-1.5-1.8-1.5-3.5V337h-3.2v-1.9h3.2v-3.6l2-.6v4.2h4.3z"/></g><g class="st4"><path class="st3" d="M1206 330.5c0 .4-.1.7-.4 1-.3.3-.6.4-1 .4s-.7-.1-1-.4c-.3-.3-.4-.6-.4-1s.1-.7.4-1c.3-.3.6-.4 1-.4s.7.1 1 .4c.2.2.4.6.4 1zm-.5 19.6h-2v-15h2v15z"/></g><g class="st4"><path class="st3" d="M1221.8 348.2c-1.5 1.5-3.4 2.2-5.6 2.2-2.2 0-4.1-.8-5.6-2.2-1.5-1.5-2.3-3.4-2.3-5.6s.8-4.1 2.3-5.6c1.5-1.5 3.4-2.3 5.6-2.3 2.2 0 4.1.8 5.6 2.3 1.5 1.5 2.3 3.4 2.3 5.6 0 2.2-.8 4.1-2.3 5.6zm-9.8-1.4c1.1 1.1 2.5 1.7 4.2 1.7s3.1-.6 4.2-1.7c1.1-1.2 1.7-2.6 1.7-4.2 0-1.7-.6-3.1-1.7-4.2-1.1-1.2-2.5-1.7-4.2-1.7s-3.1.6-4.2 1.7-1.7 2.5-1.7 4.2c0 1.6.5 3 1.7 4.2z"/></g><g class="st4"><path class="st3" d="M1233.9 334.7c1.8 0 3.2.6 4.3 1.7 1.1 1.1 1.6 2.6 1.6 4.5v9.2h-2v-9.2c0-1.3-.4-2.4-1.1-3.1-.7-.7-1.7-1.1-3-1.1-1.5 0-2.7.5-3.6 1.4-.9.9-1.3 2.3-1.3 4.2v7.9h-2v-15h2v2.3c1.2-1.9 2.9-2.8 5.1-2.8z"/></g><g class="st4"><path class="st3" d="M1244.6 339c0 1.2 1 2 3.1 2.6.6.1 1 .2 1.1.3.2.1.5.2 1.1.3.5.2.9.3 1.1.4s.5.3.9.6c.4.2.6.5.8.8s.3.6.5 1c.1.4.2.8.2 1.2 0 1.3-.5 2.3-1.5 3.1-1 .8-2.3 1.2-3.9 1.2-1.4 0-2.6-.3-3.6-.9-1-.6-1.7-1.5-2.2-2.5l1.7-1c.3.8.8 1.4 1.5 1.8.7.5 1.6.7 2.6.7s1.8-.2 2.5-.6c.6-.4 1-1 1-1.8 0-1.2-1-2-3.1-2.5-.6-.1-1-.2-1.1-.3-.2 0-.5-.2-1.1-.3s-.9-.3-1.1-.4c-.2-.1-.5-.3-.9-.6-.4-.2-.6-.5-.8-.8-.2-.2-.3-.6-.5-1-.1-.4-.2-.8-.2-1.2 0-1.2.5-2.2 1.4-3.1 1-.8 2.2-1.2 3.7-1.2 1.2 0 2.3.3 3.2.8s1.6 1.3 2.1 2.2l-1.6 1c-.6-1.4-1.8-2.1-3.6-2.1-.9 0-1.6.2-2.2.6-.8.4-1.1 1-1.1 1.7z"/></g><g class="st4"><path class="st3" d="M1266 330.5c0 .4-.1.7-.4 1-.3.3-.6.4-1 .4s-.7-.1-1-.4c-.3-.3-.4-.6-.4-1s.1-.7.4-1c.3-.3.6-.4 1-.4s.7.1 1 .4c.3.2.4.6.4 1zm-.5 19.6h-2v-15h2v15z"/></g><g class="st4"><path class="st3" d="M1276.3 334.7c1.8 0 3.2.6 4.3 1.7 1.1 1.1 1.6 2.6 1.6 4.5v9.2h-2v-9.2c0-1.3-.4-2.4-1.1-3.1-.7-.7-1.7-1.1-3-1.1-1.5 0-2.7.5-3.6 1.4-.9.9-1.3 2.3-1.3 4.2v7.9h-2v-15h2v2.3c1.1-1.9 2.8-2.8 5.1-2.8z"/></g><g class="st4"><path class="st3" d="M1300.8 335.1v1.9h-4.3v9.1c0 .8.2 1.4.5 1.8.3.4.8.5 1.4.5h2.4v1.7c-2.1.3-3.7.2-4.8-.5s-1.5-1.8-1.5-3.5V337h-3.1v-1.9h3.1v-3.6l2-.6v4.2h4.3z"/></g><g class="st4"><path class="st3" d="M1310.2 334.7c1.8 0 3.2.6 4.3 1.7 1.1 1.1 1.6 2.6 1.6 4.5v9.2h-2v-9.2c0-1.3-.4-2.4-1.1-3.1-.7-.7-1.7-1.1-3-1.1-1.5 0-2.7.5-3.6 1.4-.9.9-1.3 2.3-1.3 4.2v7.9h-2v-21h2v8.3c1.2-1.9 2.9-2.8 5.1-2.8z"/></g><g class="st4"><path class="st3" d="M1326.5 334.7c2.2 0 4 .8 5.4 2.4 1.4 1.6 2.1 3.4 2.1 5.5 0 .1 0 .4-.1.9h-13.2c.2 1.5.8 2.7 1.9 3.6 1.1.9 2.4 1.4 4 1.4 2.3 0 3.9-.9 4.8-2.6l1.7 1c-.7 1.1-1.6 1.9-2.7 2.5-1.2.6-2.4.9-3.9.9-2.4 0-4.3-.7-5.8-2.2-1.5-1.5-2.2-3.4-2.2-5.6 0-2.3.7-4.1 2.2-5.6 1.6-1.4 3.5-2.2 5.8-2.2zm0 1.9c-1.6 0-2.9.5-3.9 1.4-1.1.9-1.7 2.1-1.9 3.6h11.2c-.2-1.6-.8-2.8-1.8-3.7-1.1-.8-2.3-1.3-3.6-1.3z"/></g><g class="st4"><path class="st3" d="M1350.9 350.5c-1.9 0-3.6-.5-4.9-1.4s-2.3-2.2-2.9-3.8l1.8-1.1c.4 1.3 1.1 2.3 2.1 3.1 1 .7 2.3 1.1 3.9 1.1 1.5 0 2.8-.3 3.6-1 .9-.7 1.3-1.6 1.3-2.8 0-1.1-.4-1.9-1.2-2.5-.8-.6-2.1-1.1-4-1.7-2.2-.7-3.7-1.3-4.3-1.7-1.6-1-2.4-2.4-2.4-4.2 0-1.8.6-3.2 1.9-4.2 1.2-1 2.7-1.6 4.6-1.6 1.6 0 3 .4 4.2 1.2 1.2.8 2.1 1.9 2.7 3.3l-1.8 1c-1-2.3-2.7-3.5-5.2-3.5-1.3 0-2.4.3-3.2 1-.8.6-1.2 1.5-1.2 2.7 0 1.1.4 1.8 1.1 2.3.7.5 1.9 1 3.6 1.6l1.6.6c.3.1.8.3 1.4.5.7.3 1.1.5 1.4.7 1.1.6 1.7 1.2 2 1.8.5.8.8 1.7.8 2.7 0 1.8-.7 3.2-2 4.3-1.1 1-2.8 1.6-4.9 1.6z"/></g><g class="st4"><path class="st3" d="M1367.7 334.7c2.2 0 4 .8 5.4 2.4 1.4 1.6 2.1 3.4 2.1 5.5 0 .1 0 .4-.1.9h-13.2c.2 1.5.8 2.7 1.9 3.6 1.1.9 2.4 1.4 4 1.4 2.3 0 3.9-.9 4.8-2.6l1.7 1c-.7 1.1-1.6 1.9-2.7 2.5-1.2.6-2.4.9-3.9.9-2.4 0-4.3-.7-5.8-2.2-1.5-1.5-2.2-3.4-2.2-5.6 0-2.3.7-4.1 2.2-5.6 1.6-1.4 3.5-2.2 5.8-2.2zm0 1.9c-1.6 0-2.9.5-3.9 1.4-1.1.9-1.7 2.1-1.9 3.6h11.2c-.2-1.6-.8-2.8-1.8-3.7-1.1-.8-2.3-1.3-3.6-1.3z"/></g><g class="st4"><path class="st3" d="M1379.8 335.1v2.5c.9-1.8 2.5-2.7 4.7-2.7v1.9c-1.4 0-2.6.4-3.4 1.2-.9.8-1.3 2.1-1.3 3.7v8.3h-2v-15h2z"/></g><g class="st4"><path class="st3" d="M1393.1 348l5.2-12.9h2.1l-6.2 15h-2.4l-6.2-15h2.1l5.4 12.9z"/></g><g class="st4"><path class="st3" d="M1404.8 330.5c0 .4-.1.7-.4 1-.3.3-.6.4-1 .4s-.7-.1-1-.4c-.3-.3-.4-.6-.4-1s.1-.7.4-1c.3-.3.6-.4 1-.4s.7.1 1 .4c.2.2.4.6.4 1zm-.5 19.6h-2v-15h2v15z"/></g><g class="st4"><path class="st3" d="M1415 350.5c-2.3 0-4.1-.8-5.6-2.2-1.5-1.5-2.2-3.4-2.2-5.6 0-2.2.8-4.1 2.2-5.6 1.5-1.5 3.4-2.3 5.6-2.3 1.5 0 2.8.4 4 1.1s2 1.7 2.6 2.9l-1.6.9c-.4-.9-1-1.6-1.9-2.1-.9-.5-1.9-.8-3-.8-1.7 0-3.1.6-4.2 1.7s-1.7 2.5-1.7 4.2c0 1.6.6 3 1.7 4.2 1.1 1.1 2.5 1.7 4.2 1.7 1.1 0 2.1-.3 3-.8.9-.5 1.6-1.2 2.1-2.2l1.7 1c-.6 1.2-1.5 2.2-2.7 2.8-1.4.7-2.8 1.1-4.2 1.1z"/></g><g class="st4"><path class="st3" d="M1430.9 334.7c2.2 0 4 .8 5.4 2.4 1.4 1.6 2.1 3.4 2.1 5.5 0 .1 0 .4-.1.9h-13.2c.2 1.5.8 2.7 1.9 3.6 1.1.9 2.4 1.4 4 1.4 2.3 0 3.9-.9 4.8-2.6l1.7 1c-.7 1.1-1.6 1.9-2.7 2.5-1.2.6-2.4.9-3.9.9-2.4 0-4.3-.7-5.8-2.2-1.5-1.5-2.2-3.4-2.2-5.6 0-2.3.7-4.1 2.2-5.6 1.6-1.4 3.5-2.2 5.8-2.2zm0 1.9c-1.6 0-2.9.5-3.9 1.4-1.1.9-1.7 2.1-1.9 3.6h11.2c-.2-1.6-.8-2.8-1.8-3.7-1.1-.8-2.3-1.3-3.6-1.3z"/></g><g class="st4"><path class="st3" d="M1454.9 346.2v-17.1h2.1v21h-1.8l-11.7-17.1v17.1h-2.1v-21h1.8l11.7 17.1z"/></g><g class="st4"><path class="st3" d="M1473.6 348.2c-1.5 1.5-3.4 2.2-5.6 2.2-2.2 0-4.1-.8-5.6-2.2-1.5-1.5-2.3-3.4-2.3-5.6s.8-4.1 2.3-5.6c1.5-1.5 3.4-2.3 5.6-2.3 2.2 0 4.1.8 5.6 2.3 1.5 1.5 2.3 3.4 2.3 5.6 0 2.2-.8 4.1-2.3 5.6zm-9.8-1.4c1.1 1.1 2.5 1.7 4.2 1.7s3.1-.6 4.2-1.7c1.1-1.2 1.7-2.6 1.7-4.2 0-1.7-.6-3.1-1.7-4.2-1.1-1.2-2.5-1.7-4.2-1.7s-3.1.6-4.2 1.7-1.7 2.5-1.7 4.2c0 1.6.6 3 1.7 4.2z"/></g><g class="st4"><path class="st3" d="M1492.5 347.5l3.7-12.5h2l-4.6 15h-2.2l-3.9-12.1-3.9 12.1h-2.2l-4.6-15h2l3.7 12.5 3.9-12.5h2l4.1 12.5z"/></g><g class="st4"><path class="st3" d="M1509.6 339c0 1.2 1 2 3.1 2.6.6.1 1 .2 1.1.3.2.1.5.2 1.1.3.5.2.9.3 1.1.4s.5.3.9.6.7.5.8.8.3.6.4 1c.1.4.2.8.2 1.2 0 1.3-.5 2.3-1.5 3.1-1 .8-2.3 1.2-3.9 1.2-1.4 0-2.6-.3-3.6-.9s-1.7-1.5-2.2-2.5l1.7-1c.3.8.8 1.4 1.5 1.8.7.5 1.6.7 2.6.7s1.8-.2 2.5-.6c.6-.4 1-1 1-1.8 0-1.2-1-2-3.1-2.5-.6-.1-1-.2-1.1-.3-.2 0-.5-.2-1.1-.3-.5-.2-.9-.3-1.1-.4-.2-.1-.5-.3-.9-.6-.4-.2-.6-.5-.8-.8-.2-.2-.3-.6-.5-1-.1-.4-.2-.8-.2-1.2 0-1.2.5-2.2 1.4-3.1 1-.8 2.2-1.2 3.7-1.2 1.2 0 2.3.3 3.2.8.9.5 1.6 1.3 2.1 2.2l-1.6 1c-.6-1.4-1.8-2.1-3.6-2.1-.9 0-1.6.2-2.2.6-.7.4-1 1-1 1.7z"/></g><g class="st4"><path class="st3" d="M1529.2 335.1v1.9h-4.3v9.1c0 .8.2 1.4.5 1.8.3.4.8.5 1.4.5h2.4v1.7c-2.1.3-3.7.2-4.8-.5s-1.5-1.8-1.5-3.5V337h-3.1v-1.9h3.1v-3.6l2-.6v4.2h4.3z"/></g><g class="st4"><path class="st3" d="M1543.7 348.2c-1.5 1.5-3.4 2.2-5.6 2.2-2.2 0-4.1-.8-5.6-2.2-1.5-1.5-2.3-3.4-2.3-5.6s.8-4.1 2.3-5.6c1.5-1.5 3.4-2.3 5.6-2.3 2.2 0 4.1.8 5.6 2.3 1.5 1.5 2.3 3.4 2.3 5.6 0 2.2-.8 4.1-2.3 5.6zm-9.8-1.4c1.1 1.1 2.5 1.7 4.2 1.7s3.1-.6 4.2-1.7c1.1-1.2 1.7-2.6 1.7-4.2 0-1.7-.6-3.1-1.7-4.2-1.1-1.2-2.5-1.7-4.2-1.7s-3.1.6-4.2 1.7-1.7 2.5-1.7 4.2c0 1.6.6 3 1.7 4.2z"/></g><g class="st4"><path class="st3" d="M1550.8 335.1v2.5c.9-1.8 2.5-2.7 4.7-2.7v1.9c-1.4 0-2.6.4-3.4 1.2-.9.8-1.3 2.1-1.3 3.7v8.3h-2v-15h2z"/></g><g class="st4"><path class="st3" d="M1564 334.7c2.2 0 4 .8 5.4 2.4 1.4 1.6 2.1 3.4 2.1 5.5 0 .1 0 .4-.1.9h-13.2c.2 1.5.8 2.7 1.9 3.6 1.1.9 2.4 1.4 4 1.4 2.3 0 3.9-.9 4.8-2.6l1.7 1c-.7 1.1-1.6 1.9-2.7 2.5-1.2.6-2.4.9-3.9.9-2.4 0-4.3-.7-5.8-2.2-1.5-1.5-2.2-3.4-2.2-5.6 0-2.3.7-4.1 2.2-5.6 1.6-1.4 3.5-2.2 5.8-2.2zm0 1.9c-1.6 0-2.9.5-3.9 1.4s-1.7 2.1-1.9 3.6h11.2c-.2-1.6-.8-2.8-1.8-3.7-1.1-.8-2.3-1.3-3.6-1.3z"/></g><g class="st4"><path class="st3" d="M1576.7 348.7c0 .5-.2.8-.5 1.2-.3.3-.7.5-1.2.5s-.8-.2-1.2-.5c-.3-.3-.5-.7-.5-1.2s.2-.9.5-1.2c.3-.3.7-.5 1.2-.5s.8.2 1.2.5c.3.4.5.8.5 1.2z"/></g></g></svg>