<svg xmlns="http://www.w3.org/2000/svg" viewBox="0 0 26 26"><path d="M15.84 11.5c0 1.59-1.3 2.89-2.89 2.89s-2.89-1.3-2.89-2.89 1.3-2.89 2.89-2.89 2.89 1.3 2.89 2.89zM25.5 13c0 6.9-5.6 12.5-12.5 12.5S.5 19.9.5 13 6.1.5 13 .5 25.5 6.1 25.5 13zm-3.99 6.67c-.49-2.15-2.47-3.93-5.15-4.77.87-.87 1.41-2.08 1.41-3.4 0-2.66-2.16-4.82-4.82-4.82S8.13 8.84 8.13 11.5c0 1.33.54 2.53 1.41 3.4-2.68.83-4.66 2.62-5.15 4.77.53.68 1.14 1.29 1.81 1.83v-.8c0-2.37 3.09-4.38 6.75-4.38s6.75 2 6.75 4.38v.8c.67-.54 1.28-1.15 1.81-1.83z" fill="#293d40"/></svg>