<svg version="1.1" id="Layer_1" xmlns="http://www.w3.org/2000/svg" xmlns:xlink="http://www.w3.org/1999/xlink" x="0" y="0" viewBox="0 0 26 26" xml:space="preserve"><style>.st0{fill:#293e40}</style><path class="st0" d="M13 25.5C6.11 25.5.5 19.89.5 13S6.11.5 13 .5 25.5 6.11 25.5 13 19.89 25.5 13 25.5zm0-23.33C7.03 2.17 2.17 7.03 2.17 13S7.03 23.83 13 23.83 23.83 18.97 23.83 13 18.97 2.17 13 2.17z"/><defs><circle id="SVGID_1_" cx="13" cy="13" r="10.88"/></defs><clipPath id="SVGID_2_"><use xlink:href="#SVGID_1_" overflow="visible"/></clipPath><g clip-path="url(#SVGID_2_)"><path class="st0" d="M16.4 14.9c.87-.87 1.4-2.07 1.4-3.39 0-2.65-2.16-4.81-4.81-4.81s-4.81 2.16-4.81 4.81c0 1.32.54 2.52 1.4 3.39-3.08.96-5.25 3.19-5.25 5.78v6.21a.96.96 0 001.92 0v-6.21c0-2.36 3.08-4.36 6.73-4.36s6.73 2 6.73 4.36v6.21a.96.96 0 001.92 0v-6.21c.02-2.59-2.15-4.82-5.23-5.78zm-6.28-3.39a2.88 2.88 0 115.761.001 2.88 2.88 0 01-5.761-.001z"/></g></svg>