<svg data-name="Layer 1" xmlns="http://www.w3.org/2000/svg" width="32" height="32"><path d="M24.51 13A7.379 7.379 0 0017 20.222a7.277 7.277 0 005.607 6.987 1.143 1.143 0 01.884 1.093V30a1 1 0 00.651.937 1.009 1.009 0 00.348.063 1 1 0 00.757-.347l4.772-5.532A7.04 7.04 0 0032 20.222 7.368 7.368 0 0024.51 13z" fill="#81b5a0"/><g fill="#293e40"><path d="M19.819 4a11.654 11.654 0 00-9.211-2.917A12.171 12.171 0 00.2 11.137a12.71 12.71 0 002.962 10.67 1.018 1.018 0 00.073.074l8.565 7.856a1 1 0 00.676.263 1.018 1.018 0 00.4-.084 1 1 0 00.6-.916v-2.309a.955.955 0 01.74-.98C19.978 24.828 24 19.774 24 13.423A12.6 12.6 0 0019.819 4zm-5.9 19.736a2.962 2.962 0 00-2.437 2.956v.036l-6.857-6.286a10.724 10.724 0 01-2.456-8.963 10.162 10.162 0 018.671-8.411 9.7 9.7 0 017.65 2.425 10.6 10.6 0 013.51 7.93c0 5.341-3.324 9.577-8.084 10.312z"/><path d="M16 13h-3v-3a1 1 0 00-2 0v3H8a1 1 0 000 2h3v3a1 1 0 002 0v-3h3a1 1 0 000-2z"/></g></svg>