<svg data-name="Layer 1" xmlns="http://www.w3.org/2000/svg" width="32" height="32"><path d="M1 5v6h30V5zm4.5 4.5A1.5 1.5 0 117 8a1.5 1.5 0 01-1.5 1.5zm4 0A1.5 1.5 0 1111 8a1.5 1.5 0 01-1.5 1.5zm4 0A1.5 1.5 0 1115 8a1.5 1.5 0 01-1.5 1.5z" fill="#81b5a0"/><g fill="#293e40"><path d="M29 3H3a3 3 0 00-3 3v20a3 3 0 003 3h26a3 3 0 003-3V6a3 3 0 00-3-3zm1 23a1 1 0 01-1 1H3a1 1 0 01-1-1V6a1 1 0 011-1h26a1 1 0 011 1z"/><path d="M22.707 14.293a1 1 0 00-1.414 1.414L23.586 18l-2.293 2.293a1 1 0 101.414 1.414l3-3a1 1 0 000-1.414zM7.414 18l2.293-2.293a1 1 0 00-1.414-1.414l-3 3a1 1 0 000 1.414l3 3a1 1 0 001.414-1.414z"/><path d="M12 17h-1a1 1 0 000 2h1a1 1 0 000-2zm4 0h-1a1 1 0 000 2h1a1 1 0 000-2zm4 0h-1a1 1 0 000 2h1a1 1 0 000-2z"/></g></svg>