<svg data-name="Layer 1" xmlns="http://www.w3.org/2000/svg" width="32" height="32"><path d="M29 2H3a3 3 0 00-3 3v16a3 3 0 003 3h9v1a3 3 0 01-3 3 1 1 0 000 2h14a1 1 0 000-2 3 3 0 01-3-3v-1h9a3 3 0 003-3V5a3 3 0 00-3-3zM19 28h-6a4.98 4.98 0 001-3v-1h4v1a4.98 4.98 0 001 3zm11-7a1 1 0 01-1 1H3a1 1 0 01-1-1V5a1 1 0 011-1h26a1 1 0 011 1z" fill="#293e40"/><path d="M12.007 7.655L12 16.8a.5.5 0 00.838.369l2.4-2.206 2.234 3.743a.5.5 0 00.687.17l1.611-.973a.5.5 0 00.169-.686l-2.235-3.743 3.068-1a.5.5 0 00.081-.916l-8.11-4.343a.5.5 0 00-.736.44z" fill="#81b5a0"/></svg>