<svg id="Layer_1" data-name="Layer 1" xmlns="http://www.w3.org/2000/svg" width="32" height="32" viewBox="0 0 32 32">
  <title>Connect with Sales</title>
  <g>
    <path d="M28.381,14.19a1.251,1.251,0,0,1-1.13-.713,12.823,12.823,0,0,0-4.864-5.452A1.249,1.249,0,1,1,23.693,5.9,15.3,15.3,0,0,1,29.509,12.4a1.25,1.25,0,0,1-1.128,1.787ZM3.569,14.141a1.235,1.235,0,0,1-.529-.119,1.25,1.25,0,0,1-.6-1.662A14.931,14.931,0,0,1,6.156,7.43,15.583,15.583,0,0,1,8.312,5.875a1.25,1.25,0,0,1,1.276,2.15,13,13,0,0,0-1.8,1.3,12.457,12.457,0,0,0-3.09,4.1A1.25,1.25,0,0,1,3.569,14.141Z" fill="#81b5a0"/>
    <path d="M29,26H17V23H29a1,1,0,0,0,0-2,3,3,0,0,1-3-3,10.013,10.013,0,0,0-9-9.949V7.969A1.987,1.987,0,0,1,19,6h1a1,1,0,0,0,0-2H12a1,1,0,0,0,0,2h1a1.987,1.987,0,0,1,2,1.969v.082A10.013,10.013,0,0,0,6,18a3,3,0,0,1-3,3,1,1,0,0,0,0,2H15v3H3a1,1,0,0,0,0,2H29a1,1,0,0,0,0-2ZM8,18a8,8,0,0,1,16,0,4.98,4.98,0,0,0,1,3H7A4.98,4.98,0,0,0,8,18Z" fill="#293e40"/>
  </g>
</svg>
