<svg id="Layer_1" data-name="Layer 1" xmlns="http://www.w3.org/2000/svg" width="32" height="32" viewBox="0 0 32 32">
  <title>Find an App</title>
  <g>
    <g>
      <circle cx="11" cy="16" r="2" fill="#81b5a0"/>
      <circle cx="21" cy="16" r="2" fill="#81b5a0"/>
      <circle cx="16" cy="16" r="2" fill="#81b5a0"/>
    </g>
    <g>
      <path d="M27,2H5A3,3,0,0,0,2,5V20.69a1,1,0,0,0,2,0V5A1,1,0,0,1,5,4H27a1,1,0,0,1,1,1V27a1,1,0,0,1-1,1H11.31a1,1,0,0,0,0,2H27a3,3,0,0,0,3-3V5A3,3,0,0,0,27,2Z" fill="#293e40"/>
      <path d="M16,26a10.034,10.034,0,1,0-8.94-5.545L.918,26.6a3.2,3.2,0,0,0,.005,4.479A3.181,3.181,0,0,0,3.16,32a3.149,3.149,0,0,0,2.247-.923l6.137-6.138A9.921,9.921,0,0,0,16,26ZM16,8a8,8,0,1,1-8,8A8.009,8.009,0,0,1,16,8ZM3.994,29.663a1.229,1.229,0,0,1-1.653,0,1.189,1.189,0,0,1,0-1.661l5.821-5.821a10.094,10.094,0,0,0,1.656,1.656L9.653,24h0Z" fill="#293e40"/>
    </g>
  </g>
</svg>
