<svg id="Layer_1" data-name="Layer 1" xmlns="http://www.w3.org/2000/svg" width="32" height="32" viewBox="0 0 32 32">
  <title>Get Certified</title>
  <g>
    <circle cx="16" cy="13" r="7" fill="#81b5a0"/>
    <path d="M29.486,25.069a9.227,9.227,0,0,1-3.9-3.407,5.391,5.391,0,0,0,.444-2.772,4.942,4.942,0,0,1,.137-1.68A4.752,4.752,0,0,1,27.212,16,4.364,4.364,0,0,0,29,13a4.364,4.364,0,0,0-1.788-3A4.752,4.752,0,0,1,26.166,8.79a4.942,4.942,0,0,1-.137-1.68,4.315,4.315,0,0,0-.837-3.3,4.331,4.331,0,0,0-3.3-.836,4.966,4.966,0,0,1-1.679-.137A4.779,4.779,0,0,1,19,1.788,4.364,4.364,0,0,0,16,0a4.364,4.364,0,0,0-3,1.788,4.794,4.794,0,0,1-1.21,1.047,4.984,4.984,0,0,1-1.679.137,4.293,4.293,0,0,0-3.3.836,4.318,4.318,0,0,0-.836,3.3,4.942,4.942,0,0,1-.137,1.68A4.752,4.752,0,0,1,4.788,10,4.364,4.364,0,0,0,3,13a4.364,4.364,0,0,0,1.788,3A4.752,4.752,0,0,1,5.834,17.21a4.942,4.942,0,0,1,.137,1.68,5.4,5.4,0,0,0,.444,2.772,9.232,9.232,0,0,1-3.9,3.406,1,1,0,0,0,.046,1.88l3.492,1.164.859,3.151a1,1,0,0,0,1.4.637,14.951,14.951,0,0,0,6.122-6.4,2.672,2.672,0,0,0,3.124,0,14.951,14.951,0,0,0,6.122,6.4,1,1,0,0,0,1.4-.637l.859-3.151,3.492-1.164a1,1,0,0,0,.05-1.879ZM8.492,29.441,7.845,27.07a1,1,0,0,0-.649-.685l-1.91-.637A11.288,11.288,0,0,0,8,22.862a7.425,7.425,0,0,0,2.111.166,5.01,5.01,0,0,1,1.679.137,4.194,4.194,0,0,1,1.1.93A13.718,13.718,0,0,1,8.492,29.441Zm5.954-6.611a5.957,5.957,0,0,0-1.89-1.513,5.056,5.056,0,0,0-1.944-.3c-.179,0-.359,0-.538.006-.736.015-1.574.029-1.852-.25s-.264-1.115-.251-1.853a6.176,6.176,0,0,0-.289-2.481,5.949,5.949,0,0,0-1.513-1.891C5.621,14.029,5,13.437,5,13s.621-1.029,1.169-1.553A5.949,5.949,0,0,0,7.682,9.556a6.176,6.176,0,0,0,.289-2.481c-.013-.738-.028-1.575.251-1.853s1.114-.265,1.854-.251a6.267,6.267,0,0,0,2.48-.288,5.957,5.957,0,0,0,1.89-1.513C14.97,2.621,15.563,2,16,2s1.03.621,1.554,1.17a5.957,5.957,0,0,0,1.89,1.513,6.163,6.163,0,0,0,2.482.289c.736-.014,1.574-.028,1.852.25s.264,1.115.251,1.853a6.176,6.176,0,0,0,.289,2.481,5.949,5.949,0,0,0,1.513,1.891C26.379,11.971,27,12.563,27,13s-.621,1.029-1.169,1.553a5.949,5.949,0,0,0-1.513,1.891,6.176,6.176,0,0,0-.289,2.481c.013.738.028,1.575-.251,1.853s-1.117.263-1.854.251a6.211,6.211,0,0,0-2.48.288,5.957,5.957,0,0,0-1.89,1.513C17.03,23.379,16.437,24,16,24S14.97,23.379,14.446,22.83ZM24.8,26.385a1,1,0,0,0-.649.685l-.646,2.371a13.71,13.71,0,0,1-4.4-5.346,4.208,4.208,0,0,1,1.1-.93,4.936,4.936,0,0,1,1.679-.137A7.224,7.224,0,0,0,24,22.864a11.291,11.291,0,0,0,2.712,2.884Z" fill="#293e40"/>
    <path d="M14.834,16a.8.8,0,0,1-.571-.237L12.49,13.991a.538.538,0,0,1,0-.761l.381-.381a.538.538,0,0,1,.761,0l1.2,1.2,3.893-3.893a.537.537,0,0,1,.761,0l.381.38a.538.538,0,0,1,0,.761l-4.464,4.464A.806.806,0,0,1,14.834,16Z" fill="#fff"/>
  </g>
</svg>
