<?xml version="1.0" encoding="utf-8"?>
<!-- Generator: Adobe Illustrator 24.1.0, SVG Export Plug-In . SVG Version: 6.00 Build 0)  -->
<svg version="1.1" id="Layer_1" xmlns="http://www.w3.org/2000/svg" xmlns:xlink="http://www.w3.org/1999/xlink" x="0px" y="0px"
	 viewBox="0 0 1644.7 650.5" style="enable-background:new 0 0 1644.7 650.5;" xml:space="preserve">
<style type="text/css">
	.st0{fill:none;stroke:#68A1AF;stroke-width:10;stroke-linejoin:round;}
	.st1{fill:none;stroke:#68A1AF;stroke-width:9.94;stroke-linejoin:round;}
	.st2{fill:#FFFFFF;}
	.st3{fill:#293E40;}
	.st4{fill:#3B5653;}
	.st5{font-family:'BentonSans-Black';}
	.st6{font-size:30px;}
	.st7{font-family:'Gilroy-Bold';}
	.st8{letter-spacing:-1;}
	.st9{letter-spacing:-2;}
	.st10{font-family:'Gilroy-Regular';}
	.st11{letter-spacing:-3;}
</style>
<g id="arrow_shaft_1">
	<line class="st0" x1="796.8" y1="440.5" x2="796.8" y2="0"/>
</g>
<g id="bracket">
	<path class="st1" d="M1530.1,527.9v-53.6l0,0c0-19.2-15.6-34.8-34.8-34.8H103.6c-19.2,0-34.8,15.6-34.8,34.8l0,0v53.6"/>
	<path class="st1" d="M1317.9,527.9v-53.6l0,0c0-19.2-15.6-34.8-34.8-34.8l0,0H311c-19.2,0-34.8,15.6-34.8,34.8l0,0v53.6"/>
	<path class="st1" d="M1112.3,527.9v-53.6l0,0c0-19.2-15.6-34.8-34.8-34.8c0,0,0,0,0,0l-559.7,0.1c-19.2,0-34.8,15.6-34.8,34.8l0,0
		V528"/>
	<path class="st1" d="M901.4,527.9v-53.6l0,0c0-19.2-15.6-34.8-34.8-34.8c0,0,0,0,0,0L727,439.7c-19.2,0-34.8,15.6-34.8,34.8l0,0
		V528"/>
</g>
<g id="nodes">
	<g id="Ellipse_2">
		<ellipse transform="matrix(0.7071 -0.7071 0.7071 0.7071 -369.8278 210.3751)" class="st2" cx="69" cy="551.6" rx="48" ry="48"/>
	</g>
	<g id="Ellipse_2_copy_8">
		<ellipse transform="matrix(0.7071 -0.7071 0.7071 0.7071 77.6436 627.9265)" class="st3" cx="796.8" cy="220.2" rx="48" ry="48"/>
	</g>
	<g id="Ellipse_2_copy">
		<circle class="st2" cx="276.9" cy="551.6" r="48"/>
	</g>
	<g id="Ellipse_2_copy_2">
		
			<ellipse transform="matrix(0.9239 -0.3827 0.3827 0.9239 -94.6319 627.6611)" class="st2" cx="1530.4" cy="551.7" rx="48.1" ry="48"/>
	</g>
	<g id="Ellipse_2_copy_3">
		<circle class="st2" cx="485.2" cy="551.6" r="48"/>
	</g>
	<g id="Ellipse_2_copy_4">
		<circle class="st2" cx="694.1" cy="551.6" r="48"/>
	</g>
	<g id="Ellipse_2_copy_5">
		<circle class="st2" cx="902" cy="551.6" r="48"/>
	</g>
	<g id="Ellipse_2_copy_6">
		
			<ellipse transform="matrix(0.9184 -0.3957 0.3957 0.9184 -127.5989 484.5816)" class="st2" cx="1110.8" cy="551.6" rx="48.1" ry="48"/>
	</g>
	<g id="Ellipse_2_copy_7">
		
			<ellipse transform="matrix(0.9184 -0.3957 0.3957 0.9184 -110.6281 566.8372)" class="st2" cx="1318.7" cy="551.6" rx="48.1" ry="48"/>
	</g>
</g>
<g id="icons">
	<g id="integration_hub_Image">
		
			<image style="overflow:visible;enable-background:new    ;" width="46" height="47" id="integration_hub_Image-2" xlink:href="F8716D7184097197.png"  transform="matrix(1 0 0 1 773.8 196.74)">
		</image>
	</g>
	<g id="office_365_Image">
		
			<image style="overflow:visible;enable-background:new    ;" width="48" height="57" id="office_365_Image-2" xlink:href="F8716D7184097195.png"  transform="matrix(1 0 0 1 40.57 523.66)">
		</image>
	</g>
	<g id="gmail_Image">
		
			<image style="overflow:visible;enable-background:new    ;" width="52" height="40" id="gmail_Image-2" xlink:href="F8716D718409719B.png"  transform="matrix(1 0 0 1 248.57 532.66)">
		</image>
	</g>
	<g id="zoom_Image">
		
			<image style="overflow:visible;enable-background:new    ;" width="70" height="72" id="zoom_Image-2" xlink:href="F8716D718409719D.png"  transform="matrix(1 0 0 1 448.21 516.66)">
		</image>
	</g>
	<g id="okta_Image">
		
			<image style="overflow:visible;enable-background:new    ;" width="75" height="26" id="okta_Image-2" xlink:href="F8716D718409719F.png"  transform="matrix(1 0 0 1 657.21 538.66)">
		</image>
	</g>
	<g id="github_Image">
		
			<image style="overflow:visible;enable-background:new    ;" width="61" height="60" id="github_Image-2" xlink:href="F8716D718409719C.png"  transform="matrix(1 0 0 1 871.21 521.66)">
		</image>
	</g>
	<g id="webex_Image">
		
			<image style="overflow:visible;enable-background:new    ;" width="66" height="65" id="webex_Image-2" xlink:href="F8716D7184097194.png"  transform="matrix(1 0 0 1 1077.21 519.66)">
		</image>
	</g>
	<g id="box_Image">
		
			<image style="overflow:visible;enable-background:new    ;" width="66" height="35" id="box_Image-2" xlink:href="F8716D7184097196.png"  transform="matrix(1 0 0 1 1286.21 532.66)">
		</image>
	</g>
</g>
<g id="labels">
	<g id="Integration_Hub">
		<text transform="matrix(1 0 0 1 889.6 231.18)" class="st4 st5 st6">I</text>
		<text transform="matrix(1 0 0 1 898.09 231.18)" class="st4 st5 st6">n</text>
		<text transform="matrix(1 0 0 1 915.62 231.18)" class="st4 st5 st6">t</text>
		<text transform="matrix(1 0 0 1 926.78 231.18)" class="st4 st5 st6">e</text>
		<text transform="matrix(1 0 0 1 943.09 231.18)" class="st4 st5 st6">g</text>
		<text transform="matrix(1 0 0 1 960.05 231.18)" class="st4 st5 st6">r</text>
		<text transform="matrix(1 0 0 1 971.9399 231.18)" class="st4 st5 st6">a</text>
		<text transform="matrix(1 0 0 1 988.27 231.18)" class="st4 st5 st6">t</text>
		<text transform="matrix(1 0 0 1 999.4399 231.18)" class="st4 st5 st6">i</text>
		<text transform="matrix(1 0 0 1 1006.93 231.18)" class="st4 st5 st6">o</text>
		<text transform="matrix(1 0 0 1 1024.23 231.18)" class="st4 st5 st6">n </text>
		<text transform="matrix(1 0 0 1 1049.25 231.18)" class="st4 st5 st6">H</text>
		<text transform="matrix(1 0 0 1 1071.3099 231.18)" class="st4 st5 st6">u</text>
		<text transform="matrix(1 0 0 1 1088.76 231.18)" class="st4 st5 st6">b</text>
	</g>
	<g id="Office_365">
		<text transform="matrix(1 0 0 1 0 642.56)" class="st4 st7 st6">O</text>
		<text transform="matrix(1 0 0 1 23.47 642.56)" class="st4 st7 st6">ffi</text>
		<text transform="matrix(1 0 0 1 48.12 642.56)" class="st4 st7 st6">c</text>
		<text transform="matrix(1 0 0 1 63.63 642.56)" class="st4 st7 st6">e </text>
		<text transform="matrix(1 0 0 1 87.96 642.56)" class="st4 st7 st6">3</text>
		<text transform="matrix(1 0 0 1 103.99 642.56)" class="st4 st7 st6">6</text>
		<text transform="matrix(1 0 0 1 120.21 642.56)" class="st4 st7 st6">5</text>
	</g>
	<g id="Gmail">
		<text transform="matrix(1 0 0 1 235.53 642.56)" class="st4 st7 st6">G</text>
		<text transform="matrix(1 0 0 1 258.8 642.56)" class="st4 st7 st6">m</text>
		<text transform="matrix(1 0 0 1 284 642.56)" class="st4 st7 st6">a</text>
		<text transform="matrix(1 0 0 1 302.4 642.56)" class="st4 st7 st6">i</text>
		<text transform="matrix(1 0 0 1 309.45 642.56)" class="st4 st7 st6">l</text>
	</g>
	<g id="Zoom">
		<text transform="matrix(1 0 0 1 448.56 642.56)" class="st4 st7 st6">Z</text>
		<text transform="matrix(1 0 0 1 463.97 642.56)" class="st4 st7 st6">o</text>
		<text transform="matrix(1 0 0 1 481.33 642.56)" class="st4 st7 st6">o</text>
		<text transform="matrix(1 0 0 1 498.74 642.56)" class="st4 st7 st6">m</text>
	</g>
	<g id="Okta">
		<text transform="matrix(1 0 0 1 662.7 642.56)" class="st4 st7 st6">O</text>
		<text transform="matrix(1 0 0 1 686.25 642.56)" class="st4 st7 st6">k</text>
		<text transform="matrix(1 0 0 1 702.12 642.56)" class="st4 st7 st6">t</text>
		<text transform="matrix(1 0 0 1 713.01 642.56)" class="st4 st7 st6">a</text>
	</g>
	<g id="GitHub">
		<text transform="matrix(1 0 0 1 857.66 642.56)" class="st4 st7 st6">G</text>
		<text transform="matrix(1 0 0 1 880.84 642.56)" class="st4 st7 st6">i</text>
		<text transform="matrix(1 0 0 1 887.72 642.56)" class="st4 st7 st6">t</text>
		<text transform="matrix(1 0 0 1 899.1 642.56)" class="st4 st7 st6">H</text>
		<text transform="matrix(1 0 0 1 918.85 642.56)" class="st4 st7 st6">u</text>
		<text transform="matrix(1 0 0 1 935.7599 642.56)" class="st4 st7 st6">b</text>
	</g>
	<g id="WebEx">
		<text transform="matrix(1 0 0 1 1067.1801 642.56)" class="st4 st7 st6 st8">W</text>
		<text transform="matrix(1 0 0 1 1095.5601 642.56)" class="st4 st7 st6">e</text>
		<text transform="matrix(1 0 0 1 1112.63 642.56)" class="st4 st7 st6">b</text>
		<text transform="matrix(1 0 0 1 1131.1101 642.56)" class="st4 st7 st6">E</text>
		<text transform="matrix(1 0 0 1 1146.9801 642.56)" class="st4 st7 st6">x</text>
		<text transform="matrix(1 0 0 1 1295.85 642.56)" class="st4 st7 st6">B</text>
		<text transform="matrix(1 0 0 1 1313.86 642.56)" class="st4 st7 st6 st8">o</text>
		<text transform="matrix(1 0 0 1 1330.5399 642.56)" class="st4 st7 st6">x</text>
	</g>
	<text transform="matrix(1 0 0 1 1489.2 642.56)" class="st4 st7 st6 st9">T</text>
	<text transform="matrix(1 0 0 1 1502.6699 642.56)" class="st4 st7 st6">w</text>
	<text transform="matrix(1 0 0 1 1525.24 642.56)" class="st4 st7 st6">i</text>
	<text transform="matrix(1 0 0 1 1532.2899 642.56)" class="st4 st7 st6">l</text>
	<text transform="matrix(1 0 0 1 1539.3099 642.56)" class="st4 st7 st6">l</text>
	<text transform="matrix(1 0 0 1 1546.37 642.56)" class="st4 st7 st6">i</text>
	<text transform="matrix(1 0 0 1 1553.2799 642.56)" class="st4 st7 st6">o</text>
	<g id="twillio">
		
			<image style="overflow:visible;enable-background:new    ;" width="2501" height="2501" id="_2SCQe5" xlink:href="F8716D7184097192.png"  transform="matrix(2.998800e-02 0 0 2.998800e-02 1492.64 514.66)">
		</image>
	</g>
</g>
<g id="Easily_integrate_to_popular_business_apps_with_out-of-the-box_i">
	<text transform="matrix(1 0 0 1 887.77 302.09)" class="st3 st10 st6">E</text>
	<text transform="matrix(1 0 0 1 902.66 302.09)" class="st3 st10 st6">a</text>
	<text transform="matrix(1 0 0 1 921.14 302.09)" class="st3 st10 st6">s</text>
	<text transform="matrix(1 0 0 1 934.19 302.09)" class="st3 st10 st6">i</text>
	<text transform="matrix(1 0 0 1 939.86 302.09)" class="st3 st10 st6">l</text>
	<text transform="matrix(1 0 0 1 945.55 302.09)" class="st3 st10 st6">y </text>
	<text transform="matrix(1 0 0 1 967.75 302.09)" class="st3 st10 st6">i</text>
	<text transform="matrix(1 0 0 1 973.4301 302.09)" class="st3 st10 st6">n</text>
	<text transform="matrix(1 0 0 1 989.31 302.09)" class="st3 st10 st6 st8">t</text>
	<text transform="matrix(1 0 0 1 999.19 302.09)" class="st3 st10 st6">e</text>
	<text transform="matrix(1 0 0 1 1016.3 302.09)" class="st3 st10 st6">g</text>
	<text transform="matrix(1 0 0 1 1034.87 302.09)" class="st3 st10 st6 st8">r</text>
	<text transform="matrix(1 0 0 1 1043.05 302.09)" class="st3 st10 st6">a</text>
	<text transform="matrix(1 0 0 1 1061.5 302.09)" class="st3 st10 st6 st8">t</text>
	<text transform="matrix(1 0 0 1 1071.38 302.09)" class="st3 st10 st6">e </text>
	<text transform="matrix(1 0 0 1 1095.8 302.09)" class="st3 st10 st6 st8">t</text>
	<text transform="matrix(1 0 0 1 1105.64 302.09)" class="st3 st10 st6">o </text>
	<text transform="matrix(1 0 0 1 1130.72 302.09)" class="st3 st10 st6">p</text>
	<text transform="matrix(1 0 0 1 1149.3101 302.09)" class="st3 st10 st6">o</text>
	<text transform="matrix(1 0 0 1 1167 302.09)" class="st3 st10 st6">p</text>
	<text transform="matrix(1 0 0 1 1185.7 302.09)" class="st3 st10 st6">u</text>
	<text transform="matrix(1 0 0 1 1201.9301 302.09)" class="st3 st10 st6">l</text>
	<text transform="matrix(1 0 0 1 1207.64 302.09)" class="st3 st10 st6">a</text>
	<text transform="matrix(1 0 0 1 1226.21 302.09)" class="st3 st10 st6">r </text>
	<text transform="matrix(1 0 0 1 1242.53 302.09)" class="st3 st10 st6">b</text>
	<text transform="matrix(1 0 0 1 1261.24 302.09)" class="st3 st10 st6">u</text>
	<text transform="matrix(1 0 0 1 1277.37 302.09)" class="st3 st10 st6">s</text>
	<text transform="matrix(1 0 0 1 1290.4301 302.09)" class="st3 st10 st6">i</text>
	<text transform="matrix(1 0 0 1 1296.11 302.09)" class="st3 st10 st6">n</text>
	<text transform="matrix(1 0 0 1 1312.48 302.09)" class="st3 st10 st6">e</text>
	<text transform="matrix(1 0 0 1 1329.35 302.09)" class="st3 st10 st6">s</text>
	<text transform="matrix(1 0 0 1 1342.48 302.09)" class="st3 st10 st6">s </text>
	<text transform="matrix(1 0 0 1 1363 302.09)" class="st3 st10 st6">ap</text>
	<text transform="matrix(1 0 0 1 1400.15 302.09)" class="st3 st10 st6">p</text>
	<text transform="matrix(1 0 0 1 1418.42 302.09)" class="st3 st10 st6">s </text>
	<text transform="matrix(1 0 0 1 1438.9399 302.09)" class="st3 st10 st6">w</text>
	<text transform="matrix(1 0 0 1 1461.24 302.09)" class="st3 st10 st6">i</text>
	<text transform="matrix(1 0 0 1 1466.78 302.09)" class="st3 st10 st6">t</text>
	<text transform="matrix(1 0 0 1 1477.0801 302.09)" class="st3 st10 st6">h </text>
	<text transform="matrix(1 0 0 1 887.77 350.09)" class="st3 st10 st6">o</text>
	<text transform="matrix(1 0 0 1 905.53 350.09)" class="st3 st10 st6">u</text>
	<text transform="matrix(1 0 0 1 921.65 350.09)" class="st3 st10 st6 st11">t</text>
	<text transform="matrix(1 0 0 1 929.81 350.09)" class="st3 st10 st6">-</text>
	<text transform="matrix(1 0 0 1 944.44 350.09)" class="st3 st10 st6">o</text>
	<text transform="matrix(1 0 0 1 961.59 350.09)" class="st3 st10 st6 st9">f</text>
	<text transform="matrix(1 0 0 1 968.73 350.09)" class="st3 st10 st6 st9">-</text>
	<text transform="matrix(1 0 0 1 982.19 350.09)" class="st3 st10 st6">t</text>
	<text transform="matrix(1 0 0 1 992.49 350.09)" class="st3 st10 st6">h</text>
	<text transform="matrix(1 0 0 1 1008.86 350.09)" class="st3 st10 st6">e</text>
	<text transform="matrix(1 0 0 1 1025.41 350.09)" class="st3 st10 st6 st8">-</text>
	<text transform="matrix(1 0 0 1 1039.8301 350.09)" class="st3 st10 st6">b</text>
	<text transform="matrix(1 0 0 1 1058.42 350.09)" class="st3 st10 st6 st8">o</text>
	<text transform="matrix(1 0 0 1 1075.21 350.09)" class="st3 st10 st6">x </text>
	<text transform="matrix(1 0 0 1 1097.41 350.09)" class="st3 st10 st6">i</text>
	<text transform="matrix(1 0 0 1 1103.0901 350.09)" class="st3 st10 st6">n</text>
	<text transform="matrix(1 0 0 1 1118.97 350.09)" class="st3 st10 st6 st8">t</text>
	<text transform="matrix(1 0 0 1 1128.85 350.09)" class="st3 st10 st6">e</text>
	<text transform="matrix(1 0 0 1 1145.96 350.09)" class="st3 st10 st6">g</text>
	<text transform="matrix(1 0 0 1 1164.53 350.09)" class="st3 st10 st6 st8">r</text>
	<text transform="matrix(1 0 0 1 1172.71 350.09)" class="st3 st10 st6">a</text>
	<text transform="matrix(1 0 0 1 1191.16 350.09)" class="st3 st10 st6">t</text>
	<text transform="matrix(1 0 0 1 1201.46 350.09)" class="st3 st10 st6">i</text>
	<text transform="matrix(1 0 0 1 1207.0801 350.09)" class="st3 st10 st6">o</text>
	<text transform="matrix(1 0 0 1 1224.77 350.09)" class="st3 st10 st6">n</text>
	<text transform="matrix(1 0 0 1 1240.95 350.09)" class="st3 st10 st6">s </text>
	<text transform="matrix(1 0 0 1 1261.47 350.09)" class="st3 st10 st6">i</text>
	<text transform="matrix(1 0 0 1 1267.15 350.09)" class="st3 st10 st6">n </text>
	<text transform="matrix(1 0 0 1 1290.79 350.09)" class="st3 st10 st6">t</text>
	<text transform="matrix(1 0 0 1 1301.0901 350.09)" class="st3 st10 st6">h</text>
	<text transform="matrix(1 0 0 1 1317.45 350.09)" class="st3 st10 st6">e </text>
	<text transform="matrix(1 0 0 1 1341.87 350.09)" class="st3 st10 st6">S</text>
	<text transform="matrix(1 0 0 1 1358.65 350.09)" class="st3 st10 st6">e</text>
	<text transform="matrix(1 0 0 1 1375.74 350.09)" class="st3 st10 st6">r</text>
	<text transform="matrix(1 0 0 1 1385.45 350.09)" class="st3 st10 st6">v</text>
	<text transform="matrix(1 0 0 1 1400.26 350.09)" class="st3 st10 st6">i</text>
	<text transform="matrix(1 0 0 1 1405.88 350.09)" class="st3 st10 st6">c</text>
	<text transform="matrix(1 0 0 1 1421.8301 350.09)" class="st3 st10 st6">e</text>
	<text transform="matrix(1 0 0 1 1438.97 350.09)" class="st3 st10 st6">N</text>
	<text transform="matrix(1 0 0 1 1458.92 350.09)" class="st3 st10 st6 st8">o</text>
	<text transform="matrix(1 0 0 1 1475.98 350.09)" class="st3 st10 st6">w </text>
	<text transform="matrix(1 0 0 1 1505.98 350.09)" class="st3 st10 st6">s</text>
	<text transform="matrix(1 0 0 1 1519.1799 350.09)" class="st3 st10 st6 st8">t</text>
	<text transform="matrix(1 0 0 1 1529.01 350.09)" class="st3 st10 st6">o</text>
	<text transform="matrix(1 0 0 1 1546.7 350.09)" class="st3 st10 st6 st8">r</text>
	<text transform="matrix(1 0 0 1 1554.92 350.09)" class="st3 st10 st6">e</text>
	<text transform="matrix(1 0 0 1 1571.5601 350.09)" class="st3 st10 st6">.</text>
</g>
</svg>
