<?xml version="1.0" encoding="utf-8"?>
<!-- Generator: Adobe Illustrator 24.1.0, SVG Export Plug-In . SVG Version: 6.00 Build 0)  -->
<svg version="1.1" id="Layer_1" xmlns="http://www.w3.org/2000/svg" xmlns:xlink="http://www.w3.org/1999/xlink" x="0px" y="0px"
	 viewBox="0 0 1644.7 650.5" style="enable-background:new 0 0 1644.7 650.5;" xml:space="preserve">
<style type="text/css">
	.st0{fill:none;stroke:#68A1AF;stroke-width:10;stroke-linejoin:round;}
	.st1{fill:none;stroke:#68A1AF;stroke-width:9.94;stroke-linejoin:round;}
	.st2{fill:#FFFFFF;}
	.st3{fill:#293E40;}
	.st4{enable-background:new    ;}
	.st5{fill:#3B5653;}
</style>
<g id="arrow_shaft_1">
	<line class="st0" x1="796.8" y1="440.5" x2="796.8" y2="0"/>
</g>
<g id="bracket">
	<path class="st1" d="M1530.1,527.9v-53.6l0,0c0-19.2-15.6-34.8-34.8-34.8H103.6c-19.2,0-34.8,15.6-34.8,34.8l0,0v53.6"/>
	<path class="st1" d="M1317.9,527.9v-53.6l0,0c0-19.2-15.6-34.8-34.8-34.8l0,0H311c-19.2,0-34.8,15.6-34.8,34.8l0,0v53.6"/>
	<path class="st1" d="M1112.3,527.9v-53.6l0,0c0-19.2-15.6-34.8-34.8-34.8l0,0l-559.7,0.1c-19.2,0-34.8,15.6-34.8,34.8l0,0V528"/>
	<path class="st1" d="M901.4,527.9v-53.6l0,0c0-19.2-15.6-34.8-34.8-34.8l0,0L727,439.7c-19.2,0-34.8,15.6-34.8,34.8l0,0V528"/>
</g>
<g id="nodes">
	<g id="Ellipse_2">
		<ellipse class="st2" cx="69" cy="551.6" rx="48" ry="48"/>
	</g>
	<g id="Ellipse_2_copy_8">
		<ellipse transform="matrix(0.7071 -0.7071 0.7071 0.7071 77.653 627.8962)" class="st3" cx="796.8" cy="220.2" rx="48" ry="48"/>
	</g>
	<g id="Ellipse_2_copy">
		<circle class="st2" cx="276.9" cy="551.6" r="48"/>
	</g>
	<g id="Ellipse_2_copy_2">
		
			<ellipse transform="matrix(0.9239 -0.3827 0.3827 0.9239 -94.6252 627.6814)" class="st2" cx="1530.4" cy="551.7" rx="48.1" ry="48"/>
	</g>
	<g id="Ellipse_2_copy_3">
		<circle class="st2" cx="485.2" cy="551.6" r="48"/>
	</g>
	<g id="Ellipse_2_copy_4">
		<circle class="st2" cx="694.1" cy="551.6" r="48"/>
	</g>
	<g id="Ellipse_2_copy_5">
		<circle class="st2" cx="902" cy="551.6" r="48"/>
	</g>
	<g id="Ellipse_2_copy_6">
		
			<ellipse transform="matrix(0.9184 -0.3957 0.3957 0.9184 -127.6125 484.5687)" class="st2" cx="1110.8" cy="551.6" rx="48.1" ry="48"/>
	</g>
	<g id="Ellipse_2_copy_7">
		
			<ellipse transform="matrix(0.9184 -0.3957 0.3957 0.9184 -110.6397 566.8347)" class="st2" cx="1318.7" cy="551.6" rx="48.1" ry="48"/>
	</g>
</g>
<g id="labels">
	<g id="Integration_Hub">
		<g class="st4">
			<path class="st5" d="M891.5,231.2v-21h4.1v21H891.5z"/>
		</g>
		<g class="st4">
			<path class="st5" d="M908.2,215.8c1.7,0,3,0.5,4,1.7c1.1,1.1,1.6,2.6,1.6,4.6v9.2H910v-8.7c0-1-0.3-1.7-0.8-2.3
				c-0.5-0.5-1.3-0.8-2.2-0.8c-1,0-1.8,0.3-2.4,0.9s-0.9,1.6-0.9,2.8v8.1h-3.9v-15h3.9v1.7C904.6,216.5,906.1,215.8,908.2,215.8z"/>
		</g>
		<g class="st4">
			<path class="st5" d="M926,216.2v3.7h-3.4v6.2c0,0.5,0.1,0.9,0.4,1.1c0.3,0.2,0.6,0.4,1.1,0.4s1.1,0,1.9,0v3.5
				c-2.6,0.3-4.5,0.1-5.6-0.7s-1.7-2.2-1.7-4.3v-6.2h-2.6v-3.7h2.6v-3l3.9-1.2v4.2H926z"/>
		</g>
		<g class="st4">
			<path class="st5" d="M943.1,225.3h-11.3c0.5,1.9,1.9,2.8,4.2,2.8c1.5,0,2.6-0.5,3.4-1.5l3.1,1.8c-1.5,2.1-3.7,3.2-6.5,3.2
				c-2.5,0-4.5-0.8-6-2.2s-2.2-3.4-2.2-5.7c0-2.2,0.7-4.1,2.2-5.6s3.4-2.3,5.7-2.3c2.2,0,4,0.8,5.4,2.3s2.2,3.4,2.2,5.6
				C943.3,224.1,943.2,224.6,943.1,225.3z M931.8,222.3h7.7c-0.2-1-0.7-1.7-1.3-2.2c-0.7-0.5-1.5-0.8-2.4-0.8c-1,0-1.9,0.3-2.6,0.8
				C932.4,220.6,932,221.3,931.8,222.3z"/>
		</g>
		<g class="st4">
			<path class="st5" d="M956.3,218v-1.9h3.8v14.3c0,2.3-0.8,4.1-2.3,5.3s-3.4,1.8-5.5,1.8c-3.4,0-5.8-1.2-7.1-3.7l3.3-1.9
				c0.7,1.4,2,2.1,3.9,2.1c1.2,0,2.2-0.3,2.9-1s1-1.5,1-2.7v-1.6c-1.1,1.5-2.7,2.3-4.8,2.3s-3.9-0.7-5.3-2.2
				c-1.4-1.5-2.1-3.3-2.1-5.5c0-2.1,0.7-3.9,2.2-5.4c1.4-1.5,3.2-2.2,5.3-2.2C953.6,215.8,955.2,216.5,956.3,218z M955.2,226.4
				c0.8-0.8,1.2-1.8,1.2-3s-0.4-2.2-1.2-2.9c-0.8-0.8-1.8-1.2-3-1.2s-2.2,0.4-3,1.2c-0.8,0.7-1.2,1.7-1.2,2.9s0.4,2.2,1.2,3
				s1.8,1.2,3,1.2C953.4,227.6,954.4,227.2,955.2,226.4z"/>
		</g>
		<g class="st4">
			<path class="st5" d="M965.7,216.2v2.6c0.3-0.9,0.9-1.7,1.7-2.1c0.8-0.5,1.8-0.7,2.8-0.7v4.3c-1.2-0.2-2.2,0.1-3.2,0.7
				c-0.9,0.6-1.4,1.6-1.4,3.1v7.2h-3.9v-15h4V216.2z"/>
		</g>
		<g class="st4">
			<path class="st5" d="M985.1,217.9v-1.8h3.9v15h-3.9v-1.8c-1.2,1.5-2.8,2.2-4.9,2.2c-2,0-3.7-0.8-5.2-2.3
				c-1.4-1.5-2.1-3.4-2.1-5.6c0-2.2,0.7-4.1,2.1-5.6c1.4-1.5,3.2-2.3,5.2-2.3C982.3,215.8,983.9,216.5,985.1,217.9z M978,226.7
				c0.8,0.8,1.8,1.2,3,1.2s2.2-0.4,3-1.2s1.2-1.8,1.2-3.1s-0.4-2.2-1.2-3s-1.8-1.2-3-1.2s-2.2,0.4-3,1.2s-1.2,1.8-1.2,3
				S977.2,225.9,978,226.7z"/>
		</g>
		<g class="st4">
			<path class="st5" d="M998.6,216.2v3.7h-3.4v6.2c0,0.5,0.1,0.9,0.4,1.1c0.3,0.2,0.6,0.4,1.1,0.4s1.1,0,1.9,0v3.5
				c-2.6,0.3-4.5,0.1-5.6-0.7s-1.7-2.2-1.7-4.3v-6.2h-2.6v-3.7h2.6v-3l3.9-1.2v4.2H998.6z"/>
		</g>
		<g class="st4">
			<path class="st5" d="M1003.1,214.4c-0.6,0-1.2-0.2-1.7-0.7s-0.7-1-0.7-1.7c0-0.6,0.2-1.2,0.7-1.7s1-0.7,1.7-0.7s1.2,0.2,1.7,0.7
				s0.7,1,0.7,1.7c0,0.6-0.2,1.2-0.7,1.7C1004.4,214.1,1003.8,214.4,1003.1,214.4z M1005.1,231.2h-3.9v-15h3.9V231.2z"/>
		</g>
		<g class="st4">
			<path class="st5" d="M1021.5,229.3c-1.5,1.5-3.4,2.3-5.6,2.3s-4.1-0.8-5.6-2.3s-2.3-3.4-2.3-5.6c0-2.2,0.8-4.1,2.3-5.6
				s3.4-2.3,5.6-2.3s4.1,0.8,5.6,2.3s2.3,3.4,2.3,5.6C1023.8,225.9,1023,227.8,1021.5,229.3z M1012.9,226.6c0.8,0.8,1.8,1.2,2.9,1.2
				s2.1-0.4,2.9-1.2c0.8-0.8,1.2-1.8,1.2-3s-0.4-2.2-1.2-3s-1.8-1.2-2.9-1.2s-2.1,0.4-2.9,1.2c-0.8,0.8-1.1,1.8-1.1,3
				C1011.8,224.9,1012.2,225.9,1012.9,226.6z"/>
		</g>
		<g class="st4">
			<path class="st5" d="M1034.3,215.8c1.7,0,3,0.5,4.1,1.7c1.1,1.1,1.6,2.6,1.6,4.6v9.2h-3.9v-8.7c0-1-0.3-1.7-0.8-2.3
				c-0.5-0.5-1.3-0.8-2.2-0.8c-1,0-1.8,0.3-2.4,0.9s-0.9,1.6-0.9,2.8v8.1h-3.9v-15h3.9v1.7C1030.8,216.5,1032.3,215.8,1034.3,215.8z
				"/>
		</g>
		<g class="st4">
			<path class="st5" d="M1063.1,218.5v-8.3h4.1v21h-4.1v-8.7h-7.8v8.7h-4.1v-21h4.1v8.3H1063.1z"/>
		</g>
		<g class="st4">
			<path class="st5" d="M1083,224.3v-8.1h3.9v15h-3.9v-1.7c-0.9,1.4-2.4,2.1-4.5,2.1c-1.6,0-3-0.5-4.1-1.7c-1.1-1.1-1.6-2.6-1.6-4.6
				v-9.2h3.9v8.7c0,1,0.3,1.7,0.8,2.3c0.5,0.5,1.3,0.8,2.2,0.8c1,0,1.8-0.3,2.4-0.9S1083,225.5,1083,224.3z"/>
		</g>
		<g class="st4">
			<path class="st5" d="M1099.3,215.8c2,0,3.7,0.8,5.2,2.3c1.4,1.5,2.2,3.4,2.2,5.6c0,2.2-0.7,4.1-2.2,5.6c-1.4,1.5-3.1,2.3-5.2,2.3
				s-3.7-0.7-4.9-2.2v1.8h-3.9v-21h3.9v7.8C1095.5,216.5,1097.2,215.8,1099.3,215.8z M1095.6,226.7c0.8,0.8,1.8,1.2,3,1.2
				s2.2-0.4,3-1.2s1.2-1.8,1.2-3.1s-0.4-2.2-1.2-3c-0.8-0.8-1.8-1.2-3-1.2s-2.2,0.4-3,1.2s-1.2,1.8-1.2,3S1094.8,225.9,1095.6,226.7
				z"/>
		</g>
	</g>
	<g id="Office_365">
		<g class="st4">
			<path class="st5" d="M19.6,639.8c-2.1,2.1-4.7,3.2-7.7,3.2s-5.6-1-7.7-3.2C2,637.7,1,635.1,1,632.1c0-3.1,1-5.6,3.1-7.7
				c2.1-2.1,4.7-3.2,7.7-3.2s5.6,1.1,7.7,3.2c2.1,2.1,3.2,4.7,3.2,7.7S21.7,637.7,19.6,639.8z M7,637c1.3,1.3,2.9,1.9,4.8,1.9
				s3.5-0.6,4.8-1.9c1.3-1.3,2-3,2-5s-0.7-3.6-2-5c-1.3-1.3-2.9-2-4.8-2s-3.5,0.7-4.8,2s-1.9,3-1.9,5S5.7,635.7,7,637z"/>
		</g>
		<g class="st4">
			<path class="st5" d="M38.4,627.6h8.3v15h-3.9v-11.3h-4.4v11.3h-3.9v-11.3h-4.4v11.3h-3.9v-11.3H24v-3.7h2.2v-0.2
				c0-2.1,0.6-3.8,1.8-4.8c1.2-1.1,2.9-1.6,5.3-1.4v3.7c-2.1-0.1-3.2,0.7-3.2,2.5v0.2h4.4v-0.5c0-4.2,2.3-6.3,7-6.3
				c1,0,2.2,0.1,3.5,0.4v3.5c-1.5-0.2-2.7-0.2-3.5-0.2c-1.1,0-1.9,0.2-2.4,0.6c-0.5,0.4-0.8,1-0.8,2v0.5H38.4z"/>
		</g>
		<g class="st4">
			<path class="st5" d="M57,643c-2.3,0-4.2-0.8-5.7-2.3s-2.2-3.4-2.2-5.6c0-2.2,0.8-4.1,2.2-5.6c1.5-1.5,3.4-2.3,5.7-2.3
				c1.5,0,2.8,0.3,4,1s2.1,1.6,2.7,2.8l-3.3,2c-0.3-0.6-0.8-1.1-1.4-1.5c-0.6-0.4-1.3-0.5-2.1-0.5c-1.2,0-2.1,0.4-2.9,1.2
				c-0.8,0.8-1.1,1.8-1.1,3s0.4,2.1,1.1,2.9c0.8,0.8,1.7,1.1,2.9,1.1c0.8,0,1.5-0.2,2.1-0.5s1.1-0.8,1.4-1.5l3.4,1.9
				c-0.7,1.2-1.6,2.2-2.8,2.9S58.5,643,57,643z"/>
		</g>
		<g class="st4">
			<path class="st5" d="M80,636.6H68.7c0.5,1.9,1.9,2.8,4.2,2.8c1.5,0,2.6-0.5,3.4-1.5l3.1,1.8c-1.5,2.1-3.7,3.2-6.5,3.2
				c-2.5,0-4.5-0.8-6-2.2s-2.2-3.4-2.2-5.7c0-2.2,0.7-4.1,2.2-5.6s3.4-2.3,5.7-2.3c2.2,0,4,0.8,5.4,2.3s2.2,3.4,2.2,5.6
				C80.1,635.5,80.1,636,80,636.6z M68.6,633.6h7.6c-0.2-1-0.7-1.7-1.3-2.2c-0.7-0.5-1.5-0.8-2.4-0.8c-1,0-1.9,0.3-2.6,0.8
				C69.3,631.9,68.8,632.7,68.6,633.6z"/>
		</g>
		<g class="st4">
			<path class="st5" d="M102.5,625l-3.9,5.1c1.5,0.4,2.6,1.2,3.5,2.2s1.3,2.3,1.3,3.8c0,2.2-0.7,3.9-2.2,5.1
				c-1.4,1.2-3.2,1.8-5.3,1.8c-1.7,0-3.1-0.4-4.4-1.2s-2.2-1.9-2.8-3.3l3.5-2c0.5,1.6,1.7,2.4,3.7,2.4c1.1,0,1.9-0.3,2.5-0.8
				s0.9-1.2,0.9-2.1c0-0.9-0.3-1.5-0.9-2.1c-0.6-0.5-1.4-0.8-2.5-0.8H95l-1.6-2.4l4.1-5.4h-8.2v-3.9h13.2V625z"/>
		</g>
		<g class="st4">
			<path class="st5" d="M117.2,621.6l-4.7,6.8c2.2,0.1,3.9,0.8,5.3,2.1s2,3.1,2,5.2c0,2.1-0.7,3.9-2.1,5.3c-1.4,1.4-3.2,2-5.5,2
				c-2.2,0-4.1-0.7-5.5-2s-2.1-3.1-2.1-5.3c0-1.6,0.4-3,1.2-4.2l6.5-9.9L117.2,621.6L117.2,621.6z M115.8,635.7c0-1-0.3-1.8-1-2.4
				s-1.5-0.9-2.5-0.9s-1.9,0.3-2.5,0.9c-0.6,0.6-1,1.4-1,2.5c0,1,0.3,1.8,1,2.5c0.7,0.6,1.5,0.9,2.5,0.9s1.9-0.3,2.5-0.9
				S115.8,636.7,115.8,635.7z"/>
		</g>
		<g class="st4">
			<path class="st5" d="M126.5,629.2h2.2c2,0,3.7,0.6,5.1,1.8c1.4,1.2,2.1,2.9,2.1,5c0,2.2-0.7,3.9-2.2,5.1
				c-1.4,1.2-3.2,1.8-5.3,1.8c-1.7,0-3.2-0.4-4.5-1.2s-2.2-1.9-2.8-3.3l3.5-2.1c0.5,1.7,1.8,2.5,3.8,2.5c1.1,0,1.9-0.3,2.5-0.8
				s0.9-1.2,0.9-2.1c0-0.9-0.3-1.5-0.9-2.1c-0.6-0.5-1.4-0.8-2.4-0.8H122l0.8-11.7h11.9v3.9h-8.1L126.5,629.2z"/>
		</g>
	</g>
	<g id="Gmail">
		<g class="st4">
			<path class="st5" d="M247.6,631.3h10.5v1.6c0,3-1,5.4-2.9,7.3c-1.9,1.9-4.4,2.8-7.4,2.8c-3.2,0-5.9-1-8.1-3.2
				c-2.1-2.1-3.2-4.7-3.2-7.7c0-3.1,1-5.7,3.1-7.8s4.7-3.2,7.9-3.2c1.9,0,3.7,0.4,5.3,1.3c1.6,0.9,2.9,2.1,3.8,3.6l-3.5,2
				c-0.5-0.9-1.3-1.6-2.3-2.1s-2.1-0.8-3.4-0.8c-2,0-3.7,0.7-5,2s-1.9,2.9-1.9,5c0,2,0.6,3.6,1.9,4.9c1.3,1.3,3,1.9,5.2,1.9
				c1.6,0,2.9-0.3,4-1s1.8-1.7,2.2-2.9h-6.4v-3.7H247.6z"/>
		</g>
		<g class="st4">
			<path class="st5" d="M277.2,627.1c1.7,0,3.1,0.6,4.1,1.7c1,1.1,1.5,2.6,1.5,4.5v9.2H279v-9c0-0.9-0.2-1.6-0.7-2.1
				c-0.4-0.5-1.1-0.8-1.9-0.8c-0.9,0-1.6,0.3-2.1,0.9c-0.5,0.6-0.7,1.4-0.7,2.5v8.4h-3.9v-9c0-0.9-0.2-1.6-0.7-2.1
				c-0.4-0.5-1.1-0.8-1.9-0.8c-0.9,0-1.5,0.3-2.1,0.9c-0.5,0.6-0.8,1.4-0.8,2.5v8.4h-3.9v-15h3.9v1.6c0.9-1.3,2.3-2,4.2-2
				c1.9,0,3.2,0.7,4.1,2.2C273.7,627.9,275.2,627.1,277.2,627.1z"/>
		</g>
		<g class="st4">
			<path class="st5" d="M297.2,629.3v-1.8h3.9v15h-3.9v-1.8c-1.2,1.5-2.8,2.2-4.9,2.2c-2,0-3.7-0.8-5.2-2.3
				c-1.4-1.5-2.1-3.4-2.1-5.6c0-2.2,0.7-4.1,2.1-5.6s3.2-2.3,5.2-2.3C294.4,627.1,296,627.9,297.2,629.3z M290,638.1
				c0.8,0.8,1.8,1.2,3,1.2s2.2-0.4,3-1.2s1.2-1.8,1.2-3.1s-0.4-2.2-1.2-3c-0.8-0.8-1.8-1.2-3-1.2s-2.2,0.4-3,1.2s-1.2,1.8-1.2,3
				S289.2,637.3,290,638.1z"/>
		</g>
		<g class="st4">
			<path class="st5" d="M306.1,625.8c-0.6,0-1.2-0.2-1.7-0.7s-0.7-1-0.7-1.7c0-0.6,0.2-1.2,0.7-1.7s1-0.7,1.7-0.7s1.2,0.2,1.7,0.7
				s0.7,1,0.7,1.7c0,0.6-0.2,1.2-0.7,1.7S306.8,625.8,306.1,625.8z M308,642.6h-3.9v-15h3.9V642.6z"/>
		</g>
		<g class="st4">
			<path class="st5" d="M315.1,642.6h-3.9v-21.9h3.9V642.6z"/>
		</g>
	</g>
	<g id="Zoom">
		<g class="st4">
			<path class="st5" d="M463.6,624.8l-8.7,13.8h8.9v4h-14.2v-3.3l8.7-13.7h-8.5v-4h13.8L463.6,624.8L463.6,624.8z"/>
		</g>
		<g class="st4">
			<path class="st5" d="M478.5,640.7c-1.5,1.5-3.4,2.3-5.6,2.3s-4.1-0.8-5.6-2.3s-2.3-3.4-2.3-5.6c0-2.2,0.8-4.1,2.3-5.6
				s3.4-2.3,5.6-2.3s4.1,0.8,5.6,2.3s2.3,3.4,2.3,5.6S480.1,639.2,478.5,640.7z M470,638c0.8,0.8,1.8,1.2,2.9,1.2
				c1.2,0,2.1-0.4,2.9-1.2s1.2-1.8,1.2-3s-0.4-2.2-1.2-3c-0.8-0.8-1.8-1.2-2.9-1.2c-1.2,0-2.1,0.4-2.9,1.2s-1.1,1.8-1.1,3
				C468.8,636.2,469.2,637.2,470,638z"/>
		</g>
		<g class="st4">
			<path class="st5" d="M495.9,640.7c-1.5,1.5-3.4,2.3-5.6,2.3s-4.1-0.8-5.6-2.3s-2.3-3.4-2.3-5.6c0-2.2,0.8-4.1,2.3-5.6
				s3.4-2.3,5.6-2.3s4.1,0.8,5.6,2.3s2.3,3.4,2.3,5.6C498.2,637.3,497.4,639.2,495.9,640.7z M487.3,638c0.8,0.8,1.8,1.2,2.9,1.2
				c1.2,0,2.1-0.4,2.9-1.2s1.2-1.8,1.2-3s-0.4-2.2-1.2-3c-0.8-0.8-1.8-1.2-2.9-1.2c-1.2,0-2.1,0.4-2.9,1.2s-1.1,1.8-1.1,3
				C486.2,636.2,486.6,637.2,487.3,638z"/>
		</g>
		<g class="st4">
			<path class="st5" d="M517.1,627.1c1.7,0,3.1,0.6,4.1,1.7c1,1.1,1.5,2.6,1.5,4.5v9.2h-3.9v-9c0-0.9-0.2-1.6-0.7-2.1
				c-0.4-0.5-1.1-0.8-1.9-0.8c-0.9,0-1.6,0.3-2.1,0.9c-0.5,0.6-0.7,1.4-0.7,2.5v8.4h-3.9v-9c0-0.9-0.2-1.6-0.7-2.1
				c-0.4-0.5-1.1-0.8-1.9-0.8c-0.9,0-1.5,0.3-2.1,0.9c-0.5,0.6-0.8,1.4-0.8,2.5v8.4h-3.9v-15h3.9v1.6c0.9-1.3,2.3-2,4.2-2
				c1.9,0,3.2,0.7,4.1,2.2C513.6,627.9,515.1,627.1,517.1,627.1z"/>
		</g>
	</g>
	<g id="Okta">
		<g class="st4">
			<path class="st5" d="M682.3,639.8c-2.1,2.1-4.7,3.2-7.7,3.2s-5.6-1-7.7-3.2c-2.1-2.1-3.1-4.7-3.1-7.8s1-5.6,3.1-7.7
				c2.1-2.1,4.7-3.2,7.7-3.2s5.6,1.1,7.7,3.2c2.1,2.1,3.2,4.7,3.2,7.7S684.4,637.7,682.3,639.8z M669.8,637c1.3,1.3,2.9,1.9,4.8,1.9
				s3.5-0.6,4.8-1.9c1.3-1.3,2-3,2-5s-0.7-3.6-2-5c-1.3-1.3-2.9-2-4.8-2s-3.5,0.7-4.8,2s-1.9,3-1.9,5S668.4,635.7,669.8,637z"/>
		</g>
		<g class="st4">
			<path class="st5" d="M695.6,635l6.2,7.6h-4.5l-5.5-6.8v6.8H688v-21h3.9v12.6l5.2-6.6h4.6L695.6,635z"/>
		</g>
		<g class="st4">
			<path class="st5" d="M712.5,627.6v3.7h-3.4v6.2c0,0.5,0.1,0.9,0.4,1.1c0.3,0.2,0.6,0.4,1.1,0.4s1.1,0,1.9,0v3.5
				c-2.6,0.3-4.5,0.1-5.6-0.7s-1.7-2.2-1.7-4.3v-6.2h-2.6v-3.7h2.6v-3l3.9-1.2v4.2H712.5z"/>
		</g>
		<g class="st4">
			<path class="st5" d="M726.2,629.3v-1.8h3.9v15h-3.9v-1.8c-1.2,1.5-2.8,2.2-4.9,2.2c-2,0-3.7-0.8-5.2-2.3
				c-1.4-1.5-2.1-3.4-2.1-5.6c0-2.2,0.7-4.1,2.1-5.6c1.4-1.5,3.2-2.3,5.2-2.3C723.4,627.1,725,627.9,726.2,629.3z M719,638.1
				c0.8,0.8,1.8,1.2,3,1.2s2.2-0.4,3-1.2s1.2-1.8,1.2-3.1s-0.4-2.2-1.2-3s-1.8-1.2-3-1.2s-2.2,0.4-3,1.2s-1.2,1.8-1.2,3
				S718.3,637.3,719,638.1z"/>
		</g>
	</g>
	<g id="GitHub">
		<g class="st4">
			<path class="st5" d="M869.7,631.3h10.5v1.6c0,3-1,5.4-2.9,7.3s-4.4,2.8-7.4,2.8c-3.2,0-5.9-1-8.1-3.2c-2.1-2.1-3.2-4.7-3.2-7.7
				c0-3.1,1-5.7,3.1-7.8s4.7-3.2,7.9-3.2c1.9,0,3.7,0.4,5.3,1.3s2.9,2.1,3.8,3.6l-3.5,2c-0.5-0.9-1.3-1.6-2.3-2.1s-2.1-0.8-3.4-0.8
				c-2,0-3.7,0.7-5,2s-1.9,2.9-1.9,5c0,2,0.6,3.6,2,4.9c1.3,1.3,3,1.9,5.2,1.9c1.6,0,2.9-0.3,4-1s1.8-1.7,2.2-2.9h-6.4v-3.7H869.7z"
				/>
		</g>
		<g class="st4">
			<path class="st5" d="M884.5,625.8c-0.6,0-1.2-0.2-1.7-0.7s-0.7-1-0.7-1.7c0-0.6,0.2-1.2,0.7-1.7s1-0.7,1.7-0.7s1.2,0.2,1.7,0.7
				s0.7,1,0.7,1.7c0,0.6-0.2,1.2-0.7,1.7S885.2,625.8,884.5,625.8z M886.5,642.6h-3.9v-15h3.9V642.6z"/>
		</g>
		<g class="st4">
			<path class="st5" d="M898.1,627.6v3.7h-3.4v6.2c0,0.5,0.1,0.9,0.4,1.1c0.3,0.2,0.6,0.4,1.1,0.4s1.1,0,1.9,0v3.5
				c-2.6,0.3-4.5,0.1-5.6-0.7s-1.7-2.2-1.7-4.3v-6.2h-2.6v-3.7h2.6v-3l3.9-1.2v4.2H898.1z"/>
		</g>
		<g class="st4">
			<path class="st5" d="M913,629.9v-8.3h4.1v21H913v-8.7h-7.8v8.7H901v-21h4.1v8.3H913z"/>
		</g>
		<g class="st4">
			<path class="st5" d="M930.5,635.7v-8.1h3.9v15h-3.9v-1.7c-0.9,1.4-2.4,2.1-4.5,2.1c-1.6,0-3-0.5-4.1-1.7
				c-1.1-1.1-1.6-2.6-1.6-4.6v-9.2h3.9v8.7c0,1,0.3,1.7,0.8,2.3c0.5,0.5,1.3,0.8,2.2,0.8c1,0,1.8-0.3,2.4-0.9
				S930.5,636.9,930.5,635.7z"/>
		</g>
		<g class="st4">
			<path class="st5" d="M946.3,627.1c2,0,3.7,0.8,5.2,2.3c1.4,1.5,2.2,3.4,2.2,5.6c0,2.2-0.7,4.1-2.2,5.6c-1.4,1.5-3.1,2.3-5.2,2.3
				c-2.1,0-3.7-0.7-4.9-2.2v1.8h-3.9v-21h3.9v7.8C942.5,627.9,944.2,627.1,946.3,627.1z M942.6,638.1c0.8,0.8,1.8,1.2,3,1.2
				s2.2-0.4,3-1.2s1.2-1.8,1.2-3.1s-0.4-2.2-1.2-3s-1.8-1.2-3-1.2s-2.2,0.4-3,1.2s-1.2,1.8-1.2,3S941.8,637.3,942.6,638.1z"/>
		</g>
	</g>
	<g id="WebEx">
		<g class="st4">
			<path class="st5" d="M1078.2,642.6h-4.7l-5.9-21h4.3l4,15.6l4.4-15.6h3.5l4.4,15.6l4-15.6h4.4l-5.9,21h-4.7l-4-13.9L1078.2,642.6
				z"/>
		</g>
		<g class="st4">
			<path class="st5" d="M1111.9,636.6h-11.3c0.5,1.9,1.9,2.8,4.2,2.8c1.5,0,2.6-0.5,3.4-1.5l3.1,1.8c-1.5,2.1-3.7,3.2-6.5,3.2
				c-2.5,0-4.5-0.8-6-2.2s-2.2-3.4-2.2-5.7c0-2.2,0.7-4.1,2.2-5.6s3.4-2.3,5.7-2.3c2.2,0,4,0.8,5.4,2.3s2.2,3.4,2.2,5.6
				C1112.1,635.5,1112,636,1111.9,636.6z M1100.5,633.6h7.6c-0.2-1-0.7-1.7-1.3-2.2c-0.7-0.5-1.5-0.8-2.4-0.8c-1,0-1.9,0.3-2.6,0.8
				C1101.2,631.9,1100.8,632.7,1100.5,633.6z"/>
		</g>
		<g class="st4">
			<path class="st5" d="M1123.1,627.1c2,0,3.7,0.8,5.2,2.3c1.4,1.5,2.2,3.4,2.2,5.6c0,2.2-0.7,4.1-2.2,5.6c-1.4,1.5-3.1,2.3-5.2,2.3
				s-3.7-0.7-4.9-2.2v1.8h-3.9v-21h3.9v7.8C1119.4,627.9,1121,627.1,1123.1,627.1z M1119.4,638.1c0.8,0.8,1.8,1.2,3,1.2
				s2.2-0.4,3-1.2s1.2-1.8,1.2-3.1s-0.4-2.2-1.2-3c-0.8-0.8-1.8-1.2-3-1.2s-2.2,0.4-3,1.2s-1.2,1.8-1.2,3S1118.7,637.3,1119.4,638.1
				z"/>
		</g>
		<g class="st4">
			<path class="st5" d="M1137.2,633.9v4.7h8.8v4h-13v-21h12.8v4h-8.7v4.5h8v3.9h-7.9V633.9z"/>
		</g>
		<g class="st4">
			<path class="st5" d="M1157.1,634.9l5.5,7.7h-4.5l-3.2-4.6l-3.3,4.6h-4.5l5.5-7.7l-5.2-7.3h4.5l3,4.2l3-4.2h4.4L1157.1,634.9z"/>
		</g>
		<g class="st4">
			<path class="st5" d="M1310.5,631.7c1.8,1.1,2.8,2.7,2.8,4.8c0,1.8-0.6,3.2-1.9,4.4c-1.3,1.1-2.8,1.7-4.6,1.7h-8.9v-21h8.3
				c1.8,0,3.3,0.6,4.5,1.7c1.2,1.1,1.9,2.5,1.9,4.2C1312.5,629.2,1311.8,630.6,1310.5,631.7z M1306.1,625.4h-4.1v4.6h4.1
				c0.6,0,1.2-0.2,1.6-0.7c0.4-0.4,0.6-1,0.6-1.7s-0.2-1.2-0.6-1.6C1307.3,625.6,1306.7,625.4,1306.1,625.4z M1301.9,638.7h4.8
				c0.7,0,1.3-0.2,1.7-0.7c0.5-0.5,0.7-1.1,0.7-1.8s-0.2-1.3-0.7-1.8s-1-0.7-1.7-0.7h-4.8V638.7z"/>
		</g>
		<g class="st4">
			<path class="st5" d="M1328.4,640.7c-1.5,1.5-3.4,2.3-5.6,2.3s-4.1-0.8-5.6-2.3s-2.3-3.4-2.3-5.6c0-2.2,0.8-4.1,2.3-5.6
				s3.4-2.3,5.6-2.3s4.1,0.8,5.6,2.3s2.3,3.4,2.3,5.6C1330.7,637.3,1330,639.2,1328.4,640.7z M1319.9,638c0.8,0.8,1.8,1.2,2.9,1.2
				c1.2,0,2.1-0.4,2.9-1.2s1.2-1.8,1.2-3s-0.4-2.2-1.2-3c-0.8-0.8-1.8-1.2-2.9-1.2c-1.2,0-2.1,0.4-2.9,1.2s-1.1,1.8-1.1,3
				C1318.7,636.2,1319.1,637.2,1319.9,638z"/>
		</g>
		<g class="st4">
			<path class="st5" d="M1340.6,634.9l5.5,7.7h-4.5l-3.2-4.6l-3.3,4.6h-4.5l5.5-7.7l-5.2-7.3h4.5l3,4.2l3-4.2h4.4L1340.6,634.9z"/>
		</g>
	</g>
	<g class="st4">
		<path class="st5" d="M1489.6,621.6h15.5v4h-5.7v17h-4.1v-17h-5.6v-4H1489.6z"/>
	</g>
	<g class="st4">
		<path class="st5" d="M1518.8,636.8l2.6-9.2h4.1l-4.8,15h-3.7l-2.8-9.1l-2.8,9.1h-3.7l-4.8-15h4.1l2.6,9.2l2.7-9.2h3.7
			L1518.8,636.8z"/>
	</g>
	<g class="st4">
		<path class="st5" d="M1528.9,625.8c-0.6,0-1.2-0.2-1.7-0.7s-0.7-1-0.7-1.7c0-0.6,0.2-1.2,0.7-1.7s1-0.7,1.7-0.7s1.2,0.2,1.7,0.7
			s0.7,1,0.7,1.7c0,0.6-0.2,1.2-0.7,1.7S1529.6,625.8,1528.9,625.8z M1530.9,642.6h-3.9v-15h3.9V642.6z"/>
	</g>
	<g class="st4">
		<path class="st5" d="M1537.9,642.6h-3.9v-21.9h3.9V642.6z"/>
	</g>
	<g class="st4">
		<path class="st5" d="M1545,642.6h-3.9v-21.9h3.9V642.6z"/>
	</g>
	<g class="st4">
		<path class="st5" d="M1550.1,625.8c-0.6,0-1.2-0.2-1.7-0.7s-0.7-1-0.7-1.7c0-0.6,0.2-1.2,0.7-1.7s1-0.7,1.7-0.7s1.2,0.2,1.7,0.7
			s0.7,1,0.7,1.7c0,0.6-0.2,1.2-0.7,1.7S1550.7,625.8,1550.1,625.8z M1552,642.6h-3.9v-15h3.9V642.6z"/>
	</g>
	<g class="st4">
		<path class="st5" d="M1567.8,640.7c-1.5,1.5-3.4,2.3-5.6,2.3s-4.1-0.8-5.6-2.3s-2.3-3.4-2.3-5.6c0-2.2,0.8-4.1,2.3-5.6
			s3.4-2.3,5.6-2.3s4.1,0.8,5.6,2.3s2.3,3.4,2.3,5.6C1570.1,637.3,1569.4,639.2,1567.8,640.7z M1559.3,638c0.8,0.8,1.8,1.2,2.9,1.2
			c1.2,0,2.1-0.4,2.9-1.2s1.2-1.8,1.2-3s-0.4-2.2-1.2-3c-0.8-0.8-1.8-1.2-2.9-1.2c-1.2,0-2.1,0.4-2.9,1.2s-1.1,1.8-1.1,3
			C1558.1,636.2,1558.5,637.2,1559.3,638z"/>
	</g>
</g>
<g id="Easily_integrate_to_popular_business_apps_with_out-of-the-box_i">
	<g class="st4">
		<path class="st3" d="M892.3,292.5v7.6h10.2v2h-12.3v-21h12.2v2h-10.1v7.4h9.3v2H892.3z"/>
	</g>
	<g class="st4">
		<path class="st3" d="M917.7,290v-2.9h2v15h-2v-2.9c-1.4,2.2-3.4,3.3-6.1,3.3c-2.1,0-4-0.8-5.5-2.3s-2.2-3.4-2.2-5.6
			s0.8-4.1,2.2-5.6c1.5-1.5,3.3-2.3,5.5-2.3C914.3,286.7,916.3,287.8,917.7,290z M907.5,298.8c1.1,1.1,2.5,1.7,4.2,1.7
			s3.1-0.6,4.2-1.7c1.1-1.2,1.7-2.6,1.7-4.2c0-1.7-0.6-3.1-1.7-4.2c-1.1-1.2-2.5-1.7-4.2-1.7s-3.1,0.6-4.2,1.7
			c-1.1,1.1-1.7,2.5-1.7,4.2C905.8,296.2,906.4,297.6,907.5,298.8z"/>
	</g>
	<g class="st4">
		<path class="st3" d="M924.8,291c0,1.2,1,2,3.1,2.6c0.6,0.1,1,0.2,1.1,0.3c0.2,0.1,0.5,0.2,1.1,0.3c0.5,0.2,0.9,0.3,1.1,0.4
			s0.5,0.3,0.9,0.6s0.6,0.5,0.8,0.8s0.3,0.6,0.5,1s0.2,0.8,0.2,1.2c0,1.3-0.5,2.3-1.5,3.1c-1,0.8-2.3,1.2-3.9,1.2
			c-1.4,0-2.6-0.3-3.6-0.9s-1.7-1.5-2.2-2.5l1.7-1c0.3,0.8,0.8,1.4,1.5,1.8c0.7,0.5,1.6,0.7,2.6,0.7s1.8-0.2,2.5-0.6
			c0.6-0.4,1-1,1-1.8c0-1.2-1-2-3.1-2.5c-0.6-0.1-1-0.2-1.1-0.3c-0.2,0-0.5-0.2-1.1-0.3c-0.5-0.2-0.9-0.3-1.1-0.4
			c-0.2-0.1-0.5-0.3-0.9-0.6c-0.4-0.2-0.7-0.5-0.8-0.8c-0.2-0.2-0.3-0.6-0.4-1c-0.1-0.4-0.2-0.8-0.2-1.2c0-1.2,0.5-2.2,1.4-3.1
			c1-0.8,2.2-1.2,3.7-1.2c1.2,0,2.3,0.3,3.2,0.8s1.6,1.3,2.1,2.2l-1.7,1c-0.6-1.4-1.8-2.1-3.6-2.1c-0.9,0-1.7,0.2-2.2,0.6
			C925.1,289.7,924.8,290.3,924.8,291z"/>
	</g>
	<g class="st4">
		<path class="st3" d="M938.7,282.5c0,0.4-0.1,0.7-0.4,1s-0.6,0.4-1,0.4s-0.7-0.1-1-0.4s-0.4-0.6-0.4-1s0.1-0.7,0.4-1s0.6-0.4,1-0.4
			s0.7,0.1,1,0.4S938.7,282.1,938.7,282.5z M938.3,302.1h-2v-15h2V302.1z"/>
	</g>
	<g class="st4">
		<path class="st3" d="M943.9,302.1h-2v-21.9h2V302.1z"/>
	</g>
	<g class="st4">
		<path class="st3" d="M953.6,299.7l4.9-12.6h2.1l-6.4,16.4c-0.6,1.5-1.4,2.7-2.5,3.5s-2.3,1.2-3.6,1.1v-1.9
			c1.8,0.2,3.2-0.8,4.1-3.1l0.4-0.9l-6.7-15.1h2.1L953.6,299.7z"/>
	</g>
	<g class="st4">
		<path class="st3" d="M972.3,282.5c0,0.4-0.1,0.7-0.4,1c-0.3,0.3-0.6,0.4-1,0.4s-0.7-0.1-1-0.4s-0.4-0.6-0.4-1s0.1-0.7,0.4-1
			c0.3-0.3,0.6-0.4,1-0.4s0.7,0.1,1,0.4C972.1,281.7,972.3,282.1,972.3,282.5z M971.8,302.1h-2v-15h2V302.1z"/>
	</g>
	<g class="st4">
		<path class="st3" d="M982.5,286.7c1.8,0,3.2,0.6,4.3,1.7s1.6,2.6,1.6,4.5v9.2h-2v-9.2c0-1.3-0.4-2.4-1.1-3.1
			c-0.7-0.7-1.7-1.1-3-1.1c-1.5,0-2.7,0.5-3.6,1.4c-0.9,0.9-1.3,2.3-1.3,4.2v7.9h-2v-15h2v2.3C978.6,287.6,980.3,286.7,982.5,286.7z
			"/>
	</g>
	<g class="st4">
		<path class="st3" d="M999.4,287.1v1.9H995v9.1c0,0.8,0.2,1.4,0.5,1.8s0.8,0.5,1.4,0.5c0.6,0,1.4,0,2.4,0v1.7
			c-2.1,0.3-3.7,0.2-4.8-0.5s-1.5-1.8-1.5-3.5V289h-3.1v-1.9h3.1v-3.6l2-0.6v4.2H999.4z"/>
	</g>
	<g class="st4">
		<path class="st3" d="M1008.2,286.7c2.2,0,4,0.8,5.4,2.4s2.1,3.4,2.1,5.5c0,0.1,0,0.4-0.1,0.9h-13.2c0.2,1.5,0.8,2.7,1.9,3.6
			c1.1,0.9,2.4,1.4,4,1.4c2.3,0,3.9-0.9,4.8-2.6l1.7,1c-0.7,1.1-1.6,1.9-2.7,2.5c-1.2,0.6-2.4,0.9-3.9,0.9c-2.4,0-4.3-0.7-5.8-2.2
			s-2.2-3.4-2.2-5.6c0-2.3,0.7-4.1,2.2-5.6C1004,287.5,1005.9,286.7,1008.2,286.7z M1008.2,288.6c-1.6,0-2.9,0.5-3.9,1.4
			c-1.1,0.9-1.7,2.1-1.9,3.6h11.2c-0.2-1.6-0.8-2.8-1.8-3.7C1010.8,289.1,1009.6,288.6,1008.2,288.6z"/>
	</g>
	<g class="st4">
		<path class="st3" d="M1031.3,290v-2.9h2v14.4c0,2.2-0.7,3.9-2.2,5.1s-3.2,1.9-5.3,1.9c-3.5,0-5.9-1.2-7.1-3.7l1.7-1
			c0.9,1.8,2.7,2.7,5.4,2.7c1.7,0,3.1-0.5,4.1-1.4s1.5-2.1,1.5-3.7v-2.3c-1.4,2.2-3.4,3.3-6.1,3.3c-2.1,0-4-0.8-5.5-2.3
			s-2.2-3.4-2.2-5.6s0.8-4.1,2.2-5.6c1.5-1.5,3.3-2.3,5.5-2.3C1027.9,286.7,1029.9,287.8,1031.3,290z M1021.2,298.8
			c1.1,1.1,2.5,1.7,4.2,1.7c1.7,0,3.1-0.6,4.2-1.7c1.1-1.2,1.7-2.6,1.7-4.2c0-1.7-0.6-3.1-1.7-4.2c-1.1-1.2-2.5-1.7-4.2-1.7
			s-3.1,0.6-4.2,1.7c-1.1,1.1-1.7,2.5-1.7,4.2C1019.5,296.2,1020,297.6,1021.2,298.8z"/>
	</g>
	<g class="st4">
		<path class="st3" d="M1039,287.1v2.5c0.9-1.8,2.5-2.7,4.7-2.7v1.9c-1.4,0-2.6,0.4-3.4,1.2c-0.9,0.8-1.3,2.1-1.3,3.7v8.3h-2v-15h2
			V287.1z"/>
	</g>
	<g class="st4">
		<path class="st3" d="M1058,290v-2.9h2v15h-2v-2.9c-1.4,2.2-3.4,3.3-6.1,3.3c-2.1,0-4-0.8-5.5-2.3s-2.2-3.4-2.2-5.6
			s0.8-4.1,2.2-5.6c1.5-1.5,3.3-2.3,5.5-2.3C1054.6,286.7,1056.7,287.8,1058,290z M1047.9,298.8c1.1,1.1,2.5,1.7,4.2,1.7
			s3.1-0.6,4.2-1.7c1.1-1.2,1.7-2.6,1.7-4.2c0-1.7-0.6-3.1-1.7-4.2c-1.1-1.2-2.5-1.7-4.2-1.7s-3.1,0.6-4.2,1.7s-1.7,2.5-1.7,4.2
			C1046.2,296.2,1046.8,297.6,1047.9,298.8z"/>
	</g>
	<g class="st4">
		<path class="st3" d="M1071.5,287.1v1.9h-4.3v9.1c0,0.8,0.2,1.4,0.5,1.8s0.8,0.5,1.4,0.5s1.4,0,2.4,0v1.7c-2.1,0.3-3.7,0.2-4.8-0.5
			c-1-0.6-1.5-1.8-1.5-3.5V289h-3.2v-1.9h3.2v-3.6l2-0.6v4.2H1071.5z"/>
	</g>
	<g class="st4">
		<path class="st3" d="M1080.4,286.7c2.2,0,4,0.8,5.4,2.4s2.1,3.4,2.1,5.5c0,0.1,0,0.4-0.1,0.9h-13.2c0.2,1.5,0.8,2.7,1.9,3.6
			s2.4,1.4,4,1.4c2.3,0,3.9-0.9,4.8-2.6l1.7,1c-0.7,1.1-1.6,1.9-2.7,2.5c-1.2,0.6-2.4,0.9-3.9,0.9c-2.4,0-4.3-0.7-5.8-2.2
			s-2.2-3.4-2.2-5.6c0-2.3,0.7-4.1,2.2-5.6C1076.2,287.5,1078.1,286.7,1080.4,286.7z M1080.4,288.6c-1.6,0-2.9,0.5-3.9,1.4
			s-1.7,2.1-1.9,3.6h11.2c-0.2-1.6-0.8-2.8-1.8-3.7C1082.9,289.1,1081.8,288.6,1080.4,288.6z"/>
	</g>
	<g class="st4">
		<path class="st3" d="M1105.8,287.1v1.9h-4.3v9.1c0,0.8,0.2,1.4,0.5,1.8s0.8,0.5,1.4,0.5s1.4,0,2.4,0v1.7c-2.1,0.3-3.7,0.2-4.8-0.5
			s-1.5-1.8-1.5-3.5V289h-3.1v-1.9h3.1v-3.6l2-0.6v4.2H1105.8z"/>
	</g>
	<g class="st4">
		<path class="st3" d="M1120.3,300.2c-1.5,1.5-3.4,2.2-5.6,2.2s-4.1-0.8-5.6-2.2c-1.5-1.5-2.3-3.4-2.3-5.6s0.8-4.1,2.3-5.6
			s3.4-2.3,5.6-2.3s4.1,0.8,5.6,2.3s2.3,3.4,2.3,5.6C1122.6,296.8,1121.8,298.7,1120.3,300.2z M1110.5,298.8
			c1.1,1.1,2.5,1.7,4.2,1.7s3.1-0.6,4.2-1.7c1.1-1.2,1.7-2.6,1.7-4.2c0-1.7-0.6-3.1-1.7-4.2c-1.1-1.2-2.5-1.7-4.2-1.7
			s-3.1,0.6-4.2,1.7s-1.7,2.5-1.7,4.2C1108.8,296.2,1109.4,297.6,1110.5,298.8z"/>
	</g>
	<g class="st4">
		<path class="st3" d="M1140.9,286.7c2.1,0,4,0.8,5.5,2.3s2.3,3.4,2.3,5.6s-0.8,4.1-2.3,5.6s-3.3,2.3-5.5,2.3
			c-2.7,0-4.7-1.1-6.1-3.3v8.9h-2v-21h2v2.9C1136.2,287.8,1138.2,286.7,1140.9,286.7z M1136.5,298.8c1.1,1.1,2.5,1.7,4.2,1.7
			s3.1-0.6,4.2-1.7c1.1-1.2,1.7-2.6,1.7-4.2c0-1.7-0.6-3.1-1.7-4.2c-1.1-1.2-2.5-1.7-4.2-1.7s-3.1,0.6-4.2,1.7s-1.7,2.5-1.7,4.2
			C1134.8,296.2,1135.4,297.6,1136.5,298.8z"/>
	</g>
	<g class="st4">
		<path class="st3" d="M1164,300.2c-1.5,1.5-3.4,2.2-5.6,2.2s-4.1-0.8-5.6-2.2c-1.5-1.5-2.3-3.4-2.3-5.6s0.8-4.1,2.3-5.6
			s3.4-2.3,5.6-2.3s4.1,0.8,5.6,2.3s2.3,3.4,2.3,5.6C1166.3,296.8,1165.5,298.7,1164,300.2z M1154.2,298.8c1.1,1.1,2.5,1.7,4.2,1.7
			s3.1-0.6,4.2-1.7c1.1-1.2,1.7-2.6,1.7-4.2c0-1.7-0.6-3.1-1.7-4.2c-1.1-1.2-2.5-1.7-4.2-1.7s-3.1,0.6-4.2,1.7s-1.7,2.5-1.7,4.2
			C1152.5,296.2,1153.1,297.6,1154.2,298.8z"/>
	</g>
	<g class="st4">
		<path class="st3" d="M1177.1,286.7c2.1,0,4,0.8,5.5,2.3s2.3,3.4,2.3,5.6s-0.8,4.1-2.3,5.6s-3.3,2.3-5.5,2.3
			c-2.7,0-4.7-1.1-6.1-3.3v8.9h-2v-21h2v2.9C1172.5,287.8,1174.5,286.7,1177.1,286.7z M1172.8,298.8c1.1,1.1,2.5,1.7,4.2,1.7
			s3.1-0.6,4.2-1.7c1.1-1.2,1.7-2.6,1.7-4.2c0-1.7-0.6-3.1-1.7-4.2c-1.1-1.2-2.5-1.7-4.2-1.7s-3.1,0.6-4.2,1.7s-1.7,2.5-1.7,4.2
			C1171.1,296.2,1171.7,297.6,1172.8,298.8z"/>
	</g>
	<g class="st4">
		<path class="st3" d="M1198.4,295v-7.9h2v15h-2v-2.3c-1.1,1.8-2.8,2.7-5,2.7c-1.8,0-3.2-0.6-4.3-1.7c-1.1-1.1-1.6-2.6-1.6-4.5v-9.2
			h2v9.2c0,1.3,0.4,2.4,1.1,3.1s1.7,1.1,3,1.1c1.5,0,2.7-0.5,3.6-1.4S1198.4,296.8,1198.4,295z"/>
	</g>
	<g class="st4">
		<path class="st3" d="M1206,302.1h-2v-21.9h2V302.1z"/>
	</g>
	<g class="st4">
		<path class="st3" d="M1222.6,290v-2.9h2v15h-2v-2.9c-1.4,2.2-3.4,3.3-6.1,3.3c-2.1,0-4-0.8-5.5-2.3s-2.2-3.4-2.2-5.6
			s0.8-4.1,2.2-5.6c1.5-1.5,3.3-2.3,5.5-2.3C1219.2,286.7,1221.3,287.8,1222.6,290z M1212.5,298.8c1.1,1.1,2.5,1.7,4.2,1.7
			s3.1-0.6,4.2-1.7c1.1-1.2,1.7-2.6,1.7-4.2c0-1.7-0.6-3.1-1.7-4.2c-1.1-1.2-2.5-1.7-4.2-1.7s-3.1,0.6-4.2,1.7s-1.7,2.5-1.7,4.2
			C1210.8,296.2,1211.4,297.6,1212.5,298.8z"/>
	</g>
	<g class="st4">
		<path class="st3" d="M1230.3,287.1v2.5c0.9-1.8,2.5-2.7,4.7-2.7v1.9c-1.4,0-2.6,0.4-3.4,1.2c-0.9,0.8-1.3,2.1-1.3,3.7v8.3h-2v-15
			h2V287.1z"/>
	</g>
	<g class="st4">
		<path class="st3" d="M1252.7,286.7c2.1,0,4,0.8,5.5,2.3s2.3,3.4,2.3,5.6s-0.8,4.1-2.3,5.6s-3.3,2.3-5.5,2.3
			c-2.7,0-4.7-1.1-6.1-3.3v2.9h-2v-21h2v8.9C1248,287.8,1250,286.7,1252.7,286.7z M1248.3,298.8c1.1,1.1,2.5,1.7,4.2,1.7
			s3.1-0.6,4.2-1.7c1.1-1.2,1.7-2.6,1.7-4.2c0-1.7-0.6-3.1-1.7-4.2c-1.1-1.2-2.5-1.7-4.2-1.7s-3.1,0.6-4.2,1.7s-1.7,2.5-1.7,4.2
			C1246.6,296.2,1247.2,297.6,1248.3,298.8z"/>
	</g>
	<g class="st4">
		<path class="st3" d="M1273.9,295v-7.9h2v15h-2v-2.3c-1.1,1.8-2.8,2.7-5,2.7c-1.8,0-3.2-0.6-4.3-1.7c-1.1-1.1-1.6-2.6-1.6-4.5v-9.2
			h2v9.2c0,1.3,0.4,2.4,1.1,3.1s1.7,1.1,3,1.1c1.5,0,2.7-0.5,3.6-1.4S1273.9,296.8,1273.9,295z"/>
	</g>
	<g class="st4">
		<path class="st3" d="M1281,291c0,1.2,1,2,3.1,2.6c0.6,0.1,1,0.2,1.1,0.3c0.2,0.1,0.5,0.2,1.1,0.3c0.5,0.2,0.9,0.3,1.1,0.4
			s0.5,0.3,0.9,0.6c0.4,0.2,0.6,0.5,0.8,0.8s0.3,0.6,0.5,1c0.1,0.4,0.2,0.8,0.2,1.2c0,1.3-0.5,2.3-1.5,3.1c-1,0.8-2.3,1.2-3.9,1.2
			c-1.4,0-2.6-0.3-3.6-0.9s-1.7-1.5-2.2-2.5l1.7-1c0.3,0.8,0.8,1.4,1.5,1.8c0.7,0.5,1.6,0.7,2.6,0.7s1.8-0.2,2.5-0.6
			c0.6-0.4,1-1,1-1.8c0-1.2-1-2-3.1-2.5c-0.6-0.1-1-0.2-1.1-0.3c-0.2,0-0.5-0.2-1.1-0.3s-0.9-0.3-1.1-0.4s-0.5-0.3-0.9-0.6
			c-0.4-0.2-0.6-0.5-0.8-0.8c-0.2-0.2-0.3-0.6-0.5-1c-0.1-0.4-0.2-0.8-0.2-1.2c0-1.2,0.5-2.2,1.4-3.1c1-0.8,2.2-1.2,3.7-1.2
			c1.2,0,2.3,0.3,3.2,0.8s1.6,1.3,2.1,2.2l-1.6,1c-0.6-1.4-1.8-2.1-3.6-2.1c-0.9,0-1.6,0.2-2.2,0.6
			C1281.3,289.7,1281,290.3,1281,291z"/>
	</g>
	<g class="st4">
		<path class="st3" d="M1295,282.5c0,0.4-0.1,0.7-0.4,1s-0.6,0.4-1,0.4s-0.7-0.1-1-0.4s-0.4-0.6-0.4-1s0.1-0.7,0.4-1s0.6-0.4,1-0.4
			s0.7,0.1,1,0.4C1294.8,281.7,1295,282.1,1295,282.5z M1294.5,302.1h-2v-15h2V302.1z"/>
	</g>
	<g class="st4">
		<path class="st3" d="M1305.2,286.7c1.8,0,3.2,0.6,4.3,1.7c1.1,1.1,1.6,2.6,1.6,4.5v9.2h-2v-9.2c0-1.3-0.4-2.4-1.1-3.1
			s-1.7-1.1-3-1.1c-1.5,0-2.7,0.5-3.6,1.4s-1.3,2.3-1.3,4.2v7.9h-2v-15h2v2.3C1301.3,287.6,1303,286.7,1305.2,286.7z"/>
	</g>
	<g class="st4">
		<path class="st3" d="M1321.5,286.7c2.2,0,4,0.8,5.4,2.4s2.1,3.4,2.1,5.5c0,0.1,0,0.4-0.1,0.9h-13.2c0.2,1.5,0.8,2.7,1.9,3.6
			s2.4,1.4,4,1.4c2.3,0,3.9-0.9,4.8-2.6l1.7,1c-0.7,1.1-1.6,1.9-2.7,2.5c-1.2,0.6-2.4,0.9-3.9,0.9c-2.4,0-4.3-0.7-5.8-2.2
			s-2.2-3.4-2.2-5.6c0-2.3,0.7-4.1,2.2-5.6C1317.3,287.5,1319.2,286.7,1321.5,286.7z M1321.5,288.6c-1.6,0-2.9,0.5-3.9,1.4
			c-1.1,0.9-1.7,2.1-1.9,3.6h11.2c-0.2-1.6-0.8-2.8-1.8-3.7C1324,289.1,1322.8,288.6,1321.5,288.6z"/>
	</g>
	<g class="st4">
		<path class="st3" d="M1333,291c0,1.2,1,2,3.1,2.6c0.6,0.1,1,0.2,1.1,0.3c0.2,0.1,0.5,0.2,1.1,0.3c0.5,0.2,0.9,0.3,1.1,0.4
			s0.5,0.3,0.9,0.6s0.6,0.5,0.8,0.8s0.3,0.6,0.5,1s0.2,0.8,0.2,1.2c0,1.3-0.5,2.3-1.5,3.1c-1,0.8-2.3,1.2-3.9,1.2
			c-1.4,0-2.6-0.3-3.6-0.9s-1.7-1.5-2.2-2.5l1.7-1c0.3,0.8,0.8,1.4,1.5,1.8c0.7,0.5,1.6,0.7,2.6,0.7s1.8-0.2,2.5-0.6
			c0.6-0.4,1-1,1-1.8c0-1.2-1-2-3.1-2.5c-0.6-0.1-1-0.2-1.1-0.3c-0.2,0-0.5-0.2-1.1-0.3c-0.5-0.2-0.9-0.3-1.1-0.4s-0.5-0.3-0.9-0.6
			c-0.4-0.2-0.7-0.5-0.8-0.8c-0.2-0.2-0.3-0.6-0.4-1s-0.2-0.8-0.2-1.2c0-1.2,0.5-2.2,1.4-3.1c1-0.8,2.2-1.2,3.7-1.2
			c1.2,0,2.3,0.3,3.2,0.8c0.9,0.5,1.6,1.3,2.1,2.2l-1.7,1c-0.6-1.4-1.8-2.1-3.6-2.1c-0.9,0-1.7,0.2-2.2,0.6
			C1333.3,289.7,1333,290.3,1333,291z"/>
	</g>
	<g class="st4">
		<path class="st3" d="M1346.1,291c0,1.2,1,2,3.1,2.6c0.6,0.1,1,0.2,1.1,0.3c0.2,0.1,0.5,0.2,1.1,0.3c0.5,0.2,0.9,0.3,1.1,0.4
			s0.5,0.3,0.9,0.6s0.7,0.5,0.8,0.8s0.3,0.6,0.4,1s0.2,0.8,0.2,1.2c0,1.3-0.5,2.3-1.5,3.1c-1,0.8-2.3,1.2-3.9,1.2
			c-1.4,0-2.6-0.3-3.6-0.9s-1.7-1.5-2.2-2.5l1.7-1c0.3,0.8,0.8,1.4,1.5,1.8c0.7,0.5,1.6,0.7,2.6,0.7s1.8-0.2,2.5-0.6
			c0.6-0.4,1-1,1-1.8c0-1.2-1-2-3.1-2.5c-0.6-0.1-1-0.2-1.1-0.3c-0.2,0-0.5-0.2-1.1-0.3c-0.5-0.2-0.9-0.3-1.1-0.4s-0.5-0.3-0.9-0.6
			c-0.4-0.2-0.6-0.5-0.8-0.8c-0.2-0.2-0.3-0.6-0.5-1c-0.1-0.4-0.2-0.8-0.2-1.2c0-1.2,0.5-2.2,1.4-3.1c1-0.8,2.2-1.2,3.7-1.2
			c1.2,0,2.3,0.3,3.2,0.8c0.9,0.5,1.6,1.3,2.1,2.2l-1.6,1c-0.6-1.4-1.8-2.1-3.6-2.1c-0.9,0-1.6,0.2-2.2,0.6
			C1346.4,289.7,1346.1,290.3,1346.1,291z"/>
	</g>
	<g class="st4">
		<path class="st3" d="M1378,290v-2.9h2v15h-2v-2.9c-1.4,2.2-3.4,3.3-6.1,3.3c-2.1,0-4-0.8-5.5-2.3s-2.2-3.4-2.2-5.6
			s0.8-4.1,2.2-5.6c1.5-1.5,3.3-2.3,5.5-2.3C1374.6,286.7,1376.6,287.8,1378,290z M1367.9,298.8c1.1,1.1,2.5,1.7,4.2,1.7
			s3.1-0.6,4.2-1.7c1.1-1.2,1.7-2.6,1.7-4.2c0-1.7-0.6-3.1-1.7-4.2c-1.1-1.2-2.5-1.7-4.2-1.7s-3.1,0.6-4.2,1.7s-1.7,2.5-1.7,4.2
			C1366.2,296.2,1366.8,297.6,1367.9,298.8z"/>
		<path class="st3" d="M1391.7,286.7c2.1,0,4,0.8,5.5,2.3s2.3,3.4,2.3,5.6s-0.8,4.1-2.3,5.6s-3.3,2.3-5.5,2.3
			c-2.7,0-4.7-1.1-6.1-3.3v8.9h-2v-21h2v2.9C1387,287.8,1389,286.7,1391.7,286.7z M1387.3,298.8c1.1,1.1,2.5,1.7,4.2,1.7
			s3.1-0.6,4.2-1.7c1.1-1.2,1.7-2.6,1.7-4.2c0-1.7-0.6-3.1-1.7-4.2c-1.1-1.2-2.5-1.7-4.2-1.7s-3.1,0.6-4.2,1.7s-1.7,2.5-1.7,4.2
			C1385.6,296.2,1386.2,297.6,1387.3,298.8z"/>
	</g>
	<g class="st4">
		<path class="st3" d="M1410.3,286.7c2.1,0,4,0.8,5.5,2.3s2.3,3.4,2.3,5.6s-0.8,4.1-2.3,5.6s-3.3,2.3-5.5,2.3
			c-2.7,0-4.7-1.1-6.1-3.3v8.9h-2v-21h2v2.9C1405.6,287.8,1407.6,286.7,1410.3,286.7z M1405.9,298.8c1.1,1.1,2.5,1.7,4.2,1.7
			s3.1-0.6,4.2-1.7c1.1-1.2,1.7-2.6,1.7-4.2c0-1.7-0.6-3.1-1.7-4.2c-1.1-1.2-2.5-1.7-4.2-1.7s-3.1,0.6-4.2,1.7s-1.7,2.5-1.7,4.2
			C1404.2,296.2,1404.8,297.6,1405.9,298.8z"/>
	</g>
	<g class="st4">
		<path class="st3" d="M1422.1,291c0,1.2,1,2,3.1,2.6c0.6,0.1,1,0.2,1.1,0.3c0.2,0.1,0.5,0.2,1.1,0.3c0.5,0.2,0.9,0.3,1.1,0.4
			s0.5,0.3,0.9,0.6s0.6,0.5,0.8,0.8s0.3,0.6,0.5,1s0.2,0.8,0.2,1.2c0,1.3-0.5,2.3-1.5,3.1c-1,0.8-2.3,1.2-3.9,1.2
			c-1.4,0-2.6-0.3-3.6-0.9s-1.7-1.5-2.2-2.5l1.7-1c0.3,0.8,0.8,1.4,1.5,1.8c0.7,0.5,1.6,0.7,2.6,0.7s1.8-0.2,2.5-0.6
			c0.6-0.4,1-1,1-1.8c0-1.2-1-2-3.1-2.5c-0.6-0.1-1-0.2-1.1-0.3c-0.2,0-0.5-0.2-1.1-0.3c-0.5-0.2-0.9-0.3-1.1-0.4s-0.5-0.3-0.9-0.6
			c-0.4-0.2-0.7-0.5-0.8-0.8c-0.2-0.2-0.3-0.6-0.4-1s-0.2-0.8-0.2-1.2c0-1.2,0.5-2.2,1.4-3.1c1-0.8,2.2-1.2,3.7-1.2
			c1.2,0,2.3,0.3,3.2,0.8c0.9,0.5,1.6,1.3,2.1,2.2l-1.7,1c-0.6-1.4-1.8-2.1-3.6-2.1c-0.9,0-1.7,0.2-2.2,0.6
			C1422.4,289.7,1422.1,290.3,1422.1,291z"/>
	</g>
	<g class="st4">
		<path class="st3" d="M1455.4,299.5l3.7-12.5h2l-4.6,15h-2.2l-3.9-12.1l-3.9,12.1h-2.2l-4.6-15h2l3.7,12.5l3.9-12.5h2L1455.4,299.5
			z"/>
	</g>
	<g class="st4">
		<path class="st3" d="M1465.8,282.5c0,0.4-0.1,0.7-0.4,1s-0.6,0.4-1,0.4s-0.7-0.1-1-0.4s-0.4-0.6-0.4-1s0.1-0.7,0.4-1
			s0.6-0.4,1-0.4s0.7,0.1,1,0.4S1465.8,282.1,1465.8,282.5z M1465.3,302.1h-2v-15h2V302.1z"/>
	</g>
	<g class="st4">
		<path class="st3" d="M1476.8,287.1v1.9h-4.3v9.1c0,0.8,0.2,1.4,0.5,1.8s0.8,0.5,1.4,0.5s1.4,0,2.4,0v1.7c-2.1,0.3-3.7,0.2-4.8-0.5
			c-1-0.6-1.5-1.8-1.5-3.5V289h-3.2v-1.9h3.2v-3.6l2-0.6v4.2H1476.8z"/>
	</g>
	<g class="st4">
		<path class="st3" d="M1486.2,286.7c1.8,0,3.2,0.6,4.3,1.7c1.1,1.1,1.6,2.6,1.6,4.5v9.2h-2v-9.2c0-1.3-0.4-2.4-1.1-3.1
			s-1.7-1.1-3-1.1c-1.5,0-2.7,0.5-3.6,1.4s-1.3,2.3-1.3,4.2v7.9h-2v-21h2v8.3C1482.3,287.6,1484,286.7,1486.2,286.7z"/>
	</g>
	<g class="st4">
		<path class="st3" d="M902.4,348.2c-1.5,1.5-3.4,2.2-5.6,2.2c-2.2,0-4.1-0.8-5.6-2.2c-1.5-1.5-2.3-3.4-2.3-5.6s0.8-4.1,2.3-5.6
			s3.4-2.3,5.6-2.3c2.2,0,4.1,0.8,5.6,2.3s2.3,3.4,2.3,5.6C904.8,344.8,904,346.7,902.4,348.2z M892.7,346.8
			c1.1,1.1,2.5,1.7,4.2,1.7s3.1-0.6,4.2-1.7c1.1-1.2,1.7-2.6,1.7-4.2c0-1.7-0.6-3.1-1.7-4.2c-1.1-1.2-2.5-1.7-4.2-1.7
			s-3.1,0.6-4.2,1.7c-1.1,1.1-1.7,2.5-1.7,4.2C891,344.2,891.5,345.6,892.7,346.8z"/>
	</g>
	<g class="st4">
		<path class="st3" d="M918.2,343v-7.9h2v15h-2v-2.3c-1.1,1.8-2.8,2.7-5,2.7c-1.8,0-3.2-0.6-4.3-1.7s-1.6-2.6-1.6-4.5v-9.2h2v9.2
			c0,1.3,0.4,2.4,1.1,3.1c0.7,0.7,1.7,1.1,3,1.1c1.5,0,2.7-0.5,3.6-1.4S918.2,344.8,918.2,343z"/>
	</g>
	<g class="st4">
		<path class="st3" d="M931.7,335.1v1.9h-4.3v9.1c0,0.8,0.2,1.4,0.5,1.8s0.8,0.5,1.4,0.5c0.6,0,1.4,0,2.4,0v1.7
			c-2.1,0.3-3.7,0.2-4.8-0.5c-1-0.6-1.5-1.8-1.5-3.5V337h-3.2v-1.9h3.2v-3.6l2-0.6v4.2H931.7z"/>
	</g>
	<g class="st4">
		<path class="st3" d="M943,341.8h-10.8v-1.9H943V341.8z"/>
	</g>
	<g class="st4">
		<path class="st3" d="M959.1,348.2c-1.5,1.5-3.4,2.2-5.6,2.2c-2.2,0-4.1-0.8-5.6-2.2c-1.5-1.5-2.3-3.4-2.3-5.6s0.8-4.1,2.3-5.6
			s3.4-2.3,5.6-2.3c2.2,0,4.1,0.8,5.6,2.3s2.3,3.4,2.3,5.6C961.4,344.8,960.7,346.7,959.1,348.2z M949.3,346.8
			c1.1,1.1,2.5,1.7,4.2,1.7s3.1-0.6,4.2-1.7c1.1-1.2,1.7-2.6,1.7-4.2c0-1.7-0.6-3.1-1.7-4.2c-1.1-1.2-2.5-1.7-4.2-1.7
			s-3.1,0.6-4.2,1.7c-1.1,1.1-1.7,2.5-1.7,4.2C947.6,344.2,948.2,345.6,949.3,346.8z"/>
	</g>
	<g class="st4">
		<path class="st3" d="M971.2,328.7v1.9c-1.5-0.1-2.5,0.1-3.3,0.8c-0.7,0.6-1.1,1.7-1.1,3.1v0.6h4.3v1.9h-4.3v13.1h-2V337h-2.5v-1.9
			h2.5v-0.6c0-2,0.5-3.5,1.6-4.5C967.6,329,969.2,328.6,971.2,328.7z"/>
	</g>
	<g class="st4">
		<path class="st3" d="M981.9,341.8h-10.8v-1.9h10.8V341.8z"/>
	</g>
	<g class="st4">
		<path class="st3" d="M992.2,335.1v1.9h-4.3v9.1c0,0.8,0.2,1.4,0.5,1.8s0.8,0.5,1.4,0.5c0.6,0,1.4,0,2.4,0v1.7
			c-2.1,0.3-3.7,0.2-4.8-0.5c-1-0.6-1.5-1.8-1.5-3.5V337h-3.2v-1.9h3.2v-3.6l2-0.6v4.2H992.2z"/>
	</g>
	<g class="st4">
		<path class="st3" d="M1001.6,334.7c1.8,0,3.2,0.6,4.3,1.7s1.6,2.6,1.6,4.5v9.2h-2v-9.2c0-1.3-0.4-2.4-1.1-3.1
			c-0.7-0.7-1.7-1.1-3-1.1c-1.5,0-2.7,0.5-3.6,1.4c-0.9,0.9-1.3,2.3-1.3,4.2v7.9h-2v-21h2v8.3C997.7,335.6,999.4,334.7,1001.6,334.7
			z"/>
	</g>
	<g class="st4">
		<path class="st3" d="M1017.9,334.7c2.2,0,4,0.8,5.4,2.4s2.1,3.4,2.1,5.5c0,0.1,0,0.4-0.1,0.9h-13.2c0.2,1.5,0.8,2.7,1.9,3.6
			c1.1,0.9,2.4,1.4,4,1.4c2.3,0,3.9-0.9,4.8-2.6l1.7,1c-0.7,1.1-1.6,1.9-2.7,2.5c-1.2,0.6-2.4,0.9-3.9,0.9c-2.4,0-4.3-0.7-5.8-2.2
			s-2.2-3.4-2.2-5.6c0-2.3,0.7-4.1,2.2-5.6C1013.7,335.5,1015.6,334.7,1017.9,334.7z M1017.9,336.6c-1.6,0-2.9,0.5-3.9,1.4
			c-1.1,0.9-1.7,2.1-1.9,3.6h11.2c-0.2-1.6-0.8-2.8-1.8-3.7C1020.4,337.1,1019.2,336.6,1017.9,336.6z"/>
	</g>
	<g class="st4">
		<path class="st3" d="M1038.6,341.8h-10.8v-1.9h10.8V341.8z"/>
	</g>
	<g class="st4">
		<path class="st3" d="M1050,334.7c2.1,0,4,0.8,5.5,2.3s2.3,3.4,2.3,5.6s-0.8,4.1-2.3,5.6s-3.3,2.3-5.5,2.3c-2.7,0-4.7-1.1-6.1-3.3
			v2.9h-2v-21h2v8.9C1045.3,335.8,1047.3,334.7,1050,334.7z M1045.6,346.8c1.1,1.1,2.5,1.7,4.2,1.7s3.1-0.6,4.2-1.7
			c1.1-1.2,1.7-2.6,1.7-4.2c0-1.7-0.6-3.1-1.7-4.2c-1.1-1.2-2.5-1.7-4.2-1.7s-3.1,0.6-4.2,1.7s-1.7,2.5-1.7,4.2
			C1043.9,344.2,1044.5,345.6,1045.6,346.8z"/>
	</g>
	<g class="st4">
		<path class="st3" d="M1073.1,348.2c-1.5,1.5-3.4,2.2-5.6,2.2s-4.1-0.8-5.6-2.2c-1.5-1.5-2.3-3.4-2.3-5.6s0.8-4.1,2.3-5.6
			s3.4-2.3,5.6-2.3s4.1,0.8,5.6,2.3s2.3,3.4,2.3,5.6C1075.4,344.8,1074.6,346.7,1073.1,348.2z M1063.3,346.8
			c1.1,1.1,2.5,1.7,4.2,1.7s3.1-0.6,4.2-1.7c1.1-1.2,1.7-2.6,1.7-4.2c0-1.7-0.6-3.1-1.7-4.2c-1.1-1.2-2.5-1.7-4.2-1.7
			s-3.1,0.6-4.2,1.7s-1.7,2.5-1.7,4.2C1061.6,344.2,1062.2,345.6,1063.3,346.8z"/>
	</g>
	<g class="st4">
		<path class="st3" d="M1084.1,342.3l5.8,7.8h-2.4l-4.7-6.2l-4.7,6.2h-2.4l5.9-7.8l-5.5-7.2h2.4l4.3,5.7l4.3-5.7h2.4L1084.1,342.3z"
			/>
	</g>
	<g class="st4">
		<path class="st3" d="M1101.9,330.5c0,0.4-0.1,0.7-0.4,1s-0.6,0.4-1,0.4s-0.7-0.1-1-0.4s-0.4-0.6-0.4-1s0.1-0.7,0.4-1
			s0.6-0.4,1-0.4s0.7,0.1,1,0.4S1101.9,330.1,1101.9,330.5z M1101.5,350.1h-2v-15h2V350.1z"/>
	</g>
	<g class="st4">
		<path class="st3" d="M1112.2,334.7c1.8,0,3.2,0.6,4.3,1.7c1.1,1.1,1.6,2.6,1.6,4.5v9.2h-2v-9.2c0-1.3-0.4-2.4-1.1-3.1
			s-1.7-1.1-3-1.1c-1.5,0-2.7,0.5-3.6,1.4s-1.3,2.3-1.3,4.2v7.9h-2v-15h2v2.3C1108.3,335.6,1110,334.7,1112.2,334.7z"/>
	</g>
	<g class="st4">
		<path class="st3" d="M1129,335.1v1.9h-4.3v9.1c0,0.8,0.2,1.4,0.5,1.8s0.8,0.5,1.4,0.5s1.4,0,2.4,0v1.7c-2.1,0.3-3.7,0.2-4.8-0.5
			s-1.5-1.8-1.5-3.5V337h-3.1v-1.9h3.1v-3.6l2-0.6v4.2H1129z"/>
	</g>
	<g class="st4">
		<path class="st3" d="M1137.9,334.7c2.2,0,4,0.8,5.4,2.4s2.1,3.4,2.1,5.5c0,0.1,0,0.4-0.1,0.9h-13.2c0.2,1.5,0.8,2.7,1.9,3.6
			s2.4,1.4,4,1.4c2.3,0,3.9-0.9,4.8-2.6l1.7,1c-0.7,1.1-1.6,1.9-2.7,2.5c-1.2,0.6-2.4,0.9-3.9,0.9c-2.4,0-4.3-0.7-5.8-2.2
			s-2.2-3.4-2.2-5.6c0-2.3,0.7-4.1,2.2-5.6C1133.7,335.5,1135.6,334.7,1137.9,334.7z M1137.9,336.6c-1.6,0-2.9,0.5-3.9,1.4
			s-1.7,2.1-1.9,3.6h11.2c-0.2-1.6-0.8-2.8-1.8-3.7C1140.4,337.1,1139.2,336.6,1137.9,336.6z"/>
	</g>
	<g class="st4">
		<path class="st3" d="M1161,338v-2.9h2v14.4c0,2.2-0.7,3.9-2.2,5.1s-3.2,1.9-5.3,1.9c-3.5,0-5.9-1.2-7.1-3.7l1.7-1
			c0.9,1.8,2.7,2.7,5.4,2.7c1.7,0,3.1-0.5,4.1-1.4s1.5-2.1,1.5-3.7v-2.3c-1.4,2.2-3.4,3.3-6.1,3.3c-2.1,0-4-0.8-5.5-2.3
			s-2.2-3.4-2.2-5.6s0.8-4.1,2.2-5.6c1.5-1.5,3.3-2.3,5.5-2.3C1157.6,334.7,1159.6,335.8,1161,338z M1150.8,346.8
			c1.1,1.1,2.5,1.7,4.2,1.7s3.1-0.6,4.2-1.7c1.1-1.2,1.7-2.6,1.7-4.2c0-1.7-0.6-3.1-1.7-4.2c-1.1-1.2-2.5-1.7-4.2-1.7
			s-3.1,0.6-4.2,1.7s-1.7,2.5-1.7,4.2C1149.1,344.2,1149.7,345.6,1150.8,346.8z"/>
	</g>
	<g class="st4">
		<path class="st3" d="M1168.6,335.1v2.5c0.9-1.8,2.5-2.7,4.7-2.7v1.9c-1.4,0-2.6,0.4-3.4,1.2c-0.9,0.8-1.3,2.1-1.3,3.7v8.3h-2v-15
			h2V335.1z"/>
	</g>
	<g class="st4">
		<path class="st3" d="M1187.7,338v-2.9h2v15h-2v-2.9c-1.4,2.2-3.4,3.3-6.1,3.3c-2.1,0-4-0.8-5.5-2.3s-2.2-3.4-2.2-5.6
			s0.8-4.1,2.2-5.6c1.5-1.5,3.3-2.3,5.5-2.3C1184.3,334.7,1186.3,335.8,1187.7,338z M1177.6,346.8c1.1,1.1,2.5,1.7,4.2,1.7
			s3.1-0.6,4.2-1.7c1.1-1.2,1.7-2.6,1.7-4.2c0-1.7-0.6-3.1-1.7-4.2c-1.1-1.2-2.5-1.7-4.2-1.7s-3.1,0.6-4.2,1.7s-1.7,2.5-1.7,4.2
			C1175.9,344.2,1176.5,345.6,1177.6,346.8z"/>
	</g>
	<g class="st4">
		<path class="st3" d="M1201.2,335.1v1.9h-4.3v9.1c0,0.8,0.2,1.4,0.5,1.8s0.8,0.5,1.4,0.5s1.4,0,2.4,0v1.7c-2.1,0.3-3.7,0.2-4.8-0.5
			c-1-0.6-1.5-1.8-1.5-3.5V337h-3.2v-1.9h3.2v-3.6l2-0.6v4.2H1201.2z"/>
	</g>
	<g class="st4">
		<path class="st3" d="M1206,330.5c0,0.4-0.1,0.7-0.4,1s-0.6,0.4-1,0.4s-0.7-0.1-1-0.4s-0.4-0.6-0.4-1s0.1-0.7,0.4-1s0.6-0.4,1-0.4
			s0.7,0.1,1,0.4C1205.8,329.7,1206,330.1,1206,330.5z M1205.5,350.1h-2v-15h2V350.1z"/>
	</g>
	<g class="st4">
		<path class="st3" d="M1221.8,348.2c-1.5,1.5-3.4,2.2-5.6,2.2s-4.1-0.8-5.6-2.2c-1.5-1.5-2.3-3.4-2.3-5.6s0.8-4.1,2.3-5.6
			s3.4-2.3,5.6-2.3s4.1,0.8,5.6,2.3s2.3,3.4,2.3,5.6C1224.1,344.8,1223.3,346.7,1221.8,348.2z M1212,346.8c1.1,1.1,2.5,1.7,4.2,1.7
			s3.1-0.6,4.2-1.7c1.1-1.2,1.7-2.6,1.7-4.2c0-1.7-0.6-3.1-1.7-4.2c-1.1-1.2-2.5-1.7-4.2-1.7s-3.1,0.6-4.2,1.7s-1.7,2.5-1.7,4.2
			C1210.3,344.2,1210.8,345.6,1212,346.8z"/>
	</g>
	<g class="st4">
		<path class="st3" d="M1233.9,334.7c1.8,0,3.2,0.6,4.3,1.7c1.1,1.1,1.6,2.6,1.6,4.5v9.2h-2v-9.2c0-1.3-0.4-2.4-1.1-3.1
			s-1.7-1.1-3-1.1c-1.5,0-2.7,0.5-3.6,1.4s-1.3,2.3-1.3,4.2v7.9h-2v-15h2v2.3C1230,335.6,1231.7,334.7,1233.9,334.7z"/>
	</g>
	<g class="st4">
		<path class="st3" d="M1244.6,339c0,1.2,1,2,3.1,2.6c0.6,0.1,1,0.2,1.1,0.3c0.2,0.1,0.5,0.2,1.1,0.3c0.5,0.2,0.9,0.3,1.1,0.4
			s0.5,0.3,0.9,0.6c0.4,0.2,0.6,0.5,0.8,0.8s0.3,0.6,0.5,1c0.1,0.4,0.2,0.8,0.2,1.2c0,1.3-0.5,2.3-1.5,3.1c-1,0.8-2.3,1.2-3.9,1.2
			c-1.4,0-2.6-0.3-3.6-0.9s-1.7-1.5-2.2-2.5l1.7-1c0.3,0.8,0.8,1.4,1.5,1.8c0.7,0.5,1.6,0.7,2.6,0.7s1.8-0.2,2.5-0.6
			c0.6-0.4,1-1,1-1.8c0-1.2-1-2-3.1-2.5c-0.6-0.1-1-0.2-1.1-0.3c-0.2,0-0.5-0.2-1.1-0.3s-0.9-0.3-1.1-0.4s-0.5-0.3-0.9-0.6
			c-0.4-0.2-0.6-0.5-0.8-0.8c-0.2-0.2-0.3-0.6-0.5-1c-0.1-0.4-0.2-0.8-0.2-1.2c0-1.2,0.5-2.2,1.4-3.1c1-0.8,2.2-1.2,3.7-1.2
			c1.2,0,2.3,0.3,3.2,0.8s1.6,1.3,2.1,2.2l-1.6,1c-0.6-1.4-1.8-2.1-3.6-2.1c-0.9,0-1.6,0.2-2.2,0.6
			C1244.9,337.7,1244.6,338.3,1244.6,339z"/>
	</g>
	<g class="st4">
		<path class="st3" d="M1266,330.5c0,0.4-0.1,0.7-0.4,1s-0.6,0.4-1,0.4s-0.7-0.1-1-0.4s-0.4-0.6-0.4-1s0.1-0.7,0.4-1s0.6-0.4,1-0.4
			s0.7,0.1,1,0.4C1265.9,329.7,1266,330.1,1266,330.5z M1265.5,350.1h-2v-15h2V350.1z"/>
	</g>
	<g class="st4">
		<path class="st3" d="M1276.3,334.7c1.8,0,3.2,0.6,4.3,1.7c1.1,1.1,1.6,2.6,1.6,4.5v9.2h-2v-9.2c0-1.3-0.4-2.4-1.1-3.1
			s-1.7-1.1-3-1.1c-1.5,0-2.7,0.5-3.6,1.4s-1.3,2.3-1.3,4.2v7.9h-2v-15h2v2.3C1272.3,335.6,1274,334.7,1276.3,334.7z"/>
	</g>
	<g class="st4">
		<path class="st3" d="M1300.8,335.1v1.9h-4.3v9.1c0,0.8,0.2,1.4,0.5,1.8s0.8,0.5,1.4,0.5s1.4,0,2.4,0v1.7c-2.1,0.3-3.7,0.2-4.8-0.5
			s-1.5-1.8-1.5-3.5V337h-3.1v-1.9h3.1v-3.6l2-0.6v4.2H1300.8z"/>
	</g>
	<g class="st4">
		<path class="st3" d="M1310.2,334.7c1.8,0,3.2,0.6,4.3,1.7c1.1,1.1,1.6,2.6,1.6,4.5v9.2h-2v-9.2c0-1.3-0.4-2.4-1.1-3.1
			s-1.7-1.1-3-1.1c-1.5,0-2.7,0.5-3.6,1.4s-1.3,2.3-1.3,4.2v7.9h-2v-21h2v8.3C1306.3,335.6,1308,334.7,1310.2,334.7z"/>
	</g>
	<g class="st4">
		<path class="st3" d="M1326.5,334.7c2.2,0,4,0.8,5.4,2.4s2.1,3.4,2.1,5.5c0,0.1,0,0.4-0.1,0.9h-13.2c0.2,1.5,0.8,2.7,1.9,3.6
			s2.4,1.4,4,1.4c2.3,0,3.9-0.9,4.8-2.6l1.7,1c-0.7,1.1-1.6,1.9-2.7,2.5c-1.2,0.6-2.4,0.9-3.9,0.9c-2.4,0-4.3-0.7-5.8-2.2
			s-2.2-3.4-2.2-5.6c0-2.3,0.7-4.1,2.2-5.6C1322.3,335.5,1324.2,334.7,1326.5,334.7z M1326.5,336.6c-1.6,0-2.9,0.5-3.9,1.4
			c-1.1,0.9-1.7,2.1-1.9,3.6h11.2c-0.2-1.6-0.8-2.8-1.8-3.7C1329,337.1,1327.8,336.6,1326.5,336.6z"/>
	</g>
	<g class="st4">
		<path class="st3" d="M1350.9,350.5c-1.9,0-3.6-0.5-4.9-1.4s-2.3-2.2-2.9-3.8l1.8-1.1c0.4,1.3,1.1,2.3,2.1,3.1
			c1,0.7,2.3,1.1,3.9,1.1c1.5,0,2.8-0.3,3.6-1c0.9-0.7,1.3-1.6,1.3-2.8c0-1.1-0.4-1.9-1.2-2.5c-0.8-0.6-2.1-1.1-4-1.7
			c-2.2-0.7-3.7-1.3-4.3-1.7c-1.6-1-2.4-2.4-2.4-4.2c0-1.8,0.6-3.2,1.9-4.2c1.2-1,2.7-1.6,4.6-1.6c1.6,0,3,0.4,4.2,1.2
			c1.2,0.8,2.1,1.9,2.7,3.3l-1.8,1c-1-2.3-2.7-3.5-5.2-3.5c-1.3,0-2.4,0.3-3.2,1c-0.8,0.6-1.2,1.5-1.2,2.7c0,1.1,0.4,1.8,1.1,2.3
			s1.9,1,3.6,1.6l1.6,0.6c0.3,0.1,0.8,0.3,1.4,0.5c0.7,0.3,1.1,0.5,1.4,0.7c1.1,0.6,1.7,1.2,2,1.8c0.5,0.8,0.8,1.7,0.8,2.7
			c0,1.8-0.7,3.2-2,4.3C1354.7,349.9,1353,350.5,1350.9,350.5z"/>
	</g>
	<g class="st4">
		<path class="st3" d="M1367.7,334.7c2.2,0,4,0.8,5.4,2.4s2.1,3.4,2.1,5.5c0,0.1,0,0.4-0.1,0.9h-13.2c0.2,1.5,0.8,2.7,1.9,3.6
			s2.4,1.4,4,1.4c2.3,0,3.9-0.9,4.8-2.6l1.7,1c-0.7,1.1-1.6,1.9-2.7,2.5c-1.2,0.6-2.4,0.9-3.9,0.9c-2.4,0-4.3-0.7-5.8-2.2
			s-2.2-3.4-2.2-5.6c0-2.3,0.7-4.1,2.2-5.6C1363.5,335.5,1365.4,334.7,1367.7,334.7z M1367.7,336.6c-1.6,0-2.9,0.5-3.9,1.4
			c-1.1,0.9-1.7,2.1-1.9,3.6h11.2c-0.2-1.6-0.8-2.8-1.8-3.7C1370.2,337.1,1369,336.6,1367.7,336.6z"/>
	</g>
	<g class="st4">
		<path class="st3" d="M1379.8,335.1v2.5c0.9-1.8,2.5-2.7,4.7-2.7v1.9c-1.4,0-2.6,0.4-3.4,1.2c-0.9,0.8-1.3,2.1-1.3,3.7v8.3h-2v-15
			h2V335.1z"/>
	</g>
	<g class="st4">
		<path class="st3" d="M1393.1,348l5.2-12.9h2.1l-6.2,15h-2.4l-6.2-15h2.1L1393.1,348z"/>
	</g>
	<g class="st4">
		<path class="st3" d="M1404.8,330.5c0,0.4-0.1,0.7-0.4,1s-0.6,0.4-1,0.4s-0.7-0.1-1-0.4s-0.4-0.6-0.4-1s0.1-0.7,0.4-1
			s0.6-0.4,1-0.4s0.7,0.1,1,0.4C1404.6,329.7,1404.8,330.1,1404.8,330.5z M1404.3,350.1h-2v-15h2V350.1z"/>
	</g>
	<g class="st4">
		<path class="st3" d="M1415,350.5c-2.3,0-4.1-0.8-5.6-2.2c-1.5-1.5-2.2-3.4-2.2-5.6s0.8-4.1,2.2-5.6c1.5-1.5,3.4-2.3,5.6-2.3
			c1.5,0,2.8,0.4,4,1.1s2,1.7,2.6,2.9l-1.6,0.9c-0.4-0.9-1-1.6-1.9-2.1s-1.9-0.8-3-0.8c-1.7,0-3.1,0.6-4.2,1.7s-1.7,2.5-1.7,4.2
			c0,1.6,0.6,3,1.7,4.2c1.1,1.1,2.5,1.7,4.2,1.7c1.1,0,2.1-0.3,3-0.8s1.6-1.2,2.1-2.2l1.7,1c-0.6,1.2-1.5,2.2-2.7,2.8
			C1417.8,350.1,1416.4,350.5,1415,350.5z"/>
	</g>
	<g class="st4">
		<path class="st3" d="M1430.9,334.7c2.2,0,4,0.8,5.4,2.4s2.1,3.4,2.1,5.5c0,0.1,0,0.4-0.1,0.9h-13.2c0.2,1.5,0.8,2.7,1.9,3.6
			s2.4,1.4,4,1.4c2.3,0,3.9-0.9,4.8-2.6l1.7,1c-0.7,1.1-1.6,1.9-2.7,2.5c-1.2,0.6-2.4,0.9-3.9,0.9c-2.4,0-4.3-0.7-5.8-2.2
			s-2.2-3.4-2.2-5.6c0-2.3,0.7-4.1,2.2-5.6C1426.7,335.5,1428.6,334.7,1430.9,334.7z M1430.9,336.6c-1.6,0-2.9,0.5-3.9,1.4
			c-1.1,0.9-1.7,2.1-1.9,3.6h11.2c-0.2-1.6-0.8-2.8-1.8-3.7C1433.4,337.1,1432.2,336.6,1430.9,336.6z"/>
	</g>
	<g class="st4">
		<path class="st3" d="M1454.9,346.2v-17.1h2.1v21h-1.8l-11.7-17.1v17.1h-2.1v-21h1.8L1454.9,346.2z"/>
	</g>
	<g class="st4">
		<path class="st3" d="M1473.6,348.2c-1.5,1.5-3.4,2.2-5.6,2.2s-4.1-0.8-5.6-2.2c-1.5-1.5-2.3-3.4-2.3-5.6s0.8-4.1,2.3-5.6
			s3.4-2.3,5.6-2.3s4.1,0.8,5.6,2.3s2.3,3.4,2.3,5.6C1475.9,344.8,1475.1,346.7,1473.6,348.2z M1463.8,346.8
			c1.1,1.1,2.5,1.7,4.2,1.7s3.1-0.6,4.2-1.7c1.1-1.2,1.7-2.6,1.7-4.2c0-1.7-0.6-3.1-1.7-4.2c-1.1-1.2-2.5-1.7-4.2-1.7
			s-3.1,0.6-4.2,1.7s-1.7,2.5-1.7,4.2C1462.1,344.2,1462.7,345.6,1463.8,346.8z"/>
	</g>
	<g class="st4">
		<path class="st3" d="M1492.5,347.5l3.7-12.5h2l-4.6,15h-2.2l-3.9-12.1l-3.9,12.1h-2.2l-4.6-15h2l3.7,12.5l3.9-12.5h2L1492.5,347.5
			z"/>
	</g>
	<g class="st4">
		<path class="st3" d="M1509.6,339c0,1.2,1,2,3.1,2.6c0.6,0.1,1,0.2,1.1,0.3c0.2,0.1,0.5,0.2,1.1,0.3c0.5,0.2,0.9,0.3,1.1,0.4
			s0.5,0.3,0.9,0.6s0.7,0.5,0.8,0.8s0.3,0.6,0.4,1s0.2,0.8,0.2,1.2c0,1.3-0.5,2.3-1.5,3.1c-1,0.8-2.3,1.2-3.9,1.2
			c-1.4,0-2.6-0.3-3.6-0.9s-1.7-1.5-2.2-2.5l1.7-1c0.3,0.8,0.8,1.4,1.5,1.8c0.7,0.5,1.6,0.7,2.6,0.7s1.8-0.2,2.5-0.6
			c0.6-0.4,1-1,1-1.8c0-1.2-1-2-3.1-2.5c-0.6-0.1-1-0.2-1.1-0.3c-0.2,0-0.5-0.2-1.1-0.3c-0.5-0.2-0.9-0.3-1.1-0.4s-0.5-0.3-0.9-0.6
			c-0.4-0.2-0.6-0.5-0.8-0.8c-0.2-0.2-0.3-0.6-0.5-1c-0.1-0.4-0.2-0.8-0.2-1.2c0-1.2,0.5-2.2,1.4-3.1c1-0.8,2.2-1.2,3.7-1.2
			c1.2,0,2.3,0.3,3.2,0.8c0.9,0.5,1.6,1.3,2.1,2.2l-1.6,1c-0.6-1.4-1.8-2.1-3.6-2.1c-0.9,0-1.6,0.2-2.2,0.6
			C1509.9,337.7,1509.6,338.3,1509.6,339z"/>
	</g>
	<g class="st4">
		<path class="st3" d="M1529.2,335.1v1.9h-4.3v9.1c0,0.8,0.2,1.4,0.5,1.8s0.8,0.5,1.4,0.5s1.4,0,2.4,0v1.7c-2.1,0.3-3.7,0.2-4.8-0.5
			s-1.5-1.8-1.5-3.5V337h-3.1v-1.9h3.1v-3.6l2-0.6v4.2H1529.2z"/>
	</g>
	<g class="st4">
		<path class="st3" d="M1543.7,348.2c-1.5,1.5-3.4,2.2-5.6,2.2s-4.1-0.8-5.6-2.2c-1.5-1.5-2.3-3.4-2.3-5.6s0.8-4.1,2.3-5.6
			s3.4-2.3,5.6-2.3s4.1,0.8,5.6,2.3s2.3,3.4,2.3,5.6C1546,344.8,1545.2,346.7,1543.7,348.2z M1533.9,346.8c1.1,1.1,2.5,1.7,4.2,1.7
			s3.1-0.6,4.2-1.7c1.1-1.2,1.7-2.6,1.7-4.2c0-1.7-0.6-3.1-1.7-4.2c-1.1-1.2-2.5-1.7-4.2-1.7s-3.1,0.6-4.2,1.7s-1.7,2.5-1.7,4.2
			C1532.2,344.2,1532.8,345.6,1533.9,346.8z"/>
	</g>
	<g class="st4">
		<path class="st3" d="M1550.8,335.1v2.5c0.9-1.8,2.5-2.7,4.7-2.7v1.9c-1.4,0-2.6,0.4-3.4,1.2c-0.9,0.8-1.3,2.1-1.3,3.7v8.3h-2v-15
			h2V335.1z"/>
	</g>
	<g class="st4">
		<path class="st3" d="M1564,334.7c2.2,0,4,0.8,5.4,2.4s2.1,3.4,2.1,5.5c0,0.1,0,0.4-0.1,0.9h-13.2c0.2,1.5,0.8,2.7,1.9,3.6
			s2.4,1.4,4,1.4c2.3,0,3.9-0.9,4.8-2.6l1.7,1c-0.7,1.1-1.6,1.9-2.7,2.5c-1.2,0.6-2.4,0.9-3.9,0.9c-2.4,0-4.3-0.7-5.8-2.2
			s-2.2-3.4-2.2-5.6c0-2.3,0.7-4.1,2.2-5.6C1559.8,335.5,1561.7,334.7,1564,334.7z M1564,336.6c-1.6,0-2.9,0.5-3.9,1.4
			s-1.7,2.1-1.9,3.6h11.2c-0.2-1.6-0.8-2.8-1.8-3.7C1566.5,337.1,1565.3,336.6,1564,336.6z"/>
	</g>
	<g class="st4">
		<path class="st3" d="M1576.7,348.7c0,0.5-0.2,0.8-0.5,1.2c-0.3,0.3-0.7,0.5-1.2,0.5s-0.8-0.2-1.2-0.5c-0.3-0.3-0.5-0.7-0.5-1.2
			s0.2-0.9,0.5-1.2c0.3-0.3,0.7-0.5,1.2-0.5s0.8,0.2,1.2,0.5C1576.5,347.9,1576.7,348.3,1576.7,348.7z"/>
	</g>
</g>
<g id="icons">
	<g id="integration_hub_Image">
		
			<image style="overflow:visible;enable-background:new    ;" width="47" height="48" id="integration_hub_Image-2" xlink:href="F8716D718409719A.png"  transform="matrix(0.9789 0 0 0.9789 773.7947 196.7452)">
		</image>
	</g>
	<g id="office_365_Image">
		
			<image style="overflow:visible;enable-background:new    ;" width="49" height="58" id="office_365_Image-2" xlink:href="F8716D7184097199.png"  transform="matrix(0.9814 0 0 0.9814 40.5247 523.6982)">
		</image>
	</g>
	<g id="gmail_Image">
		
			<image style="overflow:visible;enable-background:new    ;" width="53" height="41" id="gmail_Image-2" xlink:href="F8716D7184097188.png"  transform="matrix(0.9791 0 0 0.9791 248.6247 532.5891)">
		</image>
	</g>
	<g id="zoom_Image">
		
			<image style="overflow:visible;enable-background:new    ;" width="71" height="73" id="zoom_Image-2" xlink:href="F8716D7184097189.png"  transform="matrix(0.9861 0 0 0.9861 448.2029 516.6668)">
		</image>
	</g>
	<g id="okta_Image">
		
			<image style="overflow:visible;enable-background:new    ;" width="76" height="27" id="okta_Image-2" xlink:href="F8716D718409718F.png"  transform="matrix(0.9842 0 0 0.9842 657.3106 538.3734)">
		</image>
	</g>
	<g id="github_Image">
		
			<image style="overflow:visible;enable-background:new    ;" width="62" height="61" id="github_Image-2" xlink:href="F8716D7184097183.png"  transform="matrix(0.9837 0 0 0.9837 871.2141 521.6559)">
		</image>
	</g>
	<g id="webex_Image">
		
			<image style="overflow:visible;enable-background:new    ;" width="67" height="66" id="webex_Image-2" xlink:href="F8716D7184097184.png"  transform="matrix(0.985 0 0 0.985 1077.2137 519.6562)">
		</image>
	</g>
	<g id="box_Image">
		
			<image style="overflow:visible;enable-background:new    ;" width="67" height="36" id="box_Image-2" xlink:href="F8716D7184097185.png"  transform="matrix(0.9822 0 0 0.9822 1286.3059 532.4802)">
		</image>
	</g>
	<g id="twillio">
		
			<image style="overflow:visible;enable-background:new    ;" width="2534" height="2534" id="_2SCQe5" xlink:href="F8716D7184097186.png"  transform="matrix(2.959747e-02 0 0 2.959747e-02 1493.5 513.78)">
		</image>
	</g>
</g>
</svg>
