<?xml version="1.0" encoding="utf-8"?>
<!-- Generator: Adobe Illustrator 23.0.0, SVG Export Plug-In . SVG Version: 6.00 Build 0)  -->
<svg version="1.1" id="Layer_1" xmlns="http://www.w3.org/2000/svg" xmlns:xlink="http://www.w3.org/1999/xlink" x="0px" y="0px"
	 viewBox="0 0 26 26" style="enable-background:new 0 0 26 26;" xml:space="preserve">
<style type="text/css">
	.st0{fill:#293D40;}
</style>
<path class="st0" d="M15.84,11.5c0,1.59-1.3,2.89-2.89,2.89s-2.89-1.3-2.89-2.89s1.3-2.89,2.89-2.89S15.84,9.91,15.84,11.5z
	 M25.5,13c0,6.9-5.6,12.5-12.5,12.5C6.1,25.5,0.5,19.9,0.5,13C0.5,6.1,6.1,0.5,13,0.5C19.9,0.5,25.5,6.1,25.5,13z M21.51,19.67
	c-0.49-2.15-2.47-3.93-5.15-4.77c0.87-0.87,1.41-2.08,1.41-3.4c0-2.66-2.16-4.82-4.82-4.82c-2.66,0-4.82,2.16-4.82,4.82
	c0,1.33,0.54,2.53,1.41,3.4c-2.68,0.83-4.66,2.62-5.15,4.77c0.53,0.68,1.14,1.29,1.81,1.83v-0.8c0-2.37,3.09-4.38,6.75-4.38
	s6.75,2,6.75,4.38v0.8C20.37,20.96,20.98,20.35,21.51,19.67z"/>
</svg>
