<svg id="Layer_1" data-name="Layer 1" xmlns="http://www.w3.org/2000/svg" width="32" height="32" viewBox="0 0 32 32">
  <title>Start Developing</title>
  <g>
    <path d="M1,5v6H31V5ZM5.5,9.5A1.5,1.5,0,1,1,7,8,1.5,1.5,0,0,1,5.5,9.5Zm4,0A1.5,1.5,0,1,1,11,8,1.5,1.5,0,0,1,9.5,9.5Zm4,0A1.5,1.5,0,1,1,15,8,1.5,1.5,0,0,1,13.5,9.5Z" fill="#81b5a0"/>
    <g>
      <path d="M29,3H3A3,3,0,0,0,0,6V26a3,3,0,0,0,3,3H29a3,3,0,0,0,3-3V6A3,3,0,0,0,29,3Zm1,23a1,1,0,0,1-1,1H3a1,1,0,0,1-1-1V6A1,1,0,0,1,3,5H29a1,1,0,0,1,1,1Z" fill="#293e40"/>
      <path d="M22.707,14.293a1,1,0,0,0-1.414,1.414L23.586,18l-2.293,2.293a1,1,0,1,0,1.414,1.414l3-3a1,1,0,0,0,0-1.414Z" fill="#293e40"/>
      <path d="M7.414,18l2.293-2.293a1,1,0,0,0-1.414-1.414l-3,3a1,1,0,0,0,0,1.414l3,3a1,1,0,0,0,1.414-1.414Z" fill="#293e40"/>
      <path d="M12,17H11a1,1,0,0,0,0,2h1a1,1,0,0,0,0-2Z" fill="#293e40"/>
      <path d="M16,17H15a1,1,0,0,0,0,2h1a1,1,0,0,0,0-2Z" fill="#293e40"/>
      <path d="M20,17H19a1,1,0,0,0,0,2h1a1,1,0,0,0,0-2Z" fill="#293e40"/>
    </g>
  </g>
</svg>
