<svg id="Layer_1" data-name="Layer 1" xmlns="http://www.w3.org/2000/svg" width="32" height="32" viewBox="0 0 32 32">
  <title>Start Discussion</title>
  <g>
    <path d="M24.51,13A7.379,7.379,0,0,0,17,20.222a7.277,7.277,0,0,0,5.607,6.987,1.143,1.143,0,0,1,.884,1.093V30a1,1,0,0,0,.651.937A1.009,1.009,0,0,0,24.49,31a1,1,0,0,0,.757-.347l4.772-5.532A7.04,7.04,0,0,0,32,20.222,7.368,7.368,0,0,0,24.51,13Z" fill="#81b5a0"/>
    <g>
      <path d="M19.819,4a11.654,11.654,0,0,0-9.211-2.917A12.171,12.171,0,0,0,.2,11.137a12.71,12.71,0,0,0,2.962,10.67,1.018,1.018,0,0,0,.073.074L11.8,29.737a1,1,0,0,0,.676.263,1.018,1.018,0,0,0,.4-.084,1,1,0,0,0,.6-.916V26.691a.955.955,0,0,1,.74-.98C19.978,24.828,24,19.774,24,13.423A12.6,12.6,0,0,0,19.819,4Zm-5.9,19.736a2.962,2.962,0,0,0-2.437,2.956v.036L4.625,20.442a10.724,10.724,0,0,1-2.456-8.963A10.162,10.162,0,0,1,10.84,3.068a9.7,9.7,0,0,1,7.65,2.425A10.6,10.6,0,0,1,22,13.423C22,18.764,18.676,23,13.916,23.735Z" fill="#293e40"/>
      <path d="M16,13H13V10a1,1,0,0,0-2,0v3H8a1,1,0,0,0,0,2h3v3a1,1,0,0,0,2,0V15h3a1,1,0,0,0,0-2Z" fill="#293e40"/>
    </g>
  </g>
</svg>
